; NON-PLATED HOLES START AT T1
; THROUGH (PLATED) HOLES START AT T100
M48
INCH
T100C0.031497
T101C0.015748
T102C0.038000
T103C0.038417
T104C0.035000
T105C0.038445
%
T100
X004046Y019491
X004046Y018507
T101
X014046Y004962
T102
X006046Y008962
X007546Y009962
X004546Y010962
X003046Y005462
X009046Y008962
X021046Y007962
X007546Y010962
X020046Y007962
X007546Y002962
X010046Y003962
X010546Y009962
X012046Y008962
X010546Y010962
X024546Y011462
X013953Y007963
X024546Y008462
X006046Y009962
X003046Y006462
X016953Y007963
X014953Y007963
X009046Y009962
X006046Y010962
X015953Y007963
X009046Y010962
X007546Y003962
X004546Y008962
X019046Y003462
X007546Y008962
X012046Y009962
X024546Y012462
X021046Y003462
X012046Y010962
X010046Y002962
X022046Y003462
X020046Y003462
X010546Y008962
X024546Y009462
X023046Y003462
X018046Y007962
X024546Y010462
X019046Y007962
X004546Y009962
T103
X018040Y000957
X017039Y000957
X011040Y000957
X020040Y000957
X021040Y000957
X012040Y000957
X013040Y000957
X022039Y000957
X014040Y000957
X023040Y000957
X024040Y000957
X015040Y000957
X016040Y000957
X025040Y000957
T104
X002046Y007962
X004546Y003734
X001987Y001962
X002046Y011962
X001987Y003734
X004546Y001962
T105
X015440Y019957
X023040Y019957
X024040Y019957
X016439Y019957
X007439Y019957
X008439Y019957
X010440Y019957
X025040Y019957
X011440Y019957
X009439Y019957
X018040Y019957
X019040Y019957
X012440Y019957
X013440Y019957
X020040Y019957
X021040Y019957
X022039Y019957
X014440Y019957
T00
M30
