G04 MADE WITH FRITZING*
G04 WWW.FRITZING.ORG*
G04 DOUBLE SIDED*
G04 HOLES PLATED*
G04 CONTOUR ON CENTER OF CONTOUR VECTOR*
%ASAXBY*%
%FSLAX23Y23*%
%MOIN*%
%OFA0B0*%
%SFA1.0B1.0*%
%ADD10C,0.049370*%
%ADD11C,0.085000*%
%ADD12C,0.072992*%
%ADD13C,0.088000*%
%ADD14C,0.076194*%
%ADD15C,0.076222*%
%ADD16R,0.072992X0.072992*%
%ADD17R,0.088000X0.088000*%
%LNMASK0*%
G90*
G70*
G54D10*
X1405Y496D03*
G54D11*
X455Y196D03*
X199Y196D03*
X455Y373D03*
X199Y373D03*
G54D12*
X405Y1949D03*
X405Y1851D03*
G54D11*
X205Y796D03*
X205Y1196D03*
G54D13*
X1905Y346D03*
X2005Y346D03*
X2105Y346D03*
X2205Y346D03*
X2305Y346D03*
X2455Y846D03*
X2455Y946D03*
X2455Y1046D03*
X2455Y1146D03*
X2455Y1246D03*
X1005Y396D03*
X1005Y296D03*
X755Y396D03*
X755Y296D03*
X305Y646D03*
X305Y546D03*
X1395Y796D03*
X1495Y796D03*
X1595Y796D03*
X1695Y796D03*
X1395Y796D03*
X1495Y796D03*
X1595Y796D03*
X1695Y796D03*
X2105Y796D03*
X2005Y796D03*
X1905Y796D03*
X1805Y796D03*
X1205Y896D03*
X1205Y996D03*
X1205Y1096D03*
X1055Y896D03*
X1055Y996D03*
X1055Y1096D03*
X905Y896D03*
X905Y996D03*
X905Y1096D03*
X755Y896D03*
X755Y996D03*
X755Y1096D03*
X605Y896D03*
X605Y996D03*
X605Y1096D03*
X455Y896D03*
X455Y996D03*
X455Y1096D03*
G54D14*
X2104Y96D03*
X2204Y96D03*
X2304Y96D03*
X2404Y96D03*
X2504Y96D03*
G54D15*
X1644Y1996D03*
X1544Y1996D03*
X1444Y1996D03*
X1344Y1996D03*
X1244Y1996D03*
X1144Y1996D03*
X1044Y1996D03*
X944Y1996D03*
X844Y1996D03*
X744Y1996D03*
X2504Y1996D03*
X2404Y1996D03*
X2304Y1996D03*
X2204Y1996D03*
X2104Y1996D03*
X2004Y1996D03*
X1904Y1996D03*
X1804Y1996D03*
G54D14*
X1204Y96D03*
X1104Y96D03*
X1304Y96D03*
X1404Y96D03*
X1504Y96D03*
X1604Y96D03*
X1704Y96D03*
X1804Y96D03*
X2004Y96D03*
G54D16*
X405Y1949D03*
G54D17*
X1205Y896D03*
X1055Y896D03*
X905Y896D03*
X755Y896D03*
X605Y896D03*
X455Y896D03*
G04 End of Mask0*
M02*