G04 MADE WITH FRITZING*
G04 WWW.FRITZING.ORG*
G04 DOUBLE SIDED*
G04 HOLES PLATED*
G04 CONTOUR ON CENTER OF CONTOUR VECTOR*
%ASAXBY*%
%FSLAX23Y23*%
%MOIN*%
%OFA0B0*%
%SFA1.0B1.0*%
%ADD10C,0.075000*%
%ADD11C,0.039370*%
%ADD12C,0.062992*%
%ADD13C,0.078000*%
%ADD14C,0.065278*%
%ADD15R,0.062992X0.062992*%
%ADD16R,0.078000X0.078000*%
%ADD17C,0.024000*%
%LNCOPPER0*%
G90*
G70*
G54D10*
X1340Y1873D03*
X1735Y1922D03*
G54D11*
X1755Y696D03*
X1605Y696D03*
X1405Y646D03*
X1405Y546D03*
G54D10*
X455Y196D03*
X199Y196D03*
X455Y373D03*
X199Y373D03*
G54D12*
X405Y1949D03*
X405Y1851D03*
G54D10*
X205Y796D03*
X205Y1196D03*
G54D13*
X1905Y346D03*
X2005Y346D03*
X2105Y346D03*
X2205Y346D03*
X2305Y346D03*
X1005Y396D03*
X1005Y296D03*
X755Y396D03*
X755Y296D03*
X1205Y696D03*
X1205Y596D03*
X305Y696D03*
X305Y596D03*
X1395Y796D03*
X1495Y796D03*
X1595Y796D03*
X1695Y796D03*
X1395Y796D03*
X1495Y796D03*
X1595Y796D03*
X1695Y796D03*
X2105Y796D03*
X2005Y796D03*
X1905Y796D03*
X1805Y796D03*
X2505Y1446D03*
X2505Y1546D03*
X2505Y1646D03*
X2355Y1446D03*
X2355Y1546D03*
X2355Y1646D03*
X2205Y1446D03*
X2205Y1546D03*
X2205Y1646D03*
X2505Y1246D03*
X2405Y1246D03*
X2305Y1246D03*
X2505Y1096D03*
X2405Y1096D03*
X2305Y1096D03*
X2505Y946D03*
X2405Y946D03*
X2305Y946D03*
X2505Y796D03*
X2405Y796D03*
X2305Y796D03*
X1205Y896D03*
X1205Y996D03*
X1205Y1096D03*
X1055Y896D03*
X1055Y996D03*
X1055Y1096D03*
X905Y896D03*
X905Y996D03*
X905Y1096D03*
X755Y896D03*
X755Y996D03*
X755Y1096D03*
X605Y896D03*
X605Y996D03*
X605Y1096D03*
X455Y896D03*
X455Y996D03*
X455Y1096D03*
G54D14*
X2104Y96D03*
X2204Y96D03*
X2304Y96D03*
X2404Y96D03*
X2504Y96D03*
X1644Y1996D03*
X1544Y1996D03*
X1444Y1996D03*
X1344Y1996D03*
X1244Y1996D03*
X1144Y1996D03*
X1044Y1996D03*
X944Y1996D03*
X844Y1996D03*
X744Y1996D03*
X2504Y1996D03*
X2404Y1996D03*
X2304Y1996D03*
X2204Y1996D03*
X2104Y1996D03*
X2004Y1996D03*
X1904Y1996D03*
X1804Y1996D03*
X1204Y96D03*
X1104Y96D03*
X1304Y96D03*
X1404Y96D03*
X1504Y96D03*
X1604Y96D03*
X1704Y96D03*
X1804Y96D03*
X2004Y96D03*
G54D15*
X405Y1949D03*
G54D16*
X2505Y1446D03*
X2355Y1446D03*
X2205Y1446D03*
X2505Y1246D03*
X2505Y1096D03*
X2505Y946D03*
X2505Y796D03*
X1205Y896D03*
X1055Y896D03*
X905Y896D03*
X755Y896D03*
X605Y896D03*
X455Y896D03*
G54D17*
X975Y396D02*
X785Y396D01*
D02*
X1605Y398D02*
X1604Y127D01*
D02*
X1035Y396D02*
X1605Y398D01*
D02*
X1624Y696D02*
X1736Y696D01*
D02*
X1405Y627D02*
X1405Y565D01*
D02*
X2054Y946D02*
X1605Y944D01*
D02*
X1605Y944D02*
X1605Y1396D01*
D02*
X1605Y1396D02*
X1254Y1395D01*
D02*
X1254Y1395D02*
X1245Y1965D01*
D02*
X2279Y812D02*
X2054Y946D01*
D02*
X2055Y996D02*
X1657Y998D01*
D02*
X1657Y998D02*
X1644Y1965D01*
D02*
X2275Y952D02*
X2055Y996D01*
D02*
X1805Y1096D02*
X1804Y1965D01*
D02*
X2275Y1096D02*
X1805Y1096D01*
D02*
X2104Y1897D02*
X2104Y1965D01*
D02*
X2056Y1745D02*
X2104Y1897D01*
D02*
X2057Y1348D02*
X2056Y1745D01*
D02*
X2205Y1344D02*
X2057Y1348D01*
D02*
X2205Y1244D02*
X2205Y1344D01*
D02*
X2275Y1246D02*
X2205Y1244D01*
D02*
X2505Y826D02*
X2505Y916D01*
D02*
X2505Y976D02*
X2505Y1066D01*
D02*
X2505Y1126D02*
X2505Y1216D01*
D02*
X2385Y1446D02*
X2475Y1446D01*
D02*
X2325Y1446D02*
X2235Y1446D01*
D02*
X2505Y1416D02*
X2505Y1276D01*
D02*
X2506Y447D02*
X1905Y446D01*
D02*
X1905Y446D02*
X1905Y376D01*
D02*
X2505Y766D02*
X2506Y447D01*
D02*
X1704Y346D02*
X1704Y127D01*
D02*
X1875Y346D02*
X1704Y346D01*
D02*
X1304Y496D02*
X1104Y494D01*
D02*
X1304Y447D02*
X1304Y496D01*
D02*
X1505Y447D02*
X1304Y447D01*
D02*
X1105Y796D02*
X1183Y875D01*
D02*
X1104Y494D02*
X1105Y796D01*
D02*
X1506Y447D02*
X1505Y447D01*
D02*
X1005Y796D02*
X1041Y869D01*
D02*
X1005Y494D02*
X1005Y796D01*
D02*
X1104Y494D02*
X1005Y494D01*
D02*
X905Y496D02*
X905Y866D01*
D02*
X1005Y494D02*
X905Y496D01*
D02*
X755Y496D02*
X755Y866D01*
D02*
X905Y496D02*
X755Y496D01*
D02*
X606Y496D02*
X605Y866D01*
D02*
X755Y496D02*
X606Y496D01*
D02*
X453Y496D02*
X455Y866D01*
D02*
X606Y496D02*
X453Y496D01*
D02*
X455Y494D02*
X204Y494D01*
D02*
X204Y494D02*
X205Y768D01*
D02*
X453Y496D02*
X455Y494D01*
D02*
X455Y494D02*
X455Y402D01*
D02*
X1605Y447D02*
X1506Y447D01*
D02*
X1506Y447D02*
X1496Y766D01*
D02*
X1604Y127D02*
X1605Y447D01*
D02*
X1155Y196D02*
X1004Y147D01*
D02*
X655Y196D02*
X483Y196D01*
D02*
X655Y147D02*
X655Y196D01*
D02*
X1004Y147D02*
X655Y147D01*
D02*
X1304Y196D02*
X1155Y196D01*
D02*
X1304Y127D02*
X1304Y196D01*
D02*
X1505Y296D02*
X1035Y296D01*
D02*
X1504Y127D02*
X1505Y296D01*
G36*
X1284Y1985D02*
X1284Y1979D01*
X1282Y1979D01*
X1282Y1975D01*
X1280Y1975D01*
X1280Y1971D01*
X1278Y1971D01*
X1278Y1969D01*
X1276Y1969D01*
X1276Y1967D01*
X1274Y1967D01*
X1274Y1965D01*
X1272Y1965D01*
X1272Y1963D01*
X1270Y1963D01*
X1270Y1961D01*
X1268Y1961D01*
X1268Y1959D01*
X1266Y1959D01*
X1266Y1953D01*
X1334Y1953D01*
X1334Y1955D01*
X1328Y1955D01*
X1328Y1957D01*
X1324Y1957D01*
X1324Y1959D01*
X1320Y1959D01*
X1320Y1961D01*
X1318Y1961D01*
X1318Y1963D01*
X1316Y1963D01*
X1316Y1965D01*
X1314Y1965D01*
X1314Y1967D01*
X1312Y1967D01*
X1312Y1969D01*
X1310Y1969D01*
X1310Y1971D01*
X1308Y1971D01*
X1308Y1975D01*
X1306Y1975D01*
X1306Y1979D01*
X1304Y1979D01*
X1304Y1985D01*
X1284Y1985D01*
G37*
D02*
G36*
X1384Y1985D02*
X1384Y1979D01*
X1382Y1979D01*
X1382Y1975D01*
X1380Y1975D01*
X1380Y1971D01*
X1378Y1971D01*
X1378Y1969D01*
X1376Y1969D01*
X1376Y1967D01*
X1374Y1967D01*
X1374Y1965D01*
X1372Y1965D01*
X1372Y1963D01*
X1370Y1963D01*
X1370Y1961D01*
X1368Y1961D01*
X1368Y1959D01*
X1364Y1959D01*
X1364Y1957D01*
X1360Y1957D01*
X1360Y1955D01*
X1354Y1955D01*
X1354Y1953D01*
X1434Y1953D01*
X1434Y1955D01*
X1428Y1955D01*
X1428Y1957D01*
X1424Y1957D01*
X1424Y1959D01*
X1420Y1959D01*
X1420Y1961D01*
X1418Y1961D01*
X1418Y1963D01*
X1416Y1963D01*
X1416Y1965D01*
X1414Y1965D01*
X1414Y1967D01*
X1412Y1967D01*
X1412Y1969D01*
X1410Y1969D01*
X1410Y1971D01*
X1408Y1971D01*
X1408Y1975D01*
X1406Y1975D01*
X1406Y1979D01*
X1404Y1979D01*
X1404Y1985D01*
X1384Y1985D01*
G37*
D02*
G36*
X1484Y1985D02*
X1484Y1979D01*
X1482Y1979D01*
X1482Y1975D01*
X1480Y1975D01*
X1480Y1971D01*
X1478Y1971D01*
X1478Y1969D01*
X1476Y1969D01*
X1476Y1967D01*
X1474Y1967D01*
X1474Y1965D01*
X1472Y1965D01*
X1472Y1963D01*
X1470Y1963D01*
X1470Y1961D01*
X1468Y1961D01*
X1468Y1959D01*
X1464Y1959D01*
X1464Y1957D01*
X1460Y1957D01*
X1460Y1955D01*
X1454Y1955D01*
X1454Y1953D01*
X1534Y1953D01*
X1534Y1955D01*
X1528Y1955D01*
X1528Y1957D01*
X1524Y1957D01*
X1524Y1959D01*
X1520Y1959D01*
X1520Y1961D01*
X1518Y1961D01*
X1518Y1963D01*
X1516Y1963D01*
X1516Y1965D01*
X1514Y1965D01*
X1514Y1967D01*
X1512Y1967D01*
X1512Y1969D01*
X1510Y1969D01*
X1510Y1971D01*
X1508Y1971D01*
X1508Y1975D01*
X1506Y1975D01*
X1506Y1979D01*
X1504Y1979D01*
X1504Y1985D01*
X1484Y1985D01*
G37*
D02*
G36*
X1584Y1985D02*
X1584Y1979D01*
X1582Y1979D01*
X1582Y1975D01*
X1580Y1975D01*
X1580Y1971D01*
X1578Y1971D01*
X1578Y1969D01*
X1576Y1969D01*
X1576Y1967D01*
X1574Y1967D01*
X1574Y1965D01*
X1572Y1965D01*
X1572Y1963D01*
X1570Y1963D01*
X1570Y1961D01*
X1568Y1961D01*
X1568Y1959D01*
X1564Y1959D01*
X1564Y1957D01*
X1560Y1957D01*
X1560Y1955D01*
X1554Y1955D01*
X1554Y1953D01*
X1622Y1953D01*
X1622Y1959D01*
X1620Y1959D01*
X1620Y1961D01*
X1618Y1961D01*
X1618Y1963D01*
X1616Y1963D01*
X1616Y1965D01*
X1614Y1965D01*
X1614Y1967D01*
X1612Y1967D01*
X1612Y1969D01*
X1610Y1969D01*
X1610Y1971D01*
X1608Y1971D01*
X1608Y1975D01*
X1606Y1975D01*
X1606Y1979D01*
X1604Y1979D01*
X1604Y1985D01*
X1584Y1985D01*
G37*
D02*
G36*
X1266Y1953D02*
X1266Y1951D01*
X1622Y1951D01*
X1622Y1953D01*
X1266Y1953D01*
G37*
D02*
G36*
X1266Y1953D02*
X1266Y1951D01*
X1622Y1951D01*
X1622Y1953D01*
X1266Y1953D01*
G37*
D02*
G36*
X1266Y1953D02*
X1266Y1951D01*
X1622Y1951D01*
X1622Y1953D01*
X1266Y1953D01*
G37*
D02*
G36*
X1266Y1953D02*
X1266Y1951D01*
X1622Y1951D01*
X1622Y1953D01*
X1266Y1953D01*
G37*
D02*
G36*
X1266Y1951D02*
X1266Y1937D01*
X1268Y1937D01*
X1268Y1817D01*
X1270Y1817D01*
X1270Y1697D01*
X1272Y1697D01*
X1272Y1577D01*
X1274Y1577D01*
X1274Y1457D01*
X1276Y1457D01*
X1276Y1417D01*
X1630Y1417D01*
X1630Y1449D01*
X1628Y1449D01*
X1628Y1605D01*
X1626Y1605D01*
X1626Y1759D01*
X1624Y1759D01*
X1624Y1915D01*
X1622Y1915D01*
X1622Y1951D01*
X1266Y1951D01*
G37*
D02*
G36*
X76Y2059D02*
X76Y2057D01*
X70Y2057D01*
X70Y2055D01*
X68Y2055D01*
X68Y2053D01*
X64Y2053D01*
X64Y2051D01*
X62Y2051D01*
X62Y2049D01*
X60Y2049D01*
X60Y2047D01*
X58Y2047D01*
X58Y2043D01*
X56Y2043D01*
X56Y2041D01*
X54Y2041D01*
X54Y2037D01*
X2416Y2037D01*
X2416Y2035D01*
X2422Y2035D01*
X2422Y2033D01*
X2426Y2033D01*
X2426Y2031D01*
X2428Y2031D01*
X2428Y2029D01*
X2432Y2029D01*
X2432Y2027D01*
X2434Y2027D01*
X2434Y2025D01*
X2436Y2025D01*
X2436Y2021D01*
X2438Y2021D01*
X2438Y2019D01*
X2440Y2019D01*
X2440Y2017D01*
X2442Y2017D01*
X2442Y2013D01*
X2444Y2013D01*
X2444Y2007D01*
X2464Y2007D01*
X2464Y2013D01*
X2466Y2013D01*
X2466Y2017D01*
X2468Y2017D01*
X2468Y2019D01*
X2470Y2019D01*
X2470Y2021D01*
X2472Y2021D01*
X2472Y2025D01*
X2474Y2025D01*
X2474Y2027D01*
X2476Y2027D01*
X2476Y2029D01*
X2480Y2029D01*
X2480Y2031D01*
X2482Y2031D01*
X2482Y2033D01*
X2486Y2033D01*
X2486Y2035D01*
X2492Y2035D01*
X2492Y2037D01*
X2508Y2037D01*
X2508Y2057D01*
X2506Y2057D01*
X2506Y2059D01*
X76Y2059D01*
G37*
D02*
G36*
X54Y2037D02*
X54Y2035D01*
X52Y2035D01*
X52Y1991D01*
X446Y1991D01*
X446Y1953D01*
X734Y1953D01*
X734Y1955D01*
X728Y1955D01*
X728Y1957D01*
X724Y1957D01*
X724Y1959D01*
X720Y1959D01*
X720Y1961D01*
X718Y1961D01*
X718Y1963D01*
X716Y1963D01*
X716Y1965D01*
X714Y1965D01*
X714Y1967D01*
X712Y1967D01*
X712Y1969D01*
X710Y1969D01*
X710Y1971D01*
X708Y1971D01*
X708Y1975D01*
X706Y1975D01*
X706Y1979D01*
X704Y1979D01*
X704Y1985D01*
X702Y1985D01*
X702Y2007D01*
X704Y2007D01*
X704Y2013D01*
X706Y2013D01*
X706Y2017D01*
X708Y2017D01*
X708Y2019D01*
X710Y2019D01*
X710Y2021D01*
X712Y2021D01*
X712Y2025D01*
X714Y2025D01*
X714Y2027D01*
X716Y2027D01*
X716Y2029D01*
X720Y2029D01*
X720Y2031D01*
X722Y2031D01*
X722Y2033D01*
X726Y2033D01*
X726Y2035D01*
X732Y2035D01*
X732Y2037D01*
X54Y2037D01*
G37*
D02*
G36*
X756Y2037D02*
X756Y2035D01*
X762Y2035D01*
X762Y2033D01*
X766Y2033D01*
X766Y2031D01*
X768Y2031D01*
X768Y2029D01*
X772Y2029D01*
X772Y2027D01*
X774Y2027D01*
X774Y2025D01*
X776Y2025D01*
X776Y2021D01*
X778Y2021D01*
X778Y2019D01*
X780Y2019D01*
X780Y2015D01*
X782Y2015D01*
X782Y2013D01*
X784Y2013D01*
X784Y2007D01*
X804Y2007D01*
X804Y2013D01*
X806Y2013D01*
X806Y2017D01*
X808Y2017D01*
X808Y2019D01*
X810Y2019D01*
X810Y2021D01*
X812Y2021D01*
X812Y2025D01*
X814Y2025D01*
X814Y2027D01*
X816Y2027D01*
X816Y2029D01*
X820Y2029D01*
X820Y2031D01*
X822Y2031D01*
X822Y2033D01*
X826Y2033D01*
X826Y2035D01*
X832Y2035D01*
X832Y2037D01*
X756Y2037D01*
G37*
D02*
G36*
X856Y2037D02*
X856Y2035D01*
X862Y2035D01*
X862Y2033D01*
X866Y2033D01*
X866Y2031D01*
X868Y2031D01*
X868Y2029D01*
X872Y2029D01*
X872Y2027D01*
X874Y2027D01*
X874Y2025D01*
X876Y2025D01*
X876Y2021D01*
X878Y2021D01*
X878Y2019D01*
X880Y2019D01*
X880Y2017D01*
X882Y2017D01*
X882Y2013D01*
X884Y2013D01*
X884Y2007D01*
X904Y2007D01*
X904Y2013D01*
X906Y2013D01*
X906Y2017D01*
X908Y2017D01*
X908Y2019D01*
X910Y2019D01*
X910Y2021D01*
X912Y2021D01*
X912Y2025D01*
X914Y2025D01*
X914Y2027D01*
X916Y2027D01*
X916Y2029D01*
X920Y2029D01*
X920Y2031D01*
X922Y2031D01*
X922Y2033D01*
X926Y2033D01*
X926Y2035D01*
X932Y2035D01*
X932Y2037D01*
X856Y2037D01*
G37*
D02*
G36*
X956Y2037D02*
X956Y2035D01*
X962Y2035D01*
X962Y2033D01*
X966Y2033D01*
X966Y2031D01*
X968Y2031D01*
X968Y2029D01*
X972Y2029D01*
X972Y2027D01*
X974Y2027D01*
X974Y2025D01*
X976Y2025D01*
X976Y2021D01*
X978Y2021D01*
X978Y2019D01*
X980Y2019D01*
X980Y2017D01*
X982Y2017D01*
X982Y2013D01*
X984Y2013D01*
X984Y2007D01*
X1004Y2007D01*
X1004Y2013D01*
X1006Y2013D01*
X1006Y2017D01*
X1008Y2017D01*
X1008Y2019D01*
X1010Y2019D01*
X1010Y2021D01*
X1012Y2021D01*
X1012Y2025D01*
X1014Y2025D01*
X1014Y2027D01*
X1016Y2027D01*
X1016Y2029D01*
X1020Y2029D01*
X1020Y2031D01*
X1022Y2031D01*
X1022Y2033D01*
X1026Y2033D01*
X1026Y2035D01*
X1032Y2035D01*
X1032Y2037D01*
X956Y2037D01*
G37*
D02*
G36*
X1056Y2037D02*
X1056Y2035D01*
X1062Y2035D01*
X1062Y2033D01*
X1066Y2033D01*
X1066Y2031D01*
X1068Y2031D01*
X1068Y2029D01*
X1072Y2029D01*
X1072Y2027D01*
X1074Y2027D01*
X1074Y2025D01*
X1076Y2025D01*
X1076Y2021D01*
X1078Y2021D01*
X1078Y2019D01*
X1080Y2019D01*
X1080Y2017D01*
X1082Y2017D01*
X1082Y2013D01*
X1084Y2013D01*
X1084Y2007D01*
X1104Y2007D01*
X1104Y2013D01*
X1106Y2013D01*
X1106Y2017D01*
X1108Y2017D01*
X1108Y2019D01*
X1110Y2019D01*
X1110Y2021D01*
X1112Y2021D01*
X1112Y2025D01*
X1114Y2025D01*
X1114Y2027D01*
X1116Y2027D01*
X1116Y2029D01*
X1120Y2029D01*
X1120Y2031D01*
X1122Y2031D01*
X1122Y2033D01*
X1126Y2033D01*
X1126Y2035D01*
X1132Y2035D01*
X1132Y2037D01*
X1056Y2037D01*
G37*
D02*
G36*
X1156Y2037D02*
X1156Y2035D01*
X1162Y2035D01*
X1162Y2033D01*
X1166Y2033D01*
X1166Y2031D01*
X1168Y2031D01*
X1168Y2029D01*
X1172Y2029D01*
X1172Y2027D01*
X1174Y2027D01*
X1174Y2025D01*
X1176Y2025D01*
X1176Y2021D01*
X1178Y2021D01*
X1178Y2019D01*
X1180Y2019D01*
X1180Y2017D01*
X1182Y2017D01*
X1182Y2013D01*
X1184Y2013D01*
X1184Y2007D01*
X1204Y2007D01*
X1204Y2013D01*
X1206Y2013D01*
X1206Y2017D01*
X1208Y2017D01*
X1208Y2019D01*
X1210Y2019D01*
X1210Y2021D01*
X1212Y2021D01*
X1212Y2025D01*
X1214Y2025D01*
X1214Y2027D01*
X1216Y2027D01*
X1216Y2029D01*
X1220Y2029D01*
X1220Y2031D01*
X1222Y2031D01*
X1222Y2033D01*
X1226Y2033D01*
X1226Y2035D01*
X1232Y2035D01*
X1232Y2037D01*
X1156Y2037D01*
G37*
D02*
G36*
X1256Y2037D02*
X1256Y2035D01*
X1262Y2035D01*
X1262Y2033D01*
X1266Y2033D01*
X1266Y2031D01*
X1268Y2031D01*
X1268Y2029D01*
X1272Y2029D01*
X1272Y2027D01*
X1274Y2027D01*
X1274Y2025D01*
X1276Y2025D01*
X1276Y2021D01*
X1278Y2021D01*
X1278Y2019D01*
X1280Y2019D01*
X1280Y2017D01*
X1282Y2017D01*
X1282Y2013D01*
X1284Y2013D01*
X1284Y2007D01*
X1304Y2007D01*
X1304Y2013D01*
X1306Y2013D01*
X1306Y2017D01*
X1308Y2017D01*
X1308Y2019D01*
X1310Y2019D01*
X1310Y2021D01*
X1312Y2021D01*
X1312Y2025D01*
X1314Y2025D01*
X1314Y2027D01*
X1316Y2027D01*
X1316Y2029D01*
X1320Y2029D01*
X1320Y2031D01*
X1322Y2031D01*
X1322Y2033D01*
X1326Y2033D01*
X1326Y2035D01*
X1332Y2035D01*
X1332Y2037D01*
X1256Y2037D01*
G37*
D02*
G36*
X1356Y2037D02*
X1356Y2035D01*
X1362Y2035D01*
X1362Y2033D01*
X1366Y2033D01*
X1366Y2031D01*
X1368Y2031D01*
X1368Y2029D01*
X1372Y2029D01*
X1372Y2027D01*
X1374Y2027D01*
X1374Y2025D01*
X1376Y2025D01*
X1376Y2021D01*
X1378Y2021D01*
X1378Y2019D01*
X1380Y2019D01*
X1380Y2017D01*
X1382Y2017D01*
X1382Y2013D01*
X1384Y2013D01*
X1384Y2007D01*
X1404Y2007D01*
X1404Y2013D01*
X1406Y2013D01*
X1406Y2017D01*
X1408Y2017D01*
X1408Y2019D01*
X1410Y2019D01*
X1410Y2021D01*
X1412Y2021D01*
X1412Y2025D01*
X1414Y2025D01*
X1414Y2027D01*
X1416Y2027D01*
X1416Y2029D01*
X1420Y2029D01*
X1420Y2031D01*
X1422Y2031D01*
X1422Y2033D01*
X1426Y2033D01*
X1426Y2035D01*
X1432Y2035D01*
X1432Y2037D01*
X1356Y2037D01*
G37*
D02*
G36*
X1456Y2037D02*
X1456Y2035D01*
X1462Y2035D01*
X1462Y2033D01*
X1466Y2033D01*
X1466Y2031D01*
X1468Y2031D01*
X1468Y2029D01*
X1472Y2029D01*
X1472Y2027D01*
X1474Y2027D01*
X1474Y2025D01*
X1476Y2025D01*
X1476Y2021D01*
X1478Y2021D01*
X1478Y2019D01*
X1480Y2019D01*
X1480Y2017D01*
X1482Y2017D01*
X1482Y2013D01*
X1484Y2013D01*
X1484Y2007D01*
X1504Y2007D01*
X1504Y2013D01*
X1506Y2013D01*
X1506Y2017D01*
X1508Y2017D01*
X1508Y2019D01*
X1510Y2019D01*
X1510Y2021D01*
X1512Y2021D01*
X1512Y2025D01*
X1514Y2025D01*
X1514Y2027D01*
X1516Y2027D01*
X1516Y2029D01*
X1520Y2029D01*
X1520Y2031D01*
X1522Y2031D01*
X1522Y2033D01*
X1526Y2033D01*
X1526Y2035D01*
X1532Y2035D01*
X1532Y2037D01*
X1456Y2037D01*
G37*
D02*
G36*
X1556Y2037D02*
X1556Y2035D01*
X1562Y2035D01*
X1562Y2033D01*
X1566Y2033D01*
X1566Y2031D01*
X1568Y2031D01*
X1568Y2029D01*
X1572Y2029D01*
X1572Y2027D01*
X1574Y2027D01*
X1574Y2025D01*
X1576Y2025D01*
X1576Y2021D01*
X1578Y2021D01*
X1578Y2019D01*
X1580Y2019D01*
X1580Y2017D01*
X1582Y2017D01*
X1582Y2013D01*
X1584Y2013D01*
X1584Y2007D01*
X1604Y2007D01*
X1604Y2013D01*
X1606Y2013D01*
X1606Y2017D01*
X1608Y2017D01*
X1608Y2019D01*
X1610Y2019D01*
X1610Y2023D01*
X1612Y2023D01*
X1612Y2025D01*
X1614Y2025D01*
X1614Y2027D01*
X1616Y2027D01*
X1616Y2029D01*
X1620Y2029D01*
X1620Y2031D01*
X1622Y2031D01*
X1622Y2033D01*
X1626Y2033D01*
X1626Y2035D01*
X1632Y2035D01*
X1632Y2037D01*
X1556Y2037D01*
G37*
D02*
G36*
X1656Y2037D02*
X1656Y2035D01*
X1662Y2035D01*
X1662Y2033D01*
X1666Y2033D01*
X1666Y2031D01*
X1668Y2031D01*
X1668Y2029D01*
X1672Y2029D01*
X1672Y2027D01*
X1674Y2027D01*
X1674Y2025D01*
X1676Y2025D01*
X1676Y2021D01*
X1678Y2021D01*
X1678Y2019D01*
X1680Y2019D01*
X1680Y2015D01*
X1682Y2015D01*
X1682Y2013D01*
X1684Y2013D01*
X1684Y2007D01*
X1686Y2007D01*
X1686Y1985D01*
X1684Y1985D01*
X1684Y1979D01*
X1682Y1979D01*
X1682Y1975D01*
X1680Y1975D01*
X1680Y1971D01*
X1678Y1971D01*
X1678Y1969D01*
X1676Y1969D01*
X1676Y1967D01*
X1674Y1967D01*
X1674Y1965D01*
X1672Y1965D01*
X1672Y1963D01*
X1670Y1963D01*
X1670Y1961D01*
X1668Y1961D01*
X1668Y1959D01*
X1666Y1959D01*
X1666Y1917D01*
X1668Y1917D01*
X1668Y1761D01*
X1670Y1761D01*
X1670Y1607D01*
X1672Y1607D01*
X1672Y1451D01*
X1674Y1451D01*
X1674Y1297D01*
X1676Y1297D01*
X1676Y1141D01*
X1678Y1141D01*
X1678Y1047D01*
X2294Y1047D01*
X2294Y1049D01*
X2288Y1049D01*
X2288Y1051D01*
X2284Y1051D01*
X2284Y1053D01*
X2280Y1053D01*
X2280Y1055D01*
X2276Y1055D01*
X2276Y1057D01*
X2274Y1057D01*
X2274Y1059D01*
X2272Y1059D01*
X2272Y1061D01*
X2270Y1061D01*
X2270Y1063D01*
X2268Y1063D01*
X2268Y1065D01*
X2266Y1065D01*
X2266Y1067D01*
X2264Y1067D01*
X2264Y1071D01*
X2262Y1071D01*
X2262Y1073D01*
X1804Y1073D01*
X1804Y1075D01*
X1796Y1075D01*
X1796Y1077D01*
X1792Y1077D01*
X1792Y1079D01*
X1790Y1079D01*
X1790Y1081D01*
X1788Y1081D01*
X1788Y1083D01*
X1786Y1083D01*
X1786Y1087D01*
X1784Y1087D01*
X1784Y1093D01*
X1782Y1093D01*
X1782Y1959D01*
X1780Y1959D01*
X1780Y1961D01*
X1778Y1961D01*
X1778Y1963D01*
X1776Y1963D01*
X1776Y1965D01*
X1774Y1965D01*
X1774Y1967D01*
X1772Y1967D01*
X1772Y1969D01*
X1770Y1969D01*
X1770Y1971D01*
X1768Y1971D01*
X1768Y1975D01*
X1766Y1975D01*
X1766Y1979D01*
X1764Y1979D01*
X1764Y1985D01*
X1762Y1985D01*
X1762Y2007D01*
X1764Y2007D01*
X1764Y2013D01*
X1766Y2013D01*
X1766Y2017D01*
X1768Y2017D01*
X1768Y2019D01*
X1770Y2019D01*
X1770Y2021D01*
X1772Y2021D01*
X1772Y2025D01*
X1774Y2025D01*
X1774Y2027D01*
X1776Y2027D01*
X1776Y2029D01*
X1780Y2029D01*
X1780Y2031D01*
X1782Y2031D01*
X1782Y2033D01*
X1786Y2033D01*
X1786Y2035D01*
X1792Y2035D01*
X1792Y2037D01*
X1656Y2037D01*
G37*
D02*
G36*
X1816Y2037D02*
X1816Y2035D01*
X1822Y2035D01*
X1822Y2033D01*
X1826Y2033D01*
X1826Y2031D01*
X1828Y2031D01*
X1828Y2029D01*
X1832Y2029D01*
X1832Y2027D01*
X1834Y2027D01*
X1834Y2025D01*
X1836Y2025D01*
X1836Y2021D01*
X1838Y2021D01*
X1838Y2019D01*
X1840Y2019D01*
X1840Y2017D01*
X1842Y2017D01*
X1842Y2013D01*
X1844Y2013D01*
X1844Y2007D01*
X1864Y2007D01*
X1864Y2013D01*
X1866Y2013D01*
X1866Y2017D01*
X1868Y2017D01*
X1868Y2019D01*
X1870Y2019D01*
X1870Y2021D01*
X1872Y2021D01*
X1872Y2025D01*
X1874Y2025D01*
X1874Y2027D01*
X1876Y2027D01*
X1876Y2029D01*
X1880Y2029D01*
X1880Y2031D01*
X1882Y2031D01*
X1882Y2033D01*
X1886Y2033D01*
X1886Y2035D01*
X1892Y2035D01*
X1892Y2037D01*
X1816Y2037D01*
G37*
D02*
G36*
X1916Y2037D02*
X1916Y2035D01*
X1922Y2035D01*
X1922Y2033D01*
X1926Y2033D01*
X1926Y2031D01*
X1928Y2031D01*
X1928Y2029D01*
X1932Y2029D01*
X1932Y2027D01*
X1934Y2027D01*
X1934Y2025D01*
X1936Y2025D01*
X1936Y2021D01*
X1938Y2021D01*
X1938Y2019D01*
X1940Y2019D01*
X1940Y2017D01*
X1942Y2017D01*
X1942Y2013D01*
X1944Y2013D01*
X1944Y2007D01*
X1964Y2007D01*
X1964Y2013D01*
X1966Y2013D01*
X1966Y2017D01*
X1968Y2017D01*
X1968Y2019D01*
X1970Y2019D01*
X1970Y2021D01*
X1972Y2021D01*
X1972Y2025D01*
X1974Y2025D01*
X1974Y2027D01*
X1976Y2027D01*
X1976Y2029D01*
X1980Y2029D01*
X1980Y2031D01*
X1982Y2031D01*
X1982Y2033D01*
X1986Y2033D01*
X1986Y2035D01*
X1992Y2035D01*
X1992Y2037D01*
X1916Y2037D01*
G37*
D02*
G36*
X2016Y2037D02*
X2016Y2035D01*
X2022Y2035D01*
X2022Y2033D01*
X2026Y2033D01*
X2026Y2031D01*
X2028Y2031D01*
X2028Y2029D01*
X2032Y2029D01*
X2032Y2027D01*
X2034Y2027D01*
X2034Y2025D01*
X2036Y2025D01*
X2036Y2021D01*
X2038Y2021D01*
X2038Y2019D01*
X2040Y2019D01*
X2040Y2017D01*
X2042Y2017D01*
X2042Y2013D01*
X2044Y2013D01*
X2044Y2007D01*
X2064Y2007D01*
X2064Y2013D01*
X2066Y2013D01*
X2066Y2017D01*
X2068Y2017D01*
X2068Y2019D01*
X2070Y2019D01*
X2070Y2021D01*
X2072Y2021D01*
X2072Y2025D01*
X2074Y2025D01*
X2074Y2027D01*
X2076Y2027D01*
X2076Y2029D01*
X2080Y2029D01*
X2080Y2031D01*
X2082Y2031D01*
X2082Y2033D01*
X2086Y2033D01*
X2086Y2035D01*
X2092Y2035D01*
X2092Y2037D01*
X2016Y2037D01*
G37*
D02*
G36*
X2116Y2037D02*
X2116Y2035D01*
X2122Y2035D01*
X2122Y2033D01*
X2126Y2033D01*
X2126Y2031D01*
X2128Y2031D01*
X2128Y2029D01*
X2132Y2029D01*
X2132Y2027D01*
X2134Y2027D01*
X2134Y2025D01*
X2136Y2025D01*
X2136Y2021D01*
X2138Y2021D01*
X2138Y2019D01*
X2140Y2019D01*
X2140Y2017D01*
X2142Y2017D01*
X2142Y2013D01*
X2144Y2013D01*
X2144Y2007D01*
X2164Y2007D01*
X2164Y2013D01*
X2166Y2013D01*
X2166Y2017D01*
X2168Y2017D01*
X2168Y2019D01*
X2170Y2019D01*
X2170Y2023D01*
X2172Y2023D01*
X2172Y2025D01*
X2174Y2025D01*
X2174Y2027D01*
X2176Y2027D01*
X2176Y2029D01*
X2180Y2029D01*
X2180Y2031D01*
X2182Y2031D01*
X2182Y2033D01*
X2186Y2033D01*
X2186Y2035D01*
X2192Y2035D01*
X2192Y2037D01*
X2116Y2037D01*
G37*
D02*
G36*
X2216Y2037D02*
X2216Y2035D01*
X2222Y2035D01*
X2222Y2033D01*
X2226Y2033D01*
X2226Y2031D01*
X2228Y2031D01*
X2228Y2029D01*
X2232Y2029D01*
X2232Y2027D01*
X2234Y2027D01*
X2234Y2025D01*
X2236Y2025D01*
X2236Y2021D01*
X2238Y2021D01*
X2238Y2019D01*
X2240Y2019D01*
X2240Y2015D01*
X2242Y2015D01*
X2242Y2013D01*
X2244Y2013D01*
X2244Y2007D01*
X2264Y2007D01*
X2264Y2013D01*
X2266Y2013D01*
X2266Y2017D01*
X2268Y2017D01*
X2268Y2019D01*
X2270Y2019D01*
X2270Y2021D01*
X2272Y2021D01*
X2272Y2025D01*
X2274Y2025D01*
X2274Y2027D01*
X2276Y2027D01*
X2276Y2029D01*
X2280Y2029D01*
X2280Y2031D01*
X2282Y2031D01*
X2282Y2033D01*
X2286Y2033D01*
X2286Y2035D01*
X2292Y2035D01*
X2292Y2037D01*
X2216Y2037D01*
G37*
D02*
G36*
X2316Y2037D02*
X2316Y2035D01*
X2322Y2035D01*
X2322Y2033D01*
X2326Y2033D01*
X2326Y2031D01*
X2328Y2031D01*
X2328Y2029D01*
X2332Y2029D01*
X2332Y2027D01*
X2334Y2027D01*
X2334Y2025D01*
X2336Y2025D01*
X2336Y2021D01*
X2338Y2021D01*
X2338Y2019D01*
X2340Y2019D01*
X2340Y2017D01*
X2342Y2017D01*
X2342Y2013D01*
X2344Y2013D01*
X2344Y2007D01*
X2364Y2007D01*
X2364Y2013D01*
X2366Y2013D01*
X2366Y2017D01*
X2368Y2017D01*
X2368Y2019D01*
X2370Y2019D01*
X2370Y2021D01*
X2372Y2021D01*
X2372Y2025D01*
X2374Y2025D01*
X2374Y2027D01*
X2376Y2027D01*
X2376Y2029D01*
X2380Y2029D01*
X2380Y2031D01*
X2382Y2031D01*
X2382Y2033D01*
X2386Y2033D01*
X2386Y2035D01*
X2392Y2035D01*
X2392Y2037D01*
X2316Y2037D01*
G37*
D02*
G36*
X52Y1991D02*
X52Y1809D01*
X396Y1809D01*
X396Y1811D01*
X388Y1811D01*
X388Y1813D01*
X384Y1813D01*
X384Y1815D01*
X382Y1815D01*
X382Y1817D01*
X378Y1817D01*
X378Y1819D01*
X376Y1819D01*
X376Y1821D01*
X374Y1821D01*
X374Y1823D01*
X372Y1823D01*
X372Y1827D01*
X370Y1827D01*
X370Y1829D01*
X368Y1829D01*
X368Y1833D01*
X366Y1833D01*
X366Y1839D01*
X364Y1839D01*
X364Y1861D01*
X366Y1861D01*
X366Y1867D01*
X368Y1867D01*
X368Y1871D01*
X370Y1871D01*
X370Y1875D01*
X372Y1875D01*
X372Y1877D01*
X374Y1877D01*
X374Y1879D01*
X376Y1879D01*
X376Y1881D01*
X378Y1881D01*
X378Y1883D01*
X380Y1883D01*
X380Y1885D01*
X384Y1885D01*
X384Y1887D01*
X388Y1887D01*
X388Y1907D01*
X364Y1907D01*
X364Y1991D01*
X52Y1991D01*
G37*
D02*
G36*
X784Y1985D02*
X784Y1979D01*
X782Y1979D01*
X782Y1975D01*
X780Y1975D01*
X780Y1971D01*
X778Y1971D01*
X778Y1969D01*
X776Y1969D01*
X776Y1967D01*
X774Y1967D01*
X774Y1965D01*
X772Y1965D01*
X772Y1963D01*
X770Y1963D01*
X770Y1961D01*
X768Y1961D01*
X768Y1959D01*
X764Y1959D01*
X764Y1957D01*
X760Y1957D01*
X760Y1955D01*
X754Y1955D01*
X754Y1953D01*
X834Y1953D01*
X834Y1955D01*
X828Y1955D01*
X828Y1957D01*
X824Y1957D01*
X824Y1959D01*
X820Y1959D01*
X820Y1961D01*
X818Y1961D01*
X818Y1963D01*
X816Y1963D01*
X816Y1965D01*
X814Y1965D01*
X814Y1967D01*
X812Y1967D01*
X812Y1969D01*
X810Y1969D01*
X810Y1971D01*
X808Y1971D01*
X808Y1975D01*
X806Y1975D01*
X806Y1979D01*
X804Y1979D01*
X804Y1985D01*
X784Y1985D01*
G37*
D02*
G36*
X884Y1985D02*
X884Y1979D01*
X882Y1979D01*
X882Y1975D01*
X880Y1975D01*
X880Y1971D01*
X878Y1971D01*
X878Y1969D01*
X876Y1969D01*
X876Y1967D01*
X874Y1967D01*
X874Y1965D01*
X872Y1965D01*
X872Y1963D01*
X870Y1963D01*
X870Y1961D01*
X868Y1961D01*
X868Y1959D01*
X864Y1959D01*
X864Y1957D01*
X860Y1957D01*
X860Y1955D01*
X854Y1955D01*
X854Y1953D01*
X934Y1953D01*
X934Y1955D01*
X928Y1955D01*
X928Y1957D01*
X924Y1957D01*
X924Y1959D01*
X920Y1959D01*
X920Y1961D01*
X918Y1961D01*
X918Y1963D01*
X916Y1963D01*
X916Y1965D01*
X914Y1965D01*
X914Y1967D01*
X912Y1967D01*
X912Y1969D01*
X910Y1969D01*
X910Y1971D01*
X908Y1971D01*
X908Y1975D01*
X906Y1975D01*
X906Y1979D01*
X904Y1979D01*
X904Y1985D01*
X884Y1985D01*
G37*
D02*
G36*
X984Y1985D02*
X984Y1979D01*
X982Y1979D01*
X982Y1975D01*
X980Y1975D01*
X980Y1971D01*
X978Y1971D01*
X978Y1969D01*
X976Y1969D01*
X976Y1967D01*
X974Y1967D01*
X974Y1965D01*
X972Y1965D01*
X972Y1963D01*
X970Y1963D01*
X970Y1961D01*
X968Y1961D01*
X968Y1959D01*
X964Y1959D01*
X964Y1957D01*
X960Y1957D01*
X960Y1955D01*
X954Y1955D01*
X954Y1953D01*
X1034Y1953D01*
X1034Y1955D01*
X1028Y1955D01*
X1028Y1957D01*
X1024Y1957D01*
X1024Y1959D01*
X1020Y1959D01*
X1020Y1961D01*
X1018Y1961D01*
X1018Y1963D01*
X1016Y1963D01*
X1016Y1965D01*
X1014Y1965D01*
X1014Y1967D01*
X1012Y1967D01*
X1012Y1969D01*
X1010Y1969D01*
X1010Y1971D01*
X1008Y1971D01*
X1008Y1975D01*
X1006Y1975D01*
X1006Y1979D01*
X1004Y1979D01*
X1004Y1985D01*
X984Y1985D01*
G37*
D02*
G36*
X1084Y1985D02*
X1084Y1979D01*
X1082Y1979D01*
X1082Y1975D01*
X1080Y1975D01*
X1080Y1971D01*
X1078Y1971D01*
X1078Y1969D01*
X1076Y1969D01*
X1076Y1967D01*
X1074Y1967D01*
X1074Y1965D01*
X1072Y1965D01*
X1072Y1963D01*
X1070Y1963D01*
X1070Y1961D01*
X1068Y1961D01*
X1068Y1959D01*
X1064Y1959D01*
X1064Y1957D01*
X1060Y1957D01*
X1060Y1955D01*
X1054Y1955D01*
X1054Y1953D01*
X1134Y1953D01*
X1134Y1955D01*
X1128Y1955D01*
X1128Y1957D01*
X1124Y1957D01*
X1124Y1959D01*
X1120Y1959D01*
X1120Y1961D01*
X1118Y1961D01*
X1118Y1963D01*
X1116Y1963D01*
X1116Y1965D01*
X1114Y1965D01*
X1114Y1967D01*
X1112Y1967D01*
X1112Y1969D01*
X1110Y1969D01*
X1110Y1971D01*
X1108Y1971D01*
X1108Y1975D01*
X1106Y1975D01*
X1106Y1979D01*
X1104Y1979D01*
X1104Y1985D01*
X1084Y1985D01*
G37*
D02*
G36*
X1184Y1985D02*
X1184Y1979D01*
X1182Y1979D01*
X1182Y1975D01*
X1180Y1975D01*
X1180Y1971D01*
X1178Y1971D01*
X1178Y1969D01*
X1176Y1969D01*
X1176Y1967D01*
X1174Y1967D01*
X1174Y1965D01*
X1172Y1965D01*
X1172Y1963D01*
X1170Y1963D01*
X1170Y1961D01*
X1168Y1961D01*
X1168Y1959D01*
X1164Y1959D01*
X1164Y1957D01*
X1160Y1957D01*
X1160Y1955D01*
X1154Y1955D01*
X1154Y1953D01*
X1222Y1953D01*
X1222Y1959D01*
X1220Y1959D01*
X1220Y1961D01*
X1218Y1961D01*
X1218Y1963D01*
X1216Y1963D01*
X1216Y1965D01*
X1214Y1965D01*
X1214Y1967D01*
X1212Y1967D01*
X1212Y1969D01*
X1210Y1969D01*
X1210Y1971D01*
X1208Y1971D01*
X1208Y1975D01*
X1206Y1975D01*
X1206Y1979D01*
X1204Y1979D01*
X1204Y1985D01*
X1184Y1985D01*
G37*
D02*
G36*
X1844Y1985D02*
X1844Y1979D01*
X1842Y1979D01*
X1842Y1975D01*
X1840Y1975D01*
X1840Y1971D01*
X1838Y1971D01*
X1838Y1969D01*
X1836Y1969D01*
X1836Y1967D01*
X1834Y1967D01*
X1834Y1965D01*
X1832Y1965D01*
X1832Y1963D01*
X1830Y1963D01*
X1830Y1961D01*
X1828Y1961D01*
X1828Y1959D01*
X1826Y1959D01*
X1826Y1953D01*
X1894Y1953D01*
X1894Y1955D01*
X1888Y1955D01*
X1888Y1957D01*
X1884Y1957D01*
X1884Y1959D01*
X1880Y1959D01*
X1880Y1961D01*
X1878Y1961D01*
X1878Y1963D01*
X1876Y1963D01*
X1876Y1965D01*
X1874Y1965D01*
X1874Y1967D01*
X1872Y1967D01*
X1872Y1969D01*
X1870Y1969D01*
X1870Y1971D01*
X1868Y1971D01*
X1868Y1975D01*
X1866Y1975D01*
X1866Y1979D01*
X1864Y1979D01*
X1864Y1985D01*
X1844Y1985D01*
G37*
D02*
G36*
X1944Y1985D02*
X1944Y1979D01*
X1942Y1979D01*
X1942Y1975D01*
X1940Y1975D01*
X1940Y1971D01*
X1938Y1971D01*
X1938Y1969D01*
X1936Y1969D01*
X1936Y1967D01*
X1934Y1967D01*
X1934Y1965D01*
X1932Y1965D01*
X1932Y1963D01*
X1930Y1963D01*
X1930Y1961D01*
X1928Y1961D01*
X1928Y1959D01*
X1924Y1959D01*
X1924Y1957D01*
X1920Y1957D01*
X1920Y1955D01*
X1914Y1955D01*
X1914Y1953D01*
X1994Y1953D01*
X1994Y1955D01*
X1988Y1955D01*
X1988Y1957D01*
X1984Y1957D01*
X1984Y1959D01*
X1980Y1959D01*
X1980Y1961D01*
X1978Y1961D01*
X1978Y1963D01*
X1976Y1963D01*
X1976Y1965D01*
X1974Y1965D01*
X1974Y1967D01*
X1972Y1967D01*
X1972Y1969D01*
X1970Y1969D01*
X1970Y1971D01*
X1968Y1971D01*
X1968Y1975D01*
X1966Y1975D01*
X1966Y1979D01*
X1964Y1979D01*
X1964Y1985D01*
X1944Y1985D01*
G37*
D02*
G36*
X2044Y1985D02*
X2044Y1979D01*
X2042Y1979D01*
X2042Y1975D01*
X2040Y1975D01*
X2040Y1971D01*
X2038Y1971D01*
X2038Y1969D01*
X2036Y1969D01*
X2036Y1967D01*
X2034Y1967D01*
X2034Y1965D01*
X2032Y1965D01*
X2032Y1963D01*
X2030Y1963D01*
X2030Y1961D01*
X2028Y1961D01*
X2028Y1959D01*
X2024Y1959D01*
X2024Y1957D01*
X2020Y1957D01*
X2020Y1955D01*
X2014Y1955D01*
X2014Y1953D01*
X2082Y1953D01*
X2082Y1959D01*
X2080Y1959D01*
X2080Y1961D01*
X2078Y1961D01*
X2078Y1963D01*
X2076Y1963D01*
X2076Y1965D01*
X2074Y1965D01*
X2074Y1967D01*
X2072Y1967D01*
X2072Y1969D01*
X2070Y1969D01*
X2070Y1971D01*
X2068Y1971D01*
X2068Y1975D01*
X2066Y1975D01*
X2066Y1979D01*
X2064Y1979D01*
X2064Y1985D01*
X2044Y1985D01*
G37*
D02*
G36*
X2144Y1985D02*
X2144Y1979D01*
X2142Y1979D01*
X2142Y1975D01*
X2140Y1975D01*
X2140Y1971D01*
X2138Y1971D01*
X2138Y1969D01*
X2136Y1969D01*
X2136Y1967D01*
X2134Y1967D01*
X2134Y1965D01*
X2132Y1965D01*
X2132Y1963D01*
X2130Y1963D01*
X2130Y1961D01*
X2128Y1961D01*
X2128Y1959D01*
X2126Y1959D01*
X2126Y1953D01*
X2194Y1953D01*
X2194Y1955D01*
X2188Y1955D01*
X2188Y1957D01*
X2184Y1957D01*
X2184Y1959D01*
X2180Y1959D01*
X2180Y1961D01*
X2178Y1961D01*
X2178Y1963D01*
X2176Y1963D01*
X2176Y1965D01*
X2174Y1965D01*
X2174Y1967D01*
X2172Y1967D01*
X2172Y1969D01*
X2170Y1969D01*
X2170Y1971D01*
X2168Y1971D01*
X2168Y1975D01*
X2166Y1975D01*
X2166Y1979D01*
X2164Y1979D01*
X2164Y1985D01*
X2144Y1985D01*
G37*
D02*
G36*
X2244Y1985D02*
X2244Y1979D01*
X2242Y1979D01*
X2242Y1975D01*
X2240Y1975D01*
X2240Y1971D01*
X2238Y1971D01*
X2238Y1969D01*
X2236Y1969D01*
X2236Y1967D01*
X2234Y1967D01*
X2234Y1965D01*
X2232Y1965D01*
X2232Y1963D01*
X2230Y1963D01*
X2230Y1961D01*
X2228Y1961D01*
X2228Y1959D01*
X2224Y1959D01*
X2224Y1957D01*
X2220Y1957D01*
X2220Y1955D01*
X2214Y1955D01*
X2214Y1953D01*
X2294Y1953D01*
X2294Y1955D01*
X2288Y1955D01*
X2288Y1957D01*
X2284Y1957D01*
X2284Y1959D01*
X2280Y1959D01*
X2280Y1961D01*
X2278Y1961D01*
X2278Y1963D01*
X2276Y1963D01*
X2276Y1965D01*
X2274Y1965D01*
X2274Y1967D01*
X2272Y1967D01*
X2272Y1969D01*
X2270Y1969D01*
X2270Y1971D01*
X2268Y1971D01*
X2268Y1975D01*
X2266Y1975D01*
X2266Y1979D01*
X2264Y1979D01*
X2264Y1985D01*
X2244Y1985D01*
G37*
D02*
G36*
X2344Y1985D02*
X2344Y1979D01*
X2342Y1979D01*
X2342Y1975D01*
X2340Y1975D01*
X2340Y1971D01*
X2338Y1971D01*
X2338Y1969D01*
X2336Y1969D01*
X2336Y1967D01*
X2334Y1967D01*
X2334Y1965D01*
X2332Y1965D01*
X2332Y1963D01*
X2330Y1963D01*
X2330Y1961D01*
X2328Y1961D01*
X2328Y1959D01*
X2324Y1959D01*
X2324Y1957D01*
X2320Y1957D01*
X2320Y1955D01*
X2314Y1955D01*
X2314Y1953D01*
X2394Y1953D01*
X2394Y1955D01*
X2388Y1955D01*
X2388Y1957D01*
X2384Y1957D01*
X2384Y1959D01*
X2380Y1959D01*
X2380Y1961D01*
X2378Y1961D01*
X2378Y1963D01*
X2376Y1963D01*
X2376Y1965D01*
X2374Y1965D01*
X2374Y1967D01*
X2372Y1967D01*
X2372Y1969D01*
X2370Y1969D01*
X2370Y1971D01*
X2368Y1971D01*
X2368Y1975D01*
X2366Y1975D01*
X2366Y1979D01*
X2364Y1979D01*
X2364Y1985D01*
X2344Y1985D01*
G37*
D02*
G36*
X2444Y1985D02*
X2444Y1979D01*
X2442Y1979D01*
X2442Y1975D01*
X2440Y1975D01*
X2440Y1971D01*
X2438Y1971D01*
X2438Y1969D01*
X2436Y1969D01*
X2436Y1967D01*
X2434Y1967D01*
X2434Y1965D01*
X2432Y1965D01*
X2432Y1963D01*
X2430Y1963D01*
X2430Y1961D01*
X2428Y1961D01*
X2428Y1959D01*
X2424Y1959D01*
X2424Y1957D01*
X2420Y1957D01*
X2420Y1955D01*
X2414Y1955D01*
X2414Y1953D01*
X2494Y1953D01*
X2494Y1955D01*
X2488Y1955D01*
X2488Y1957D01*
X2484Y1957D01*
X2484Y1959D01*
X2480Y1959D01*
X2480Y1961D01*
X2478Y1961D01*
X2478Y1963D01*
X2476Y1963D01*
X2476Y1965D01*
X2474Y1965D01*
X2474Y1967D01*
X2472Y1967D01*
X2472Y1969D01*
X2470Y1969D01*
X2470Y1971D01*
X2468Y1971D01*
X2468Y1975D01*
X2466Y1975D01*
X2466Y1979D01*
X2464Y1979D01*
X2464Y1985D01*
X2444Y1985D01*
G37*
D02*
G36*
X2544Y1985D02*
X2544Y1979D01*
X2542Y1979D01*
X2542Y1975D01*
X2540Y1975D01*
X2540Y1971D01*
X2538Y1971D01*
X2538Y1969D01*
X2536Y1969D01*
X2536Y1967D01*
X2534Y1967D01*
X2534Y1965D01*
X2532Y1965D01*
X2532Y1963D01*
X2530Y1963D01*
X2530Y1961D01*
X2528Y1961D01*
X2528Y1959D01*
X2524Y1959D01*
X2524Y1957D01*
X2520Y1957D01*
X2520Y1955D01*
X2514Y1955D01*
X2514Y1953D01*
X2564Y1953D01*
X2564Y1985D01*
X2544Y1985D01*
G37*
D02*
G36*
X446Y1953D02*
X446Y1951D01*
X1222Y1951D01*
X1222Y1953D01*
X446Y1953D01*
G37*
D02*
G36*
X446Y1953D02*
X446Y1951D01*
X1222Y1951D01*
X1222Y1953D01*
X446Y1953D01*
G37*
D02*
G36*
X446Y1953D02*
X446Y1951D01*
X1222Y1951D01*
X1222Y1953D01*
X446Y1953D01*
G37*
D02*
G36*
X446Y1953D02*
X446Y1951D01*
X1222Y1951D01*
X1222Y1953D01*
X446Y1953D01*
G37*
D02*
G36*
X446Y1953D02*
X446Y1951D01*
X1222Y1951D01*
X1222Y1953D01*
X446Y1953D01*
G37*
D02*
G36*
X446Y1953D02*
X446Y1951D01*
X1222Y1951D01*
X1222Y1953D01*
X446Y1953D01*
G37*
D02*
G36*
X1826Y1953D02*
X1826Y1951D01*
X2082Y1951D01*
X2082Y1953D01*
X1826Y1953D01*
G37*
D02*
G36*
X1826Y1953D02*
X1826Y1951D01*
X2082Y1951D01*
X2082Y1953D01*
X1826Y1953D01*
G37*
D02*
G36*
X1826Y1953D02*
X1826Y1951D01*
X2082Y1951D01*
X2082Y1953D01*
X1826Y1953D01*
G37*
D02*
G36*
X2126Y1953D02*
X2126Y1951D01*
X2564Y1951D01*
X2564Y1953D01*
X2126Y1953D01*
G37*
D02*
G36*
X2126Y1953D02*
X2126Y1951D01*
X2564Y1951D01*
X2564Y1953D01*
X2126Y1953D01*
G37*
D02*
G36*
X2126Y1953D02*
X2126Y1951D01*
X2564Y1951D01*
X2564Y1953D01*
X2126Y1953D01*
G37*
D02*
G36*
X2126Y1953D02*
X2126Y1951D01*
X2564Y1951D01*
X2564Y1953D01*
X2126Y1953D01*
G37*
D02*
G36*
X2126Y1953D02*
X2126Y1951D01*
X2564Y1951D01*
X2564Y1953D01*
X2126Y1953D01*
G37*
D02*
G36*
X446Y1951D02*
X446Y1907D01*
X422Y1907D01*
X422Y1887D01*
X426Y1887D01*
X426Y1885D01*
X428Y1885D01*
X428Y1883D01*
X432Y1883D01*
X432Y1881D01*
X434Y1881D01*
X434Y1879D01*
X436Y1879D01*
X436Y1875D01*
X438Y1875D01*
X438Y1873D01*
X440Y1873D01*
X440Y1869D01*
X442Y1869D01*
X442Y1865D01*
X444Y1865D01*
X444Y1859D01*
X446Y1859D01*
X446Y1841D01*
X444Y1841D01*
X444Y1835D01*
X442Y1835D01*
X442Y1831D01*
X440Y1831D01*
X440Y1827D01*
X438Y1827D01*
X438Y1825D01*
X436Y1825D01*
X436Y1823D01*
X434Y1823D01*
X434Y1821D01*
X432Y1821D01*
X432Y1819D01*
X430Y1819D01*
X430Y1817D01*
X428Y1817D01*
X428Y1815D01*
X424Y1815D01*
X424Y1813D01*
X420Y1813D01*
X420Y1811D01*
X414Y1811D01*
X414Y1809D01*
X1226Y1809D01*
X1226Y1815D01*
X1224Y1815D01*
X1224Y1935D01*
X1222Y1935D01*
X1222Y1951D01*
X446Y1951D01*
G37*
D02*
G36*
X1826Y1951D02*
X1826Y1299D01*
X2080Y1299D01*
X2080Y1297D01*
X2088Y1297D01*
X2088Y1295D01*
X2092Y1295D01*
X2092Y1293D01*
X2096Y1293D01*
X2096Y1291D01*
X2100Y1291D01*
X2100Y1289D01*
X2102Y1289D01*
X2102Y1287D01*
X2104Y1287D01*
X2104Y1285D01*
X2108Y1285D01*
X2108Y1281D01*
X2110Y1281D01*
X2110Y1279D01*
X2112Y1279D01*
X2112Y1277D01*
X2114Y1277D01*
X2114Y1273D01*
X2116Y1273D01*
X2116Y1269D01*
X2118Y1269D01*
X2118Y1267D01*
X2120Y1267D01*
X2120Y1261D01*
X2122Y1261D01*
X2122Y1249D01*
X2124Y1249D01*
X2124Y1241D01*
X2122Y1241D01*
X2122Y1231D01*
X2120Y1231D01*
X2120Y1225D01*
X2118Y1225D01*
X2118Y1221D01*
X2204Y1221D01*
X2204Y1223D01*
X2196Y1223D01*
X2196Y1225D01*
X2192Y1225D01*
X2192Y1227D01*
X2190Y1227D01*
X2190Y1229D01*
X2188Y1229D01*
X2188Y1231D01*
X2186Y1231D01*
X2186Y1235D01*
X2184Y1235D01*
X2184Y1241D01*
X2182Y1241D01*
X2182Y1323D01*
X2124Y1323D01*
X2124Y1325D01*
X2054Y1325D01*
X2054Y1327D01*
X2046Y1327D01*
X2046Y1329D01*
X2044Y1329D01*
X2044Y1331D01*
X2042Y1331D01*
X2042Y1333D01*
X2040Y1333D01*
X2040Y1335D01*
X2038Y1335D01*
X2038Y1337D01*
X2036Y1337D01*
X2036Y1343D01*
X2034Y1343D01*
X2034Y1753D01*
X2036Y1753D01*
X2036Y1759D01*
X2038Y1759D01*
X2038Y1765D01*
X2040Y1765D01*
X2040Y1771D01*
X2042Y1771D01*
X2042Y1777D01*
X2044Y1777D01*
X2044Y1783D01*
X2046Y1783D01*
X2046Y1789D01*
X2048Y1789D01*
X2048Y1795D01*
X2050Y1795D01*
X2050Y1803D01*
X2052Y1803D01*
X2052Y1809D01*
X2054Y1809D01*
X2054Y1815D01*
X2056Y1815D01*
X2056Y1821D01*
X2058Y1821D01*
X2058Y1827D01*
X2060Y1827D01*
X2060Y1833D01*
X2062Y1833D01*
X2062Y1839D01*
X2064Y1839D01*
X2064Y1845D01*
X2066Y1845D01*
X2066Y1853D01*
X2068Y1853D01*
X2068Y1859D01*
X2070Y1859D01*
X2070Y1865D01*
X2072Y1865D01*
X2072Y1871D01*
X2074Y1871D01*
X2074Y1877D01*
X2076Y1877D01*
X2076Y1883D01*
X2078Y1883D01*
X2078Y1889D01*
X2080Y1889D01*
X2080Y1895D01*
X2082Y1895D01*
X2082Y1951D01*
X1826Y1951D01*
G37*
D02*
G36*
X2126Y1951D02*
X2126Y1889D01*
X2124Y1889D01*
X2124Y1883D01*
X2122Y1883D01*
X2122Y1877D01*
X2120Y1877D01*
X2120Y1871D01*
X2118Y1871D01*
X2118Y1863D01*
X2116Y1863D01*
X2116Y1857D01*
X2114Y1857D01*
X2114Y1851D01*
X2112Y1851D01*
X2112Y1845D01*
X2110Y1845D01*
X2110Y1839D01*
X2108Y1839D01*
X2108Y1833D01*
X2106Y1833D01*
X2106Y1827D01*
X2104Y1827D01*
X2104Y1821D01*
X2102Y1821D01*
X2102Y1813D01*
X2100Y1813D01*
X2100Y1807D01*
X2098Y1807D01*
X2098Y1801D01*
X2096Y1801D01*
X2096Y1795D01*
X2094Y1795D01*
X2094Y1789D01*
X2092Y1789D01*
X2092Y1783D01*
X2090Y1783D01*
X2090Y1777D01*
X2088Y1777D01*
X2088Y1771D01*
X2086Y1771D01*
X2086Y1763D01*
X2084Y1763D01*
X2084Y1757D01*
X2082Y1757D01*
X2082Y1751D01*
X2080Y1751D01*
X2080Y1745D01*
X2078Y1745D01*
X2078Y1695D01*
X2512Y1695D01*
X2512Y1693D01*
X2520Y1693D01*
X2520Y1691D01*
X2526Y1691D01*
X2526Y1689D01*
X2530Y1689D01*
X2530Y1687D01*
X2532Y1687D01*
X2532Y1685D01*
X2534Y1685D01*
X2534Y1683D01*
X2538Y1683D01*
X2538Y1681D01*
X2540Y1681D01*
X2540Y1679D01*
X2542Y1679D01*
X2542Y1675D01*
X2544Y1675D01*
X2544Y1673D01*
X2564Y1673D01*
X2564Y1951D01*
X2126Y1951D01*
G37*
D02*
G36*
X52Y1809D02*
X52Y1807D01*
X1226Y1807D01*
X1226Y1809D01*
X52Y1809D01*
G37*
D02*
G36*
X52Y1809D02*
X52Y1807D01*
X1226Y1807D01*
X1226Y1809D01*
X52Y1809D01*
G37*
D02*
G36*
X52Y1807D02*
X52Y1299D01*
X1434Y1299D01*
X1434Y1297D01*
X1440Y1297D01*
X1440Y1295D01*
X1444Y1295D01*
X1444Y1293D01*
X1448Y1293D01*
X1448Y1291D01*
X1452Y1291D01*
X1452Y1289D01*
X1454Y1289D01*
X1454Y1287D01*
X1458Y1287D01*
X1458Y1285D01*
X1460Y1285D01*
X1460Y1283D01*
X1462Y1283D01*
X1462Y1281D01*
X1464Y1281D01*
X1464Y1277D01*
X1466Y1277D01*
X1466Y1275D01*
X1468Y1275D01*
X1468Y1271D01*
X1470Y1271D01*
X1470Y1267D01*
X1472Y1267D01*
X1472Y1263D01*
X1474Y1263D01*
X1474Y1255D01*
X1476Y1255D01*
X1476Y1237D01*
X1474Y1237D01*
X1474Y1229D01*
X1472Y1229D01*
X1472Y1223D01*
X1470Y1223D01*
X1470Y1221D01*
X1468Y1221D01*
X1468Y1217D01*
X1466Y1217D01*
X1466Y1213D01*
X1464Y1213D01*
X1464Y1211D01*
X1462Y1211D01*
X1462Y1209D01*
X1460Y1209D01*
X1460Y1207D01*
X1458Y1207D01*
X1458Y1205D01*
X1456Y1205D01*
X1456Y1203D01*
X1452Y1203D01*
X1452Y1201D01*
X1450Y1201D01*
X1450Y1199D01*
X1446Y1199D01*
X1446Y1197D01*
X1440Y1197D01*
X1440Y1195D01*
X1434Y1195D01*
X1434Y1193D01*
X1582Y1193D01*
X1582Y1373D01*
X1246Y1373D01*
X1246Y1375D01*
X1242Y1375D01*
X1242Y1377D01*
X1240Y1377D01*
X1240Y1379D01*
X1238Y1379D01*
X1238Y1381D01*
X1236Y1381D01*
X1236Y1383D01*
X1234Y1383D01*
X1234Y1389D01*
X1232Y1389D01*
X1232Y1455D01*
X1230Y1455D01*
X1230Y1575D01*
X1228Y1575D01*
X1228Y1695D01*
X1226Y1695D01*
X1226Y1807D01*
X52Y1807D01*
G37*
D02*
G36*
X2078Y1695D02*
X2078Y1397D01*
X2156Y1397D01*
X2156Y1495D01*
X2168Y1495D01*
X2168Y1515D01*
X2166Y1515D01*
X2166Y1517D01*
X2164Y1517D01*
X2164Y1521D01*
X2162Y1521D01*
X2162Y1525D01*
X2160Y1525D01*
X2160Y1529D01*
X2158Y1529D01*
X2158Y1535D01*
X2156Y1535D01*
X2156Y1557D01*
X2158Y1557D01*
X2158Y1563D01*
X2160Y1563D01*
X2160Y1567D01*
X2162Y1567D01*
X2162Y1571D01*
X2164Y1571D01*
X2164Y1575D01*
X2166Y1575D01*
X2166Y1577D01*
X2168Y1577D01*
X2168Y1579D01*
X2170Y1579D01*
X2170Y1581D01*
X2172Y1581D01*
X2172Y1583D01*
X2174Y1583D01*
X2174Y1585D01*
X2176Y1585D01*
X2176Y1607D01*
X2174Y1607D01*
X2174Y1609D01*
X2172Y1609D01*
X2172Y1611D01*
X2170Y1611D01*
X2170Y1613D01*
X2168Y1613D01*
X2168Y1615D01*
X2166Y1615D01*
X2166Y1617D01*
X2164Y1617D01*
X2164Y1621D01*
X2162Y1621D01*
X2162Y1625D01*
X2160Y1625D01*
X2160Y1629D01*
X2158Y1629D01*
X2158Y1635D01*
X2156Y1635D01*
X2156Y1657D01*
X2158Y1657D01*
X2158Y1663D01*
X2160Y1663D01*
X2160Y1667D01*
X2162Y1667D01*
X2162Y1671D01*
X2164Y1671D01*
X2164Y1675D01*
X2166Y1675D01*
X2166Y1677D01*
X2168Y1677D01*
X2168Y1679D01*
X2170Y1679D01*
X2170Y1681D01*
X2172Y1681D01*
X2172Y1683D01*
X2174Y1683D01*
X2174Y1685D01*
X2176Y1685D01*
X2176Y1687D01*
X2180Y1687D01*
X2180Y1689D01*
X2184Y1689D01*
X2184Y1691D01*
X2188Y1691D01*
X2188Y1693D01*
X2196Y1693D01*
X2196Y1695D01*
X2078Y1695D01*
G37*
D02*
G36*
X2212Y1695D02*
X2212Y1693D01*
X2220Y1693D01*
X2220Y1691D01*
X2226Y1691D01*
X2226Y1689D01*
X2230Y1689D01*
X2230Y1687D01*
X2232Y1687D01*
X2232Y1685D01*
X2234Y1685D01*
X2234Y1683D01*
X2238Y1683D01*
X2238Y1681D01*
X2240Y1681D01*
X2240Y1679D01*
X2242Y1679D01*
X2242Y1675D01*
X2244Y1675D01*
X2244Y1673D01*
X2246Y1673D01*
X2246Y1669D01*
X2248Y1669D01*
X2248Y1667D01*
X2250Y1667D01*
X2250Y1661D01*
X2252Y1661D01*
X2252Y1653D01*
X2254Y1653D01*
X2254Y1639D01*
X2252Y1639D01*
X2252Y1631D01*
X2250Y1631D01*
X2250Y1625D01*
X2248Y1625D01*
X2248Y1621D01*
X2246Y1621D01*
X2246Y1619D01*
X2244Y1619D01*
X2244Y1615D01*
X2242Y1615D01*
X2242Y1613D01*
X2240Y1613D01*
X2240Y1611D01*
X2238Y1611D01*
X2238Y1609D01*
X2236Y1609D01*
X2236Y1607D01*
X2232Y1607D01*
X2232Y1585D01*
X2234Y1585D01*
X2234Y1583D01*
X2238Y1583D01*
X2238Y1581D01*
X2240Y1581D01*
X2240Y1579D01*
X2242Y1579D01*
X2242Y1575D01*
X2244Y1575D01*
X2244Y1573D01*
X2246Y1573D01*
X2246Y1569D01*
X2248Y1569D01*
X2248Y1567D01*
X2250Y1567D01*
X2250Y1561D01*
X2252Y1561D01*
X2252Y1553D01*
X2254Y1553D01*
X2254Y1539D01*
X2252Y1539D01*
X2252Y1531D01*
X2250Y1531D01*
X2250Y1525D01*
X2248Y1525D01*
X2248Y1521D01*
X2246Y1521D01*
X2246Y1519D01*
X2244Y1519D01*
X2244Y1515D01*
X2242Y1515D01*
X2242Y1495D01*
X2254Y1495D01*
X2254Y1397D01*
X2306Y1397D01*
X2306Y1495D01*
X2318Y1495D01*
X2318Y1515D01*
X2316Y1515D01*
X2316Y1517D01*
X2314Y1517D01*
X2314Y1521D01*
X2312Y1521D01*
X2312Y1525D01*
X2310Y1525D01*
X2310Y1529D01*
X2308Y1529D01*
X2308Y1535D01*
X2306Y1535D01*
X2306Y1557D01*
X2308Y1557D01*
X2308Y1563D01*
X2310Y1563D01*
X2310Y1567D01*
X2312Y1567D01*
X2312Y1571D01*
X2314Y1571D01*
X2314Y1575D01*
X2316Y1575D01*
X2316Y1577D01*
X2318Y1577D01*
X2318Y1579D01*
X2320Y1579D01*
X2320Y1581D01*
X2322Y1581D01*
X2322Y1583D01*
X2324Y1583D01*
X2324Y1585D01*
X2326Y1585D01*
X2326Y1607D01*
X2324Y1607D01*
X2324Y1609D01*
X2322Y1609D01*
X2322Y1611D01*
X2320Y1611D01*
X2320Y1613D01*
X2318Y1613D01*
X2318Y1615D01*
X2316Y1615D01*
X2316Y1617D01*
X2314Y1617D01*
X2314Y1621D01*
X2312Y1621D01*
X2312Y1625D01*
X2310Y1625D01*
X2310Y1629D01*
X2308Y1629D01*
X2308Y1635D01*
X2306Y1635D01*
X2306Y1657D01*
X2308Y1657D01*
X2308Y1663D01*
X2310Y1663D01*
X2310Y1667D01*
X2312Y1667D01*
X2312Y1671D01*
X2314Y1671D01*
X2314Y1675D01*
X2316Y1675D01*
X2316Y1677D01*
X2318Y1677D01*
X2318Y1679D01*
X2320Y1679D01*
X2320Y1681D01*
X2322Y1681D01*
X2322Y1683D01*
X2324Y1683D01*
X2324Y1685D01*
X2326Y1685D01*
X2326Y1687D01*
X2330Y1687D01*
X2330Y1689D01*
X2334Y1689D01*
X2334Y1691D01*
X2338Y1691D01*
X2338Y1693D01*
X2346Y1693D01*
X2346Y1695D01*
X2212Y1695D01*
G37*
D02*
G36*
X2362Y1695D02*
X2362Y1693D01*
X2370Y1693D01*
X2370Y1691D01*
X2376Y1691D01*
X2376Y1689D01*
X2380Y1689D01*
X2380Y1687D01*
X2382Y1687D01*
X2382Y1685D01*
X2384Y1685D01*
X2384Y1683D01*
X2388Y1683D01*
X2388Y1681D01*
X2390Y1681D01*
X2390Y1679D01*
X2392Y1679D01*
X2392Y1675D01*
X2394Y1675D01*
X2394Y1673D01*
X2396Y1673D01*
X2396Y1669D01*
X2398Y1669D01*
X2398Y1667D01*
X2400Y1667D01*
X2400Y1661D01*
X2402Y1661D01*
X2402Y1653D01*
X2404Y1653D01*
X2404Y1639D01*
X2402Y1639D01*
X2402Y1631D01*
X2400Y1631D01*
X2400Y1625D01*
X2398Y1625D01*
X2398Y1621D01*
X2396Y1621D01*
X2396Y1619D01*
X2394Y1619D01*
X2394Y1615D01*
X2392Y1615D01*
X2392Y1613D01*
X2390Y1613D01*
X2390Y1611D01*
X2388Y1611D01*
X2388Y1609D01*
X2386Y1609D01*
X2386Y1607D01*
X2382Y1607D01*
X2382Y1585D01*
X2384Y1585D01*
X2384Y1583D01*
X2388Y1583D01*
X2388Y1581D01*
X2390Y1581D01*
X2390Y1579D01*
X2392Y1579D01*
X2392Y1575D01*
X2394Y1575D01*
X2394Y1573D01*
X2396Y1573D01*
X2396Y1569D01*
X2398Y1569D01*
X2398Y1567D01*
X2400Y1567D01*
X2400Y1561D01*
X2402Y1561D01*
X2402Y1553D01*
X2404Y1553D01*
X2404Y1539D01*
X2402Y1539D01*
X2402Y1531D01*
X2400Y1531D01*
X2400Y1525D01*
X2398Y1525D01*
X2398Y1521D01*
X2396Y1521D01*
X2396Y1519D01*
X2394Y1519D01*
X2394Y1515D01*
X2392Y1515D01*
X2392Y1495D01*
X2404Y1495D01*
X2404Y1397D01*
X2456Y1397D01*
X2456Y1495D01*
X2468Y1495D01*
X2468Y1515D01*
X2466Y1515D01*
X2466Y1517D01*
X2464Y1517D01*
X2464Y1521D01*
X2462Y1521D01*
X2462Y1525D01*
X2460Y1525D01*
X2460Y1529D01*
X2458Y1529D01*
X2458Y1535D01*
X2456Y1535D01*
X2456Y1557D01*
X2458Y1557D01*
X2458Y1563D01*
X2460Y1563D01*
X2460Y1567D01*
X2462Y1567D01*
X2462Y1571D01*
X2464Y1571D01*
X2464Y1575D01*
X2466Y1575D01*
X2466Y1577D01*
X2468Y1577D01*
X2468Y1579D01*
X2470Y1579D01*
X2470Y1581D01*
X2472Y1581D01*
X2472Y1583D01*
X2474Y1583D01*
X2474Y1585D01*
X2476Y1585D01*
X2476Y1607D01*
X2474Y1607D01*
X2474Y1609D01*
X2472Y1609D01*
X2472Y1611D01*
X2470Y1611D01*
X2470Y1613D01*
X2468Y1613D01*
X2468Y1615D01*
X2466Y1615D01*
X2466Y1617D01*
X2464Y1617D01*
X2464Y1621D01*
X2462Y1621D01*
X2462Y1625D01*
X2460Y1625D01*
X2460Y1629D01*
X2458Y1629D01*
X2458Y1635D01*
X2456Y1635D01*
X2456Y1657D01*
X2458Y1657D01*
X2458Y1663D01*
X2460Y1663D01*
X2460Y1667D01*
X2462Y1667D01*
X2462Y1671D01*
X2464Y1671D01*
X2464Y1675D01*
X2466Y1675D01*
X2466Y1677D01*
X2468Y1677D01*
X2468Y1679D01*
X2470Y1679D01*
X2470Y1681D01*
X2472Y1681D01*
X2472Y1683D01*
X2474Y1683D01*
X2474Y1685D01*
X2476Y1685D01*
X2476Y1687D01*
X2480Y1687D01*
X2480Y1689D01*
X2484Y1689D01*
X2484Y1691D01*
X2488Y1691D01*
X2488Y1693D01*
X2496Y1693D01*
X2496Y1695D01*
X2362Y1695D01*
G37*
D02*
G36*
X2554Y1543D02*
X2554Y1539D01*
X2552Y1539D01*
X2552Y1531D01*
X2550Y1531D01*
X2550Y1525D01*
X2548Y1525D01*
X2548Y1521D01*
X2546Y1521D01*
X2546Y1519D01*
X2544Y1519D01*
X2544Y1515D01*
X2542Y1515D01*
X2542Y1495D01*
X2554Y1495D01*
X2554Y1397D01*
X2664Y1397D01*
X2664Y1453D01*
X2662Y1453D01*
X2662Y1455D01*
X2660Y1455D01*
X2660Y1457D01*
X2658Y1457D01*
X2658Y1459D01*
X2656Y1459D01*
X2656Y1461D01*
X2654Y1461D01*
X2654Y1463D01*
X2652Y1463D01*
X2652Y1465D01*
X2650Y1465D01*
X2650Y1467D01*
X2648Y1467D01*
X2648Y1469D01*
X2646Y1469D01*
X2646Y1471D01*
X2644Y1471D01*
X2644Y1473D01*
X2642Y1473D01*
X2642Y1475D01*
X2640Y1475D01*
X2640Y1477D01*
X2638Y1477D01*
X2638Y1479D01*
X2636Y1479D01*
X2636Y1481D01*
X2634Y1481D01*
X2634Y1483D01*
X2632Y1483D01*
X2632Y1485D01*
X2630Y1485D01*
X2630Y1487D01*
X2628Y1487D01*
X2628Y1489D01*
X2626Y1489D01*
X2626Y1491D01*
X2624Y1491D01*
X2624Y1493D01*
X2622Y1493D01*
X2622Y1495D01*
X2620Y1495D01*
X2620Y1497D01*
X2618Y1497D01*
X2618Y1499D01*
X2616Y1499D01*
X2616Y1501D01*
X2614Y1501D01*
X2614Y1503D01*
X2612Y1503D01*
X2612Y1505D01*
X2610Y1505D01*
X2610Y1507D01*
X2608Y1507D01*
X2608Y1509D01*
X2606Y1509D01*
X2606Y1511D01*
X2604Y1511D01*
X2604Y1513D01*
X2602Y1513D01*
X2602Y1515D01*
X2600Y1515D01*
X2600Y1517D01*
X2598Y1517D01*
X2598Y1519D01*
X2596Y1519D01*
X2596Y1521D01*
X2594Y1521D01*
X2594Y1523D01*
X2592Y1523D01*
X2592Y1525D01*
X2590Y1525D01*
X2590Y1527D01*
X2588Y1527D01*
X2588Y1529D01*
X2586Y1529D01*
X2586Y1531D01*
X2584Y1531D01*
X2584Y1533D01*
X2582Y1533D01*
X2582Y1535D01*
X2580Y1535D01*
X2580Y1537D01*
X2578Y1537D01*
X2578Y1539D01*
X2576Y1539D01*
X2576Y1541D01*
X2574Y1541D01*
X2574Y1543D01*
X2554Y1543D01*
G37*
D02*
G36*
X2078Y1397D02*
X2078Y1395D01*
X2664Y1395D01*
X2664Y1397D01*
X2078Y1397D01*
G37*
D02*
G36*
X2078Y1397D02*
X2078Y1395D01*
X2664Y1395D01*
X2664Y1397D01*
X2078Y1397D01*
G37*
D02*
G36*
X2078Y1397D02*
X2078Y1395D01*
X2664Y1395D01*
X2664Y1397D01*
X2078Y1397D01*
G37*
D02*
G36*
X2078Y1397D02*
X2078Y1395D01*
X2664Y1395D01*
X2664Y1397D01*
X2078Y1397D01*
G37*
D02*
G36*
X2078Y1395D02*
X2078Y1369D01*
X2124Y1369D01*
X2124Y1367D01*
X2204Y1367D01*
X2204Y1365D01*
X2214Y1365D01*
X2214Y1363D01*
X2218Y1363D01*
X2218Y1361D01*
X2220Y1361D01*
X2220Y1359D01*
X2222Y1359D01*
X2222Y1357D01*
X2224Y1357D01*
X2224Y1353D01*
X2226Y1353D01*
X2226Y1295D01*
X2554Y1295D01*
X2554Y1197D01*
X2664Y1197D01*
X2664Y1395D01*
X2078Y1395D01*
G37*
D02*
G36*
X52Y1299D02*
X52Y1243D01*
X216Y1243D01*
X216Y1241D01*
X222Y1241D01*
X222Y1239D01*
X226Y1239D01*
X226Y1237D01*
X230Y1237D01*
X230Y1235D01*
X232Y1235D01*
X232Y1233D01*
X236Y1233D01*
X236Y1231D01*
X238Y1231D01*
X238Y1229D01*
X240Y1229D01*
X240Y1225D01*
X242Y1225D01*
X242Y1223D01*
X244Y1223D01*
X244Y1221D01*
X246Y1221D01*
X246Y1217D01*
X248Y1217D01*
X248Y1213D01*
X250Y1213D01*
X250Y1205D01*
X252Y1205D01*
X252Y1193D01*
X1410Y1193D01*
X1410Y1195D01*
X1404Y1195D01*
X1404Y1197D01*
X1400Y1197D01*
X1400Y1199D01*
X1396Y1199D01*
X1396Y1201D01*
X1392Y1201D01*
X1392Y1203D01*
X1390Y1203D01*
X1390Y1205D01*
X1388Y1205D01*
X1388Y1207D01*
X1386Y1207D01*
X1386Y1209D01*
X1384Y1209D01*
X1384Y1211D01*
X1382Y1211D01*
X1382Y1213D01*
X1380Y1213D01*
X1380Y1215D01*
X1378Y1215D01*
X1378Y1219D01*
X1376Y1219D01*
X1376Y1223D01*
X1374Y1223D01*
X1374Y1227D01*
X1372Y1227D01*
X1372Y1233D01*
X1370Y1233D01*
X1370Y1259D01*
X1372Y1259D01*
X1372Y1265D01*
X1374Y1265D01*
X1374Y1269D01*
X1376Y1269D01*
X1376Y1273D01*
X1378Y1273D01*
X1378Y1277D01*
X1380Y1277D01*
X1380Y1279D01*
X1382Y1279D01*
X1382Y1281D01*
X1384Y1281D01*
X1384Y1283D01*
X1386Y1283D01*
X1386Y1285D01*
X1388Y1285D01*
X1388Y1287D01*
X1390Y1287D01*
X1390Y1289D01*
X1394Y1289D01*
X1394Y1291D01*
X1396Y1291D01*
X1396Y1293D01*
X1400Y1293D01*
X1400Y1295D01*
X1406Y1295D01*
X1406Y1297D01*
X1412Y1297D01*
X1412Y1299D01*
X52Y1299D01*
G37*
D02*
G36*
X1826Y1299D02*
X1826Y1193D01*
X2058Y1193D01*
X2058Y1195D01*
X2052Y1195D01*
X2052Y1197D01*
X2048Y1197D01*
X2048Y1199D01*
X2044Y1199D01*
X2044Y1201D01*
X2040Y1201D01*
X2040Y1203D01*
X2038Y1203D01*
X2038Y1205D01*
X2034Y1205D01*
X2034Y1207D01*
X2032Y1207D01*
X2032Y1209D01*
X2030Y1209D01*
X2030Y1213D01*
X2028Y1213D01*
X2028Y1215D01*
X2026Y1215D01*
X2026Y1217D01*
X2024Y1217D01*
X2024Y1221D01*
X2022Y1221D01*
X2022Y1225D01*
X2020Y1225D01*
X2020Y1231D01*
X2018Y1231D01*
X2018Y1239D01*
X2016Y1239D01*
X2016Y1251D01*
X2018Y1251D01*
X2018Y1261D01*
X2020Y1261D01*
X2020Y1267D01*
X2022Y1267D01*
X2022Y1271D01*
X2024Y1271D01*
X2024Y1275D01*
X2026Y1275D01*
X2026Y1277D01*
X2028Y1277D01*
X2028Y1279D01*
X2030Y1279D01*
X2030Y1283D01*
X2032Y1283D01*
X2032Y1285D01*
X2036Y1285D01*
X2036Y1287D01*
X2038Y1287D01*
X2038Y1289D01*
X2040Y1289D01*
X2040Y1291D01*
X2044Y1291D01*
X2044Y1293D01*
X2048Y1293D01*
X2048Y1295D01*
X2052Y1295D01*
X2052Y1297D01*
X2060Y1297D01*
X2060Y1299D01*
X1826Y1299D01*
G37*
D02*
G36*
X2226Y1295D02*
X2226Y1267D01*
X2262Y1267D01*
X2262Y1271D01*
X2264Y1271D01*
X2264Y1275D01*
X2266Y1275D01*
X2266Y1277D01*
X2268Y1277D01*
X2268Y1279D01*
X2270Y1279D01*
X2270Y1281D01*
X2272Y1281D01*
X2272Y1283D01*
X2274Y1283D01*
X2274Y1285D01*
X2276Y1285D01*
X2276Y1287D01*
X2280Y1287D01*
X2280Y1289D01*
X2284Y1289D01*
X2284Y1291D01*
X2288Y1291D01*
X2288Y1293D01*
X2296Y1293D01*
X2296Y1295D01*
X2226Y1295D01*
G37*
D02*
G36*
X2312Y1295D02*
X2312Y1293D01*
X2320Y1293D01*
X2320Y1291D01*
X2326Y1291D01*
X2326Y1289D01*
X2330Y1289D01*
X2330Y1287D01*
X2332Y1287D01*
X2332Y1285D01*
X2334Y1285D01*
X2334Y1283D01*
X2338Y1283D01*
X2338Y1281D01*
X2340Y1281D01*
X2340Y1279D01*
X2342Y1279D01*
X2342Y1275D01*
X2344Y1275D01*
X2344Y1273D01*
X2364Y1273D01*
X2364Y1275D01*
X2366Y1275D01*
X2366Y1277D01*
X2368Y1277D01*
X2368Y1279D01*
X2370Y1279D01*
X2370Y1281D01*
X2372Y1281D01*
X2372Y1283D01*
X2374Y1283D01*
X2374Y1285D01*
X2376Y1285D01*
X2376Y1287D01*
X2380Y1287D01*
X2380Y1289D01*
X2384Y1289D01*
X2384Y1291D01*
X2388Y1291D01*
X2388Y1293D01*
X2396Y1293D01*
X2396Y1295D01*
X2312Y1295D01*
G37*
D02*
G36*
X2412Y1295D02*
X2412Y1293D01*
X2420Y1293D01*
X2420Y1291D01*
X2426Y1291D01*
X2426Y1289D01*
X2430Y1289D01*
X2430Y1287D01*
X2432Y1287D01*
X2432Y1285D01*
X2434Y1285D01*
X2434Y1283D01*
X2456Y1283D01*
X2456Y1295D01*
X2412Y1295D01*
G37*
D02*
G36*
X52Y1243D02*
X52Y1149D01*
X194Y1149D01*
X194Y1151D01*
X186Y1151D01*
X186Y1153D01*
X182Y1153D01*
X182Y1155D01*
X180Y1155D01*
X180Y1157D01*
X176Y1157D01*
X176Y1159D01*
X174Y1159D01*
X174Y1161D01*
X172Y1161D01*
X172Y1163D01*
X170Y1163D01*
X170Y1165D01*
X168Y1165D01*
X168Y1167D01*
X166Y1167D01*
X166Y1169D01*
X164Y1169D01*
X164Y1173D01*
X162Y1173D01*
X162Y1177D01*
X160Y1177D01*
X160Y1183D01*
X158Y1183D01*
X158Y1209D01*
X160Y1209D01*
X160Y1215D01*
X162Y1215D01*
X162Y1219D01*
X164Y1219D01*
X164Y1221D01*
X166Y1221D01*
X166Y1225D01*
X168Y1225D01*
X168Y1227D01*
X170Y1227D01*
X170Y1229D01*
X172Y1229D01*
X172Y1231D01*
X174Y1231D01*
X174Y1233D01*
X176Y1233D01*
X176Y1235D01*
X180Y1235D01*
X180Y1237D01*
X184Y1237D01*
X184Y1239D01*
X188Y1239D01*
X188Y1241D01*
X194Y1241D01*
X194Y1243D01*
X52Y1243D01*
G37*
D02*
G36*
X2206Y1223D02*
X2206Y1221D01*
X2262Y1221D01*
X2262Y1223D01*
X2206Y1223D01*
G37*
D02*
G36*
X2116Y1221D02*
X2116Y1219D01*
X2264Y1219D01*
X2264Y1221D01*
X2116Y1221D01*
G37*
D02*
G36*
X2116Y1221D02*
X2116Y1219D01*
X2264Y1219D01*
X2264Y1221D01*
X2116Y1221D01*
G37*
D02*
G36*
X2116Y1219D02*
X2116Y1217D01*
X2114Y1217D01*
X2114Y1215D01*
X2112Y1215D01*
X2112Y1213D01*
X2110Y1213D01*
X2110Y1209D01*
X2108Y1209D01*
X2108Y1207D01*
X2104Y1207D01*
X2104Y1205D01*
X2102Y1205D01*
X2102Y1203D01*
X2100Y1203D01*
X2100Y1201D01*
X2096Y1201D01*
X2096Y1199D01*
X2092Y1199D01*
X2092Y1197D01*
X2294Y1197D01*
X2294Y1199D01*
X2288Y1199D01*
X2288Y1201D01*
X2284Y1201D01*
X2284Y1203D01*
X2280Y1203D01*
X2280Y1205D01*
X2276Y1205D01*
X2276Y1207D01*
X2274Y1207D01*
X2274Y1209D01*
X2272Y1209D01*
X2272Y1211D01*
X2270Y1211D01*
X2270Y1213D01*
X2268Y1213D01*
X2268Y1215D01*
X2266Y1215D01*
X2266Y1217D01*
X2264Y1217D01*
X2264Y1219D01*
X2116Y1219D01*
G37*
D02*
G36*
X2344Y1219D02*
X2344Y1215D01*
X2342Y1215D01*
X2342Y1213D01*
X2340Y1213D01*
X2340Y1211D01*
X2338Y1211D01*
X2338Y1209D01*
X2336Y1209D01*
X2336Y1207D01*
X2332Y1207D01*
X2332Y1205D01*
X2330Y1205D01*
X2330Y1203D01*
X2326Y1203D01*
X2326Y1201D01*
X2322Y1201D01*
X2322Y1199D01*
X2314Y1199D01*
X2314Y1197D01*
X2394Y1197D01*
X2394Y1199D01*
X2388Y1199D01*
X2388Y1201D01*
X2384Y1201D01*
X2384Y1203D01*
X2380Y1203D01*
X2380Y1205D01*
X2376Y1205D01*
X2376Y1207D01*
X2374Y1207D01*
X2374Y1209D01*
X2372Y1209D01*
X2372Y1211D01*
X2370Y1211D01*
X2370Y1213D01*
X2368Y1213D01*
X2368Y1215D01*
X2366Y1215D01*
X2366Y1217D01*
X2364Y1217D01*
X2364Y1219D01*
X2344Y1219D01*
G37*
D02*
G36*
X2436Y1209D02*
X2436Y1207D01*
X2432Y1207D01*
X2432Y1205D01*
X2430Y1205D01*
X2430Y1203D01*
X2426Y1203D01*
X2426Y1201D01*
X2422Y1201D01*
X2422Y1199D01*
X2414Y1199D01*
X2414Y1197D01*
X2456Y1197D01*
X2456Y1209D01*
X2436Y1209D01*
G37*
D02*
G36*
X2088Y1197D02*
X2088Y1195D01*
X2664Y1195D01*
X2664Y1197D01*
X2088Y1197D01*
G37*
D02*
G36*
X2088Y1197D02*
X2088Y1195D01*
X2664Y1195D01*
X2664Y1197D01*
X2088Y1197D01*
G37*
D02*
G36*
X2088Y1197D02*
X2088Y1195D01*
X2664Y1195D01*
X2664Y1197D01*
X2088Y1197D01*
G37*
D02*
G36*
X2088Y1197D02*
X2088Y1195D01*
X2664Y1195D01*
X2664Y1197D01*
X2088Y1197D01*
G37*
D02*
G36*
X2082Y1195D02*
X2082Y1193D01*
X2664Y1193D01*
X2664Y1195D01*
X2082Y1195D01*
G37*
D02*
G36*
X252Y1193D02*
X252Y1191D01*
X1582Y1191D01*
X1582Y1193D01*
X252Y1193D01*
G37*
D02*
G36*
X252Y1193D02*
X252Y1191D01*
X1582Y1191D01*
X1582Y1193D01*
X252Y1193D01*
G37*
D02*
G36*
X1826Y1193D02*
X1826Y1191D01*
X2664Y1191D01*
X2664Y1193D01*
X1826Y1193D01*
G37*
D02*
G36*
X1826Y1193D02*
X1826Y1191D01*
X2664Y1191D01*
X2664Y1193D01*
X1826Y1193D01*
G37*
D02*
G36*
X252Y1191D02*
X252Y1187D01*
X250Y1187D01*
X250Y1179D01*
X248Y1179D01*
X248Y1175D01*
X246Y1175D01*
X246Y1171D01*
X244Y1171D01*
X244Y1169D01*
X242Y1169D01*
X242Y1165D01*
X240Y1165D01*
X240Y1163D01*
X238Y1163D01*
X238Y1161D01*
X236Y1161D01*
X236Y1159D01*
X232Y1159D01*
X232Y1157D01*
X230Y1157D01*
X230Y1155D01*
X226Y1155D01*
X226Y1153D01*
X222Y1153D01*
X222Y1151D01*
X216Y1151D01*
X216Y1149D01*
X1582Y1149D01*
X1582Y1191D01*
X252Y1191D01*
G37*
D02*
G36*
X1826Y1191D02*
X1826Y1145D01*
X2554Y1145D01*
X2554Y1047D01*
X2664Y1047D01*
X2664Y1191D01*
X1826Y1191D01*
G37*
D02*
G36*
X52Y1149D02*
X52Y1147D01*
X1582Y1147D01*
X1582Y1149D01*
X52Y1149D01*
G37*
D02*
G36*
X52Y1149D02*
X52Y1147D01*
X1582Y1147D01*
X1582Y1149D01*
X52Y1149D01*
G37*
D02*
G36*
X52Y1147D02*
X52Y1145D01*
X1212Y1145D01*
X1212Y1143D01*
X1220Y1143D01*
X1220Y1141D01*
X1226Y1141D01*
X1226Y1139D01*
X1230Y1139D01*
X1230Y1137D01*
X1232Y1137D01*
X1232Y1135D01*
X1234Y1135D01*
X1234Y1133D01*
X1238Y1133D01*
X1238Y1131D01*
X1240Y1131D01*
X1240Y1129D01*
X1242Y1129D01*
X1242Y1125D01*
X1244Y1125D01*
X1244Y1123D01*
X1246Y1123D01*
X1246Y1119D01*
X1248Y1119D01*
X1248Y1117D01*
X1250Y1117D01*
X1250Y1111D01*
X1252Y1111D01*
X1252Y1103D01*
X1254Y1103D01*
X1254Y1089D01*
X1252Y1089D01*
X1252Y1081D01*
X1250Y1081D01*
X1250Y1075D01*
X1248Y1075D01*
X1248Y1071D01*
X1246Y1071D01*
X1246Y1069D01*
X1244Y1069D01*
X1244Y1065D01*
X1242Y1065D01*
X1242Y1063D01*
X1240Y1063D01*
X1240Y1061D01*
X1238Y1061D01*
X1238Y1059D01*
X1236Y1059D01*
X1236Y1057D01*
X1232Y1057D01*
X1232Y1035D01*
X1234Y1035D01*
X1234Y1033D01*
X1238Y1033D01*
X1238Y1031D01*
X1240Y1031D01*
X1240Y1029D01*
X1242Y1029D01*
X1242Y1025D01*
X1244Y1025D01*
X1244Y1023D01*
X1246Y1023D01*
X1246Y1019D01*
X1248Y1019D01*
X1248Y1017D01*
X1250Y1017D01*
X1250Y1011D01*
X1252Y1011D01*
X1252Y1003D01*
X1254Y1003D01*
X1254Y989D01*
X1252Y989D01*
X1252Y981D01*
X1250Y981D01*
X1250Y975D01*
X1248Y975D01*
X1248Y971D01*
X1246Y971D01*
X1246Y969D01*
X1244Y969D01*
X1244Y965D01*
X1242Y965D01*
X1242Y945D01*
X1254Y945D01*
X1254Y921D01*
X1604Y921D01*
X1604Y923D01*
X1596Y923D01*
X1596Y925D01*
X1592Y925D01*
X1592Y927D01*
X1590Y927D01*
X1590Y929D01*
X1588Y929D01*
X1588Y931D01*
X1586Y931D01*
X1586Y935D01*
X1584Y935D01*
X1584Y941D01*
X1582Y941D01*
X1582Y1147D01*
X52Y1147D01*
G37*
D02*
G36*
X52Y1145D02*
X52Y847D01*
X406Y847D01*
X406Y945D01*
X418Y945D01*
X418Y965D01*
X416Y965D01*
X416Y967D01*
X414Y967D01*
X414Y971D01*
X412Y971D01*
X412Y975D01*
X410Y975D01*
X410Y979D01*
X408Y979D01*
X408Y985D01*
X406Y985D01*
X406Y1007D01*
X408Y1007D01*
X408Y1013D01*
X410Y1013D01*
X410Y1017D01*
X412Y1017D01*
X412Y1021D01*
X414Y1021D01*
X414Y1025D01*
X416Y1025D01*
X416Y1027D01*
X418Y1027D01*
X418Y1029D01*
X420Y1029D01*
X420Y1031D01*
X422Y1031D01*
X422Y1033D01*
X424Y1033D01*
X424Y1035D01*
X426Y1035D01*
X426Y1057D01*
X424Y1057D01*
X424Y1059D01*
X422Y1059D01*
X422Y1061D01*
X420Y1061D01*
X420Y1063D01*
X418Y1063D01*
X418Y1065D01*
X416Y1065D01*
X416Y1067D01*
X414Y1067D01*
X414Y1071D01*
X412Y1071D01*
X412Y1075D01*
X410Y1075D01*
X410Y1079D01*
X408Y1079D01*
X408Y1085D01*
X406Y1085D01*
X406Y1107D01*
X408Y1107D01*
X408Y1113D01*
X410Y1113D01*
X410Y1117D01*
X412Y1117D01*
X412Y1121D01*
X414Y1121D01*
X414Y1125D01*
X416Y1125D01*
X416Y1127D01*
X418Y1127D01*
X418Y1129D01*
X420Y1129D01*
X420Y1131D01*
X422Y1131D01*
X422Y1133D01*
X424Y1133D01*
X424Y1135D01*
X426Y1135D01*
X426Y1137D01*
X430Y1137D01*
X430Y1139D01*
X434Y1139D01*
X434Y1141D01*
X438Y1141D01*
X438Y1143D01*
X446Y1143D01*
X446Y1145D01*
X52Y1145D01*
G37*
D02*
G36*
X462Y1145D02*
X462Y1143D01*
X470Y1143D01*
X470Y1141D01*
X476Y1141D01*
X476Y1139D01*
X480Y1139D01*
X480Y1137D01*
X482Y1137D01*
X482Y1135D01*
X484Y1135D01*
X484Y1133D01*
X488Y1133D01*
X488Y1131D01*
X490Y1131D01*
X490Y1129D01*
X492Y1129D01*
X492Y1125D01*
X494Y1125D01*
X494Y1123D01*
X496Y1123D01*
X496Y1119D01*
X498Y1119D01*
X498Y1117D01*
X500Y1117D01*
X500Y1111D01*
X502Y1111D01*
X502Y1103D01*
X504Y1103D01*
X504Y1089D01*
X502Y1089D01*
X502Y1081D01*
X500Y1081D01*
X500Y1075D01*
X498Y1075D01*
X498Y1071D01*
X496Y1071D01*
X496Y1069D01*
X494Y1069D01*
X494Y1065D01*
X492Y1065D01*
X492Y1063D01*
X490Y1063D01*
X490Y1061D01*
X488Y1061D01*
X488Y1059D01*
X486Y1059D01*
X486Y1057D01*
X482Y1057D01*
X482Y1035D01*
X484Y1035D01*
X484Y1033D01*
X488Y1033D01*
X488Y1031D01*
X490Y1031D01*
X490Y1029D01*
X492Y1029D01*
X492Y1025D01*
X494Y1025D01*
X494Y1023D01*
X496Y1023D01*
X496Y1019D01*
X498Y1019D01*
X498Y1017D01*
X500Y1017D01*
X500Y1011D01*
X502Y1011D01*
X502Y1003D01*
X504Y1003D01*
X504Y989D01*
X502Y989D01*
X502Y981D01*
X500Y981D01*
X500Y975D01*
X498Y975D01*
X498Y971D01*
X496Y971D01*
X496Y969D01*
X494Y969D01*
X494Y965D01*
X492Y965D01*
X492Y945D01*
X504Y945D01*
X504Y847D01*
X556Y847D01*
X556Y945D01*
X568Y945D01*
X568Y965D01*
X566Y965D01*
X566Y967D01*
X564Y967D01*
X564Y971D01*
X562Y971D01*
X562Y975D01*
X560Y975D01*
X560Y979D01*
X558Y979D01*
X558Y985D01*
X556Y985D01*
X556Y1007D01*
X558Y1007D01*
X558Y1013D01*
X560Y1013D01*
X560Y1017D01*
X562Y1017D01*
X562Y1021D01*
X564Y1021D01*
X564Y1025D01*
X566Y1025D01*
X566Y1027D01*
X568Y1027D01*
X568Y1029D01*
X570Y1029D01*
X570Y1031D01*
X572Y1031D01*
X572Y1033D01*
X574Y1033D01*
X574Y1035D01*
X576Y1035D01*
X576Y1057D01*
X574Y1057D01*
X574Y1059D01*
X572Y1059D01*
X572Y1061D01*
X570Y1061D01*
X570Y1063D01*
X568Y1063D01*
X568Y1065D01*
X566Y1065D01*
X566Y1067D01*
X564Y1067D01*
X564Y1071D01*
X562Y1071D01*
X562Y1075D01*
X560Y1075D01*
X560Y1079D01*
X558Y1079D01*
X558Y1085D01*
X556Y1085D01*
X556Y1107D01*
X558Y1107D01*
X558Y1113D01*
X560Y1113D01*
X560Y1117D01*
X562Y1117D01*
X562Y1121D01*
X564Y1121D01*
X564Y1125D01*
X566Y1125D01*
X566Y1127D01*
X568Y1127D01*
X568Y1129D01*
X570Y1129D01*
X570Y1131D01*
X572Y1131D01*
X572Y1133D01*
X574Y1133D01*
X574Y1135D01*
X576Y1135D01*
X576Y1137D01*
X580Y1137D01*
X580Y1139D01*
X584Y1139D01*
X584Y1141D01*
X588Y1141D01*
X588Y1143D01*
X596Y1143D01*
X596Y1145D01*
X462Y1145D01*
G37*
D02*
G36*
X612Y1145D02*
X612Y1143D01*
X620Y1143D01*
X620Y1141D01*
X626Y1141D01*
X626Y1139D01*
X630Y1139D01*
X630Y1137D01*
X632Y1137D01*
X632Y1135D01*
X634Y1135D01*
X634Y1133D01*
X638Y1133D01*
X638Y1131D01*
X640Y1131D01*
X640Y1129D01*
X642Y1129D01*
X642Y1125D01*
X644Y1125D01*
X644Y1123D01*
X646Y1123D01*
X646Y1119D01*
X648Y1119D01*
X648Y1117D01*
X650Y1117D01*
X650Y1111D01*
X652Y1111D01*
X652Y1103D01*
X654Y1103D01*
X654Y1089D01*
X652Y1089D01*
X652Y1081D01*
X650Y1081D01*
X650Y1075D01*
X648Y1075D01*
X648Y1071D01*
X646Y1071D01*
X646Y1069D01*
X644Y1069D01*
X644Y1065D01*
X642Y1065D01*
X642Y1063D01*
X640Y1063D01*
X640Y1061D01*
X638Y1061D01*
X638Y1059D01*
X636Y1059D01*
X636Y1057D01*
X632Y1057D01*
X632Y1035D01*
X634Y1035D01*
X634Y1033D01*
X638Y1033D01*
X638Y1031D01*
X640Y1031D01*
X640Y1029D01*
X642Y1029D01*
X642Y1025D01*
X644Y1025D01*
X644Y1023D01*
X646Y1023D01*
X646Y1019D01*
X648Y1019D01*
X648Y1017D01*
X650Y1017D01*
X650Y1011D01*
X652Y1011D01*
X652Y1003D01*
X654Y1003D01*
X654Y989D01*
X652Y989D01*
X652Y981D01*
X650Y981D01*
X650Y975D01*
X648Y975D01*
X648Y971D01*
X646Y971D01*
X646Y969D01*
X644Y969D01*
X644Y965D01*
X642Y965D01*
X642Y945D01*
X654Y945D01*
X654Y847D01*
X706Y847D01*
X706Y945D01*
X718Y945D01*
X718Y965D01*
X716Y965D01*
X716Y967D01*
X714Y967D01*
X714Y971D01*
X712Y971D01*
X712Y975D01*
X710Y975D01*
X710Y979D01*
X708Y979D01*
X708Y985D01*
X706Y985D01*
X706Y1007D01*
X708Y1007D01*
X708Y1013D01*
X710Y1013D01*
X710Y1017D01*
X712Y1017D01*
X712Y1021D01*
X714Y1021D01*
X714Y1025D01*
X716Y1025D01*
X716Y1027D01*
X718Y1027D01*
X718Y1029D01*
X720Y1029D01*
X720Y1031D01*
X722Y1031D01*
X722Y1033D01*
X724Y1033D01*
X724Y1035D01*
X726Y1035D01*
X726Y1057D01*
X724Y1057D01*
X724Y1059D01*
X722Y1059D01*
X722Y1061D01*
X720Y1061D01*
X720Y1063D01*
X718Y1063D01*
X718Y1065D01*
X716Y1065D01*
X716Y1067D01*
X714Y1067D01*
X714Y1071D01*
X712Y1071D01*
X712Y1075D01*
X710Y1075D01*
X710Y1079D01*
X708Y1079D01*
X708Y1085D01*
X706Y1085D01*
X706Y1107D01*
X708Y1107D01*
X708Y1113D01*
X710Y1113D01*
X710Y1117D01*
X712Y1117D01*
X712Y1121D01*
X714Y1121D01*
X714Y1125D01*
X716Y1125D01*
X716Y1127D01*
X718Y1127D01*
X718Y1129D01*
X720Y1129D01*
X720Y1131D01*
X722Y1131D01*
X722Y1133D01*
X724Y1133D01*
X724Y1135D01*
X726Y1135D01*
X726Y1137D01*
X730Y1137D01*
X730Y1139D01*
X734Y1139D01*
X734Y1141D01*
X738Y1141D01*
X738Y1143D01*
X746Y1143D01*
X746Y1145D01*
X612Y1145D01*
G37*
D02*
G36*
X762Y1145D02*
X762Y1143D01*
X770Y1143D01*
X770Y1141D01*
X776Y1141D01*
X776Y1139D01*
X780Y1139D01*
X780Y1137D01*
X782Y1137D01*
X782Y1135D01*
X784Y1135D01*
X784Y1133D01*
X788Y1133D01*
X788Y1131D01*
X790Y1131D01*
X790Y1129D01*
X792Y1129D01*
X792Y1125D01*
X794Y1125D01*
X794Y1123D01*
X796Y1123D01*
X796Y1119D01*
X798Y1119D01*
X798Y1117D01*
X800Y1117D01*
X800Y1111D01*
X802Y1111D01*
X802Y1103D01*
X804Y1103D01*
X804Y1089D01*
X802Y1089D01*
X802Y1081D01*
X800Y1081D01*
X800Y1075D01*
X798Y1075D01*
X798Y1071D01*
X796Y1071D01*
X796Y1069D01*
X794Y1069D01*
X794Y1065D01*
X792Y1065D01*
X792Y1063D01*
X790Y1063D01*
X790Y1061D01*
X788Y1061D01*
X788Y1059D01*
X786Y1059D01*
X786Y1057D01*
X782Y1057D01*
X782Y1035D01*
X784Y1035D01*
X784Y1033D01*
X788Y1033D01*
X788Y1031D01*
X790Y1031D01*
X790Y1029D01*
X792Y1029D01*
X792Y1025D01*
X794Y1025D01*
X794Y1023D01*
X796Y1023D01*
X796Y1019D01*
X798Y1019D01*
X798Y1017D01*
X800Y1017D01*
X800Y1011D01*
X802Y1011D01*
X802Y1003D01*
X804Y1003D01*
X804Y989D01*
X802Y989D01*
X802Y981D01*
X800Y981D01*
X800Y975D01*
X798Y975D01*
X798Y971D01*
X796Y971D01*
X796Y969D01*
X794Y969D01*
X794Y965D01*
X792Y965D01*
X792Y945D01*
X804Y945D01*
X804Y847D01*
X856Y847D01*
X856Y945D01*
X868Y945D01*
X868Y965D01*
X866Y965D01*
X866Y967D01*
X864Y967D01*
X864Y971D01*
X862Y971D01*
X862Y975D01*
X860Y975D01*
X860Y979D01*
X858Y979D01*
X858Y985D01*
X856Y985D01*
X856Y1007D01*
X858Y1007D01*
X858Y1013D01*
X860Y1013D01*
X860Y1017D01*
X862Y1017D01*
X862Y1021D01*
X864Y1021D01*
X864Y1025D01*
X866Y1025D01*
X866Y1027D01*
X868Y1027D01*
X868Y1029D01*
X870Y1029D01*
X870Y1031D01*
X872Y1031D01*
X872Y1033D01*
X874Y1033D01*
X874Y1035D01*
X876Y1035D01*
X876Y1057D01*
X874Y1057D01*
X874Y1059D01*
X872Y1059D01*
X872Y1061D01*
X870Y1061D01*
X870Y1063D01*
X868Y1063D01*
X868Y1065D01*
X866Y1065D01*
X866Y1067D01*
X864Y1067D01*
X864Y1071D01*
X862Y1071D01*
X862Y1075D01*
X860Y1075D01*
X860Y1079D01*
X858Y1079D01*
X858Y1085D01*
X856Y1085D01*
X856Y1107D01*
X858Y1107D01*
X858Y1113D01*
X860Y1113D01*
X860Y1117D01*
X862Y1117D01*
X862Y1121D01*
X864Y1121D01*
X864Y1125D01*
X866Y1125D01*
X866Y1127D01*
X868Y1127D01*
X868Y1129D01*
X870Y1129D01*
X870Y1131D01*
X872Y1131D01*
X872Y1133D01*
X874Y1133D01*
X874Y1135D01*
X876Y1135D01*
X876Y1137D01*
X880Y1137D01*
X880Y1139D01*
X884Y1139D01*
X884Y1141D01*
X888Y1141D01*
X888Y1143D01*
X896Y1143D01*
X896Y1145D01*
X762Y1145D01*
G37*
D02*
G36*
X912Y1145D02*
X912Y1143D01*
X920Y1143D01*
X920Y1141D01*
X926Y1141D01*
X926Y1139D01*
X930Y1139D01*
X930Y1137D01*
X932Y1137D01*
X932Y1135D01*
X934Y1135D01*
X934Y1133D01*
X938Y1133D01*
X938Y1131D01*
X940Y1131D01*
X940Y1129D01*
X942Y1129D01*
X942Y1125D01*
X944Y1125D01*
X944Y1123D01*
X946Y1123D01*
X946Y1119D01*
X948Y1119D01*
X948Y1117D01*
X950Y1117D01*
X950Y1111D01*
X952Y1111D01*
X952Y1103D01*
X954Y1103D01*
X954Y1089D01*
X952Y1089D01*
X952Y1081D01*
X950Y1081D01*
X950Y1075D01*
X948Y1075D01*
X948Y1071D01*
X946Y1071D01*
X946Y1069D01*
X944Y1069D01*
X944Y1065D01*
X942Y1065D01*
X942Y1063D01*
X940Y1063D01*
X940Y1061D01*
X938Y1061D01*
X938Y1059D01*
X936Y1059D01*
X936Y1057D01*
X932Y1057D01*
X932Y1035D01*
X934Y1035D01*
X934Y1033D01*
X938Y1033D01*
X938Y1031D01*
X940Y1031D01*
X940Y1029D01*
X942Y1029D01*
X942Y1025D01*
X944Y1025D01*
X944Y1023D01*
X946Y1023D01*
X946Y1019D01*
X948Y1019D01*
X948Y1017D01*
X950Y1017D01*
X950Y1011D01*
X952Y1011D01*
X952Y1003D01*
X954Y1003D01*
X954Y989D01*
X952Y989D01*
X952Y981D01*
X950Y981D01*
X950Y975D01*
X948Y975D01*
X948Y971D01*
X946Y971D01*
X946Y969D01*
X944Y969D01*
X944Y965D01*
X942Y965D01*
X942Y945D01*
X954Y945D01*
X954Y847D01*
X1006Y847D01*
X1006Y945D01*
X1018Y945D01*
X1018Y965D01*
X1016Y965D01*
X1016Y967D01*
X1014Y967D01*
X1014Y971D01*
X1012Y971D01*
X1012Y975D01*
X1010Y975D01*
X1010Y979D01*
X1008Y979D01*
X1008Y985D01*
X1006Y985D01*
X1006Y1007D01*
X1008Y1007D01*
X1008Y1013D01*
X1010Y1013D01*
X1010Y1017D01*
X1012Y1017D01*
X1012Y1021D01*
X1014Y1021D01*
X1014Y1025D01*
X1016Y1025D01*
X1016Y1027D01*
X1018Y1027D01*
X1018Y1029D01*
X1020Y1029D01*
X1020Y1031D01*
X1022Y1031D01*
X1022Y1033D01*
X1024Y1033D01*
X1024Y1035D01*
X1026Y1035D01*
X1026Y1057D01*
X1024Y1057D01*
X1024Y1059D01*
X1022Y1059D01*
X1022Y1061D01*
X1020Y1061D01*
X1020Y1063D01*
X1018Y1063D01*
X1018Y1065D01*
X1016Y1065D01*
X1016Y1067D01*
X1014Y1067D01*
X1014Y1071D01*
X1012Y1071D01*
X1012Y1075D01*
X1010Y1075D01*
X1010Y1079D01*
X1008Y1079D01*
X1008Y1085D01*
X1006Y1085D01*
X1006Y1107D01*
X1008Y1107D01*
X1008Y1113D01*
X1010Y1113D01*
X1010Y1117D01*
X1012Y1117D01*
X1012Y1121D01*
X1014Y1121D01*
X1014Y1125D01*
X1016Y1125D01*
X1016Y1127D01*
X1018Y1127D01*
X1018Y1129D01*
X1020Y1129D01*
X1020Y1131D01*
X1022Y1131D01*
X1022Y1133D01*
X1024Y1133D01*
X1024Y1135D01*
X1026Y1135D01*
X1026Y1137D01*
X1030Y1137D01*
X1030Y1139D01*
X1034Y1139D01*
X1034Y1141D01*
X1038Y1141D01*
X1038Y1143D01*
X1046Y1143D01*
X1046Y1145D01*
X912Y1145D01*
G37*
D02*
G36*
X1062Y1145D02*
X1062Y1143D01*
X1070Y1143D01*
X1070Y1141D01*
X1076Y1141D01*
X1076Y1139D01*
X1080Y1139D01*
X1080Y1137D01*
X1082Y1137D01*
X1082Y1135D01*
X1084Y1135D01*
X1084Y1133D01*
X1088Y1133D01*
X1088Y1131D01*
X1090Y1131D01*
X1090Y1129D01*
X1092Y1129D01*
X1092Y1125D01*
X1094Y1125D01*
X1094Y1123D01*
X1096Y1123D01*
X1096Y1119D01*
X1098Y1119D01*
X1098Y1117D01*
X1100Y1117D01*
X1100Y1111D01*
X1102Y1111D01*
X1102Y1103D01*
X1104Y1103D01*
X1104Y1089D01*
X1102Y1089D01*
X1102Y1081D01*
X1100Y1081D01*
X1100Y1075D01*
X1098Y1075D01*
X1098Y1071D01*
X1096Y1071D01*
X1096Y1069D01*
X1094Y1069D01*
X1094Y1065D01*
X1092Y1065D01*
X1092Y1063D01*
X1090Y1063D01*
X1090Y1061D01*
X1088Y1061D01*
X1088Y1059D01*
X1086Y1059D01*
X1086Y1057D01*
X1082Y1057D01*
X1082Y1035D01*
X1084Y1035D01*
X1084Y1033D01*
X1088Y1033D01*
X1088Y1031D01*
X1090Y1031D01*
X1090Y1029D01*
X1092Y1029D01*
X1092Y1025D01*
X1094Y1025D01*
X1094Y1023D01*
X1096Y1023D01*
X1096Y1019D01*
X1098Y1019D01*
X1098Y1017D01*
X1100Y1017D01*
X1100Y1011D01*
X1102Y1011D01*
X1102Y1003D01*
X1104Y1003D01*
X1104Y989D01*
X1102Y989D01*
X1102Y981D01*
X1100Y981D01*
X1100Y975D01*
X1098Y975D01*
X1098Y971D01*
X1096Y971D01*
X1096Y969D01*
X1094Y969D01*
X1094Y965D01*
X1092Y965D01*
X1092Y945D01*
X1104Y945D01*
X1104Y847D01*
X1156Y847D01*
X1156Y945D01*
X1168Y945D01*
X1168Y965D01*
X1166Y965D01*
X1166Y967D01*
X1164Y967D01*
X1164Y971D01*
X1162Y971D01*
X1162Y975D01*
X1160Y975D01*
X1160Y979D01*
X1158Y979D01*
X1158Y985D01*
X1156Y985D01*
X1156Y1007D01*
X1158Y1007D01*
X1158Y1013D01*
X1160Y1013D01*
X1160Y1017D01*
X1162Y1017D01*
X1162Y1021D01*
X1164Y1021D01*
X1164Y1025D01*
X1166Y1025D01*
X1166Y1027D01*
X1168Y1027D01*
X1168Y1029D01*
X1170Y1029D01*
X1170Y1031D01*
X1172Y1031D01*
X1172Y1033D01*
X1174Y1033D01*
X1174Y1035D01*
X1176Y1035D01*
X1176Y1057D01*
X1174Y1057D01*
X1174Y1059D01*
X1172Y1059D01*
X1172Y1061D01*
X1170Y1061D01*
X1170Y1063D01*
X1168Y1063D01*
X1168Y1065D01*
X1166Y1065D01*
X1166Y1067D01*
X1164Y1067D01*
X1164Y1071D01*
X1162Y1071D01*
X1162Y1075D01*
X1160Y1075D01*
X1160Y1079D01*
X1158Y1079D01*
X1158Y1085D01*
X1156Y1085D01*
X1156Y1107D01*
X1158Y1107D01*
X1158Y1113D01*
X1160Y1113D01*
X1160Y1117D01*
X1162Y1117D01*
X1162Y1121D01*
X1164Y1121D01*
X1164Y1125D01*
X1166Y1125D01*
X1166Y1127D01*
X1168Y1127D01*
X1168Y1129D01*
X1170Y1129D01*
X1170Y1131D01*
X1172Y1131D01*
X1172Y1133D01*
X1174Y1133D01*
X1174Y1135D01*
X1176Y1135D01*
X1176Y1137D01*
X1180Y1137D01*
X1180Y1139D01*
X1184Y1139D01*
X1184Y1141D01*
X1188Y1141D01*
X1188Y1143D01*
X1196Y1143D01*
X1196Y1145D01*
X1062Y1145D01*
G37*
D02*
G36*
X1826Y1145D02*
X1826Y1117D01*
X2262Y1117D01*
X2262Y1121D01*
X2264Y1121D01*
X2264Y1125D01*
X2266Y1125D01*
X2266Y1127D01*
X2268Y1127D01*
X2268Y1129D01*
X2270Y1129D01*
X2270Y1131D01*
X2272Y1131D01*
X2272Y1133D01*
X2274Y1133D01*
X2274Y1135D01*
X2276Y1135D01*
X2276Y1137D01*
X2280Y1137D01*
X2280Y1139D01*
X2284Y1139D01*
X2284Y1141D01*
X2288Y1141D01*
X2288Y1143D01*
X2296Y1143D01*
X2296Y1145D01*
X1826Y1145D01*
G37*
D02*
G36*
X2312Y1145D02*
X2312Y1143D01*
X2320Y1143D01*
X2320Y1141D01*
X2326Y1141D01*
X2326Y1139D01*
X2330Y1139D01*
X2330Y1137D01*
X2332Y1137D01*
X2332Y1135D01*
X2334Y1135D01*
X2334Y1133D01*
X2338Y1133D01*
X2338Y1131D01*
X2340Y1131D01*
X2340Y1129D01*
X2342Y1129D01*
X2342Y1125D01*
X2344Y1125D01*
X2344Y1123D01*
X2364Y1123D01*
X2364Y1125D01*
X2366Y1125D01*
X2366Y1127D01*
X2368Y1127D01*
X2368Y1129D01*
X2370Y1129D01*
X2370Y1131D01*
X2372Y1131D01*
X2372Y1133D01*
X2374Y1133D01*
X2374Y1135D01*
X2376Y1135D01*
X2376Y1137D01*
X2380Y1137D01*
X2380Y1139D01*
X2384Y1139D01*
X2384Y1141D01*
X2388Y1141D01*
X2388Y1143D01*
X2396Y1143D01*
X2396Y1145D01*
X2312Y1145D01*
G37*
D02*
G36*
X2412Y1145D02*
X2412Y1143D01*
X2420Y1143D01*
X2420Y1141D01*
X2426Y1141D01*
X2426Y1139D01*
X2430Y1139D01*
X2430Y1137D01*
X2432Y1137D01*
X2432Y1135D01*
X2434Y1135D01*
X2434Y1133D01*
X2456Y1133D01*
X2456Y1145D01*
X2412Y1145D01*
G37*
D02*
G36*
X2344Y1069D02*
X2344Y1065D01*
X2342Y1065D01*
X2342Y1063D01*
X2340Y1063D01*
X2340Y1061D01*
X2338Y1061D01*
X2338Y1059D01*
X2336Y1059D01*
X2336Y1057D01*
X2332Y1057D01*
X2332Y1055D01*
X2330Y1055D01*
X2330Y1053D01*
X2326Y1053D01*
X2326Y1051D01*
X2322Y1051D01*
X2322Y1049D01*
X2314Y1049D01*
X2314Y1047D01*
X2394Y1047D01*
X2394Y1049D01*
X2388Y1049D01*
X2388Y1051D01*
X2384Y1051D01*
X2384Y1053D01*
X2380Y1053D01*
X2380Y1055D01*
X2376Y1055D01*
X2376Y1057D01*
X2374Y1057D01*
X2374Y1059D01*
X2372Y1059D01*
X2372Y1061D01*
X2370Y1061D01*
X2370Y1063D01*
X2368Y1063D01*
X2368Y1065D01*
X2366Y1065D01*
X2366Y1067D01*
X2364Y1067D01*
X2364Y1069D01*
X2344Y1069D01*
G37*
D02*
G36*
X2436Y1059D02*
X2436Y1057D01*
X2432Y1057D01*
X2432Y1055D01*
X2430Y1055D01*
X2430Y1053D01*
X2426Y1053D01*
X2426Y1051D01*
X2422Y1051D01*
X2422Y1049D01*
X2414Y1049D01*
X2414Y1047D01*
X2456Y1047D01*
X2456Y1059D01*
X2436Y1059D01*
G37*
D02*
G36*
X1678Y1047D02*
X1678Y1045D01*
X2664Y1045D01*
X2664Y1047D01*
X1678Y1047D01*
G37*
D02*
G36*
X1678Y1047D02*
X1678Y1045D01*
X2664Y1045D01*
X2664Y1047D01*
X1678Y1047D01*
G37*
D02*
G36*
X1678Y1047D02*
X1678Y1045D01*
X2664Y1045D01*
X2664Y1047D01*
X1678Y1047D01*
G37*
D02*
G36*
X1678Y1047D02*
X1678Y1045D01*
X2664Y1045D01*
X2664Y1047D01*
X1678Y1047D01*
G37*
D02*
G36*
X1678Y1045D02*
X1678Y1019D01*
X2026Y1019D01*
X2026Y1017D01*
X2066Y1017D01*
X2066Y1015D01*
X2076Y1015D01*
X2076Y1013D01*
X2086Y1013D01*
X2086Y1011D01*
X2096Y1011D01*
X2096Y1009D01*
X2106Y1009D01*
X2106Y1007D01*
X2116Y1007D01*
X2116Y1005D01*
X2126Y1005D01*
X2126Y1003D01*
X2136Y1003D01*
X2136Y1001D01*
X2146Y1001D01*
X2146Y999D01*
X2156Y999D01*
X2156Y997D01*
X2166Y997D01*
X2166Y995D01*
X2554Y995D01*
X2554Y897D01*
X2664Y897D01*
X2664Y1045D01*
X1678Y1045D01*
G37*
D02*
G36*
X2176Y995D02*
X2176Y993D01*
X2186Y993D01*
X2186Y991D01*
X2196Y991D01*
X2196Y989D01*
X2206Y989D01*
X2206Y987D01*
X2216Y987D01*
X2216Y985D01*
X2226Y985D01*
X2226Y983D01*
X2236Y983D01*
X2236Y981D01*
X2246Y981D01*
X2246Y979D01*
X2270Y979D01*
X2270Y981D01*
X2272Y981D01*
X2272Y983D01*
X2274Y983D01*
X2274Y985D01*
X2276Y985D01*
X2276Y987D01*
X2280Y987D01*
X2280Y989D01*
X2284Y989D01*
X2284Y991D01*
X2288Y991D01*
X2288Y993D01*
X2296Y993D01*
X2296Y995D01*
X2176Y995D01*
G37*
D02*
G36*
X2312Y995D02*
X2312Y993D01*
X2320Y993D01*
X2320Y991D01*
X2326Y991D01*
X2326Y989D01*
X2330Y989D01*
X2330Y987D01*
X2332Y987D01*
X2332Y985D01*
X2334Y985D01*
X2334Y983D01*
X2338Y983D01*
X2338Y981D01*
X2340Y981D01*
X2340Y979D01*
X2342Y979D01*
X2342Y975D01*
X2344Y975D01*
X2344Y973D01*
X2364Y973D01*
X2364Y975D01*
X2366Y975D01*
X2366Y977D01*
X2368Y977D01*
X2368Y979D01*
X2370Y979D01*
X2370Y981D01*
X2372Y981D01*
X2372Y983D01*
X2374Y983D01*
X2374Y985D01*
X2376Y985D01*
X2376Y987D01*
X2380Y987D01*
X2380Y989D01*
X2384Y989D01*
X2384Y991D01*
X2388Y991D01*
X2388Y993D01*
X2396Y993D01*
X2396Y995D01*
X2312Y995D01*
G37*
D02*
G36*
X2412Y995D02*
X2412Y993D01*
X2420Y993D01*
X2420Y991D01*
X2426Y991D01*
X2426Y989D01*
X2430Y989D01*
X2430Y987D01*
X2432Y987D01*
X2432Y985D01*
X2434Y985D01*
X2434Y983D01*
X2456Y983D01*
X2456Y995D01*
X2412Y995D01*
G37*
D02*
G36*
X2096Y961D02*
X2096Y945D01*
X2100Y945D01*
X2100Y943D01*
X2102Y943D01*
X2102Y941D01*
X2106Y941D01*
X2106Y939D01*
X2110Y939D01*
X2110Y937D01*
X2112Y937D01*
X2112Y935D01*
X2116Y935D01*
X2116Y933D01*
X2120Y933D01*
X2120Y931D01*
X2122Y931D01*
X2122Y929D01*
X2126Y929D01*
X2126Y927D01*
X2130Y927D01*
X2130Y925D01*
X2132Y925D01*
X2132Y923D01*
X2136Y923D01*
X2136Y921D01*
X2140Y921D01*
X2140Y919D01*
X2142Y919D01*
X2142Y917D01*
X2146Y917D01*
X2146Y915D01*
X2150Y915D01*
X2150Y913D01*
X2152Y913D01*
X2152Y911D01*
X2156Y911D01*
X2156Y909D01*
X2160Y909D01*
X2160Y907D01*
X2162Y907D01*
X2162Y905D01*
X2166Y905D01*
X2166Y903D01*
X2170Y903D01*
X2170Y901D01*
X2172Y901D01*
X2172Y899D01*
X2176Y899D01*
X2176Y897D01*
X2294Y897D01*
X2294Y899D01*
X2288Y899D01*
X2288Y901D01*
X2284Y901D01*
X2284Y903D01*
X2280Y903D01*
X2280Y905D01*
X2276Y905D01*
X2276Y907D01*
X2274Y907D01*
X2274Y909D01*
X2272Y909D01*
X2272Y911D01*
X2270Y911D01*
X2270Y913D01*
X2268Y913D01*
X2268Y915D01*
X2266Y915D01*
X2266Y917D01*
X2264Y917D01*
X2264Y921D01*
X2262Y921D01*
X2262Y925D01*
X2260Y925D01*
X2260Y929D01*
X2258Y929D01*
X2258Y933D01*
X2252Y933D01*
X2252Y935D01*
X2242Y935D01*
X2242Y937D01*
X2232Y937D01*
X2232Y939D01*
X2222Y939D01*
X2222Y941D01*
X2212Y941D01*
X2212Y943D01*
X2202Y943D01*
X2202Y945D01*
X2192Y945D01*
X2192Y947D01*
X2182Y947D01*
X2182Y949D01*
X2172Y949D01*
X2172Y951D01*
X2162Y951D01*
X2162Y953D01*
X2152Y953D01*
X2152Y955D01*
X2142Y955D01*
X2142Y957D01*
X2132Y957D01*
X2132Y959D01*
X2122Y959D01*
X2122Y961D01*
X2096Y961D01*
G37*
D02*
G36*
X1616Y923D02*
X1616Y921D01*
X2050Y921D01*
X2050Y923D01*
X1616Y923D01*
G37*
D02*
G36*
X1254Y921D02*
X1254Y919D01*
X2054Y919D01*
X2054Y921D01*
X1254Y921D01*
G37*
D02*
G36*
X1254Y921D02*
X1254Y919D01*
X2054Y919D01*
X2054Y921D01*
X1254Y921D01*
G37*
D02*
G36*
X1254Y919D02*
X1254Y847D01*
X2174Y847D01*
X2174Y849D01*
X2170Y849D01*
X2170Y851D01*
X2168Y851D01*
X2168Y853D01*
X2164Y853D01*
X2164Y855D01*
X2160Y855D01*
X2160Y857D01*
X2158Y857D01*
X2158Y859D01*
X2154Y859D01*
X2154Y861D01*
X2150Y861D01*
X2150Y863D01*
X2148Y863D01*
X2148Y865D01*
X2144Y865D01*
X2144Y867D01*
X2140Y867D01*
X2140Y869D01*
X2138Y869D01*
X2138Y871D01*
X2134Y871D01*
X2134Y873D01*
X2130Y873D01*
X2130Y875D01*
X2128Y875D01*
X2128Y877D01*
X2124Y877D01*
X2124Y879D01*
X2120Y879D01*
X2120Y881D01*
X2118Y881D01*
X2118Y883D01*
X2114Y883D01*
X2114Y885D01*
X2110Y885D01*
X2110Y887D01*
X2108Y887D01*
X2108Y889D01*
X2104Y889D01*
X2104Y891D01*
X2100Y891D01*
X2100Y893D01*
X2096Y893D01*
X2096Y895D01*
X2094Y895D01*
X2094Y897D01*
X2090Y897D01*
X2090Y899D01*
X2086Y899D01*
X2086Y901D01*
X2084Y901D01*
X2084Y903D01*
X2080Y903D01*
X2080Y905D01*
X2076Y905D01*
X2076Y907D01*
X2074Y907D01*
X2074Y909D01*
X2070Y909D01*
X2070Y911D01*
X2066Y911D01*
X2066Y913D01*
X2064Y913D01*
X2064Y915D01*
X2060Y915D01*
X2060Y917D01*
X2056Y917D01*
X2056Y919D01*
X1254Y919D01*
G37*
D02*
G36*
X2344Y919D02*
X2344Y915D01*
X2342Y915D01*
X2342Y913D01*
X2340Y913D01*
X2340Y911D01*
X2338Y911D01*
X2338Y909D01*
X2336Y909D01*
X2336Y907D01*
X2332Y907D01*
X2332Y905D01*
X2330Y905D01*
X2330Y903D01*
X2326Y903D01*
X2326Y901D01*
X2322Y901D01*
X2322Y899D01*
X2314Y899D01*
X2314Y897D01*
X2394Y897D01*
X2394Y899D01*
X2388Y899D01*
X2388Y901D01*
X2384Y901D01*
X2384Y903D01*
X2380Y903D01*
X2380Y905D01*
X2376Y905D01*
X2376Y907D01*
X2374Y907D01*
X2374Y909D01*
X2372Y909D01*
X2372Y911D01*
X2370Y911D01*
X2370Y913D01*
X2368Y913D01*
X2368Y915D01*
X2366Y915D01*
X2366Y917D01*
X2364Y917D01*
X2364Y919D01*
X2344Y919D01*
G37*
D02*
G36*
X2436Y909D02*
X2436Y907D01*
X2432Y907D01*
X2432Y905D01*
X2430Y905D01*
X2430Y903D01*
X2426Y903D01*
X2426Y901D01*
X2422Y901D01*
X2422Y899D01*
X2414Y899D01*
X2414Y897D01*
X2456Y897D01*
X2456Y909D01*
X2436Y909D01*
G37*
D02*
G36*
X2180Y897D02*
X2180Y895D01*
X2664Y895D01*
X2664Y897D01*
X2180Y897D01*
G37*
D02*
G36*
X2180Y897D02*
X2180Y895D01*
X2664Y895D01*
X2664Y897D01*
X2180Y897D01*
G37*
D02*
G36*
X2180Y897D02*
X2180Y895D01*
X2664Y895D01*
X2664Y897D01*
X2180Y897D01*
G37*
D02*
G36*
X2180Y897D02*
X2180Y895D01*
X2664Y895D01*
X2664Y897D01*
X2180Y897D01*
G37*
D02*
G36*
X2182Y895D02*
X2182Y893D01*
X2186Y893D01*
X2186Y891D01*
X2190Y891D01*
X2190Y889D01*
X2192Y889D01*
X2192Y887D01*
X2196Y887D01*
X2196Y885D01*
X2200Y885D01*
X2200Y883D01*
X2204Y883D01*
X2204Y881D01*
X2206Y881D01*
X2206Y879D01*
X2210Y879D01*
X2210Y877D01*
X2214Y877D01*
X2214Y875D01*
X2216Y875D01*
X2216Y873D01*
X2220Y873D01*
X2220Y871D01*
X2224Y871D01*
X2224Y869D01*
X2226Y869D01*
X2226Y867D01*
X2230Y867D01*
X2230Y865D01*
X2234Y865D01*
X2234Y863D01*
X2236Y863D01*
X2236Y861D01*
X2240Y861D01*
X2240Y859D01*
X2244Y859D01*
X2244Y857D01*
X2246Y857D01*
X2246Y855D01*
X2250Y855D01*
X2250Y853D01*
X2254Y853D01*
X2254Y851D01*
X2256Y851D01*
X2256Y849D01*
X2260Y849D01*
X2260Y847D01*
X2264Y847D01*
X2264Y845D01*
X2554Y845D01*
X2554Y747D01*
X2664Y747D01*
X2664Y895D01*
X2182Y895D01*
G37*
D02*
G36*
X52Y847D02*
X52Y845D01*
X2178Y845D01*
X2178Y847D01*
X52Y847D01*
G37*
D02*
G36*
X52Y847D02*
X52Y845D01*
X2178Y845D01*
X2178Y847D01*
X52Y847D01*
G37*
D02*
G36*
X52Y847D02*
X52Y845D01*
X2178Y845D01*
X2178Y847D01*
X52Y847D01*
G37*
D02*
G36*
X52Y847D02*
X52Y845D01*
X2178Y845D01*
X2178Y847D01*
X52Y847D01*
G37*
D02*
G36*
X52Y847D02*
X52Y845D01*
X2178Y845D01*
X2178Y847D01*
X52Y847D01*
G37*
D02*
G36*
X52Y847D02*
X52Y845D01*
X2178Y845D01*
X2178Y847D01*
X52Y847D01*
G37*
D02*
G36*
X52Y847D02*
X52Y845D01*
X2178Y845D01*
X2178Y847D01*
X52Y847D01*
G37*
D02*
G36*
X52Y845D02*
X52Y843D01*
X216Y843D01*
X216Y841D01*
X222Y841D01*
X222Y839D01*
X226Y839D01*
X226Y837D01*
X230Y837D01*
X230Y835D01*
X232Y835D01*
X232Y833D01*
X236Y833D01*
X236Y831D01*
X238Y831D01*
X238Y829D01*
X240Y829D01*
X240Y825D01*
X242Y825D01*
X242Y823D01*
X244Y823D01*
X244Y821D01*
X246Y821D01*
X246Y817D01*
X248Y817D01*
X248Y813D01*
X250Y813D01*
X250Y805D01*
X252Y805D01*
X252Y787D01*
X250Y787D01*
X250Y779D01*
X248Y779D01*
X248Y775D01*
X246Y775D01*
X246Y771D01*
X244Y771D01*
X244Y769D01*
X242Y769D01*
X242Y765D01*
X240Y765D01*
X240Y763D01*
X238Y763D01*
X238Y761D01*
X236Y761D01*
X236Y759D01*
X232Y759D01*
X232Y757D01*
X230Y757D01*
X230Y755D01*
X226Y755D01*
X226Y753D01*
X222Y753D01*
X222Y751D01*
X216Y751D01*
X216Y749D01*
X1378Y749D01*
X1378Y751D01*
X1374Y751D01*
X1374Y753D01*
X1370Y753D01*
X1370Y755D01*
X1368Y755D01*
X1368Y757D01*
X1364Y757D01*
X1364Y759D01*
X1362Y759D01*
X1362Y761D01*
X1360Y761D01*
X1360Y763D01*
X1358Y763D01*
X1358Y765D01*
X1356Y765D01*
X1356Y769D01*
X1354Y769D01*
X1354Y771D01*
X1352Y771D01*
X1352Y775D01*
X1350Y775D01*
X1350Y781D01*
X1348Y781D01*
X1348Y789D01*
X1346Y789D01*
X1346Y803D01*
X1348Y803D01*
X1348Y811D01*
X1350Y811D01*
X1350Y817D01*
X1352Y817D01*
X1352Y821D01*
X1354Y821D01*
X1354Y823D01*
X1356Y823D01*
X1356Y827D01*
X1358Y827D01*
X1358Y829D01*
X1360Y829D01*
X1360Y831D01*
X1362Y831D01*
X1362Y833D01*
X1364Y833D01*
X1364Y835D01*
X1368Y835D01*
X1368Y837D01*
X1370Y837D01*
X1370Y839D01*
X1374Y839D01*
X1374Y841D01*
X1380Y841D01*
X1380Y843D01*
X1386Y843D01*
X1386Y845D01*
X52Y845D01*
G37*
D02*
G36*
X1404Y845D02*
X1404Y843D01*
X1412Y843D01*
X1412Y841D01*
X1416Y841D01*
X1416Y839D01*
X1420Y839D01*
X1420Y837D01*
X1424Y837D01*
X1424Y835D01*
X1426Y835D01*
X1426Y833D01*
X1428Y833D01*
X1428Y831D01*
X1430Y831D01*
X1430Y829D01*
X1432Y829D01*
X1432Y827D01*
X1434Y827D01*
X1434Y825D01*
X1436Y825D01*
X1436Y823D01*
X1456Y823D01*
X1456Y827D01*
X1458Y827D01*
X1458Y829D01*
X1460Y829D01*
X1460Y831D01*
X1462Y831D01*
X1462Y833D01*
X1464Y833D01*
X1464Y835D01*
X1468Y835D01*
X1468Y837D01*
X1470Y837D01*
X1470Y839D01*
X1474Y839D01*
X1474Y841D01*
X1480Y841D01*
X1480Y843D01*
X1486Y843D01*
X1486Y845D01*
X1404Y845D01*
G37*
D02*
G36*
X1504Y845D02*
X1504Y843D01*
X1512Y843D01*
X1512Y841D01*
X1516Y841D01*
X1516Y839D01*
X1520Y839D01*
X1520Y837D01*
X1524Y837D01*
X1524Y835D01*
X1526Y835D01*
X1526Y833D01*
X1528Y833D01*
X1528Y831D01*
X1530Y831D01*
X1530Y829D01*
X1532Y829D01*
X1532Y827D01*
X1534Y827D01*
X1534Y825D01*
X1536Y825D01*
X1536Y823D01*
X1556Y823D01*
X1556Y827D01*
X1558Y827D01*
X1558Y829D01*
X1560Y829D01*
X1560Y831D01*
X1562Y831D01*
X1562Y833D01*
X1564Y833D01*
X1564Y835D01*
X1568Y835D01*
X1568Y837D01*
X1570Y837D01*
X1570Y839D01*
X1574Y839D01*
X1574Y841D01*
X1580Y841D01*
X1580Y843D01*
X1586Y843D01*
X1586Y845D01*
X1504Y845D01*
G37*
D02*
G36*
X1604Y845D02*
X1604Y843D01*
X1612Y843D01*
X1612Y841D01*
X1616Y841D01*
X1616Y839D01*
X1620Y839D01*
X1620Y837D01*
X1624Y837D01*
X1624Y835D01*
X1626Y835D01*
X1626Y833D01*
X1628Y833D01*
X1628Y831D01*
X1630Y831D01*
X1630Y829D01*
X1632Y829D01*
X1632Y827D01*
X1634Y827D01*
X1634Y825D01*
X1636Y825D01*
X1636Y823D01*
X1656Y823D01*
X1656Y827D01*
X1658Y827D01*
X1658Y829D01*
X1660Y829D01*
X1660Y831D01*
X1662Y831D01*
X1662Y833D01*
X1664Y833D01*
X1664Y835D01*
X1668Y835D01*
X1668Y837D01*
X1670Y837D01*
X1670Y839D01*
X1674Y839D01*
X1674Y841D01*
X1680Y841D01*
X1680Y843D01*
X1686Y843D01*
X1686Y845D01*
X1604Y845D01*
G37*
D02*
G36*
X1704Y845D02*
X1704Y843D01*
X1712Y843D01*
X1712Y841D01*
X1716Y841D01*
X1716Y839D01*
X1720Y839D01*
X1720Y837D01*
X1724Y837D01*
X1724Y835D01*
X1726Y835D01*
X1726Y833D01*
X1728Y833D01*
X1728Y831D01*
X1730Y831D01*
X1730Y829D01*
X1732Y829D01*
X1732Y827D01*
X1734Y827D01*
X1734Y825D01*
X1736Y825D01*
X1736Y821D01*
X1738Y821D01*
X1738Y817D01*
X1740Y817D01*
X1740Y813D01*
X1760Y813D01*
X1760Y817D01*
X1762Y817D01*
X1762Y821D01*
X1764Y821D01*
X1764Y825D01*
X1766Y825D01*
X1766Y827D01*
X1768Y827D01*
X1768Y829D01*
X1770Y829D01*
X1770Y831D01*
X1772Y831D01*
X1772Y833D01*
X1774Y833D01*
X1774Y835D01*
X1776Y835D01*
X1776Y837D01*
X1780Y837D01*
X1780Y839D01*
X1784Y839D01*
X1784Y841D01*
X1788Y841D01*
X1788Y843D01*
X1796Y843D01*
X1796Y845D01*
X1704Y845D01*
G37*
D02*
G36*
X1812Y845D02*
X1812Y843D01*
X1820Y843D01*
X1820Y841D01*
X1826Y841D01*
X1826Y839D01*
X1830Y839D01*
X1830Y837D01*
X1832Y837D01*
X1832Y835D01*
X1834Y835D01*
X1834Y833D01*
X1838Y833D01*
X1838Y831D01*
X1840Y831D01*
X1840Y829D01*
X1842Y829D01*
X1842Y825D01*
X1844Y825D01*
X1844Y823D01*
X1864Y823D01*
X1864Y825D01*
X1866Y825D01*
X1866Y827D01*
X1868Y827D01*
X1868Y829D01*
X1870Y829D01*
X1870Y831D01*
X1872Y831D01*
X1872Y833D01*
X1874Y833D01*
X1874Y835D01*
X1876Y835D01*
X1876Y837D01*
X1880Y837D01*
X1880Y839D01*
X1884Y839D01*
X1884Y841D01*
X1888Y841D01*
X1888Y843D01*
X1896Y843D01*
X1896Y845D01*
X1812Y845D01*
G37*
D02*
G36*
X1912Y845D02*
X1912Y843D01*
X1920Y843D01*
X1920Y841D01*
X1926Y841D01*
X1926Y839D01*
X1930Y839D01*
X1930Y837D01*
X1932Y837D01*
X1932Y835D01*
X1934Y835D01*
X1934Y833D01*
X1938Y833D01*
X1938Y831D01*
X1940Y831D01*
X1940Y829D01*
X1942Y829D01*
X1942Y825D01*
X1944Y825D01*
X1944Y823D01*
X1964Y823D01*
X1964Y825D01*
X1966Y825D01*
X1966Y827D01*
X1968Y827D01*
X1968Y829D01*
X1970Y829D01*
X1970Y831D01*
X1972Y831D01*
X1972Y833D01*
X1974Y833D01*
X1974Y835D01*
X1976Y835D01*
X1976Y837D01*
X1980Y837D01*
X1980Y839D01*
X1984Y839D01*
X1984Y841D01*
X1988Y841D01*
X1988Y843D01*
X1996Y843D01*
X1996Y845D01*
X1912Y845D01*
G37*
D02*
G36*
X2012Y845D02*
X2012Y843D01*
X2020Y843D01*
X2020Y841D01*
X2026Y841D01*
X2026Y839D01*
X2030Y839D01*
X2030Y837D01*
X2032Y837D01*
X2032Y835D01*
X2034Y835D01*
X2034Y833D01*
X2038Y833D01*
X2038Y831D01*
X2040Y831D01*
X2040Y829D01*
X2042Y829D01*
X2042Y825D01*
X2044Y825D01*
X2044Y823D01*
X2064Y823D01*
X2064Y825D01*
X2066Y825D01*
X2066Y827D01*
X2068Y827D01*
X2068Y829D01*
X2070Y829D01*
X2070Y831D01*
X2072Y831D01*
X2072Y833D01*
X2074Y833D01*
X2074Y835D01*
X2076Y835D01*
X2076Y837D01*
X2080Y837D01*
X2080Y839D01*
X2084Y839D01*
X2084Y841D01*
X2088Y841D01*
X2088Y843D01*
X2096Y843D01*
X2096Y845D01*
X2012Y845D01*
G37*
D02*
G36*
X2112Y845D02*
X2112Y843D01*
X2120Y843D01*
X2120Y841D01*
X2126Y841D01*
X2126Y839D01*
X2130Y839D01*
X2130Y837D01*
X2132Y837D01*
X2132Y835D01*
X2134Y835D01*
X2134Y833D01*
X2138Y833D01*
X2138Y831D01*
X2140Y831D01*
X2140Y829D01*
X2142Y829D01*
X2142Y825D01*
X2144Y825D01*
X2144Y823D01*
X2146Y823D01*
X2146Y819D01*
X2148Y819D01*
X2148Y817D01*
X2150Y817D01*
X2150Y811D01*
X2152Y811D01*
X2152Y803D01*
X2154Y803D01*
X2154Y789D01*
X2152Y789D01*
X2152Y781D01*
X2150Y781D01*
X2150Y775D01*
X2148Y775D01*
X2148Y771D01*
X2146Y771D01*
X2146Y769D01*
X2144Y769D01*
X2144Y765D01*
X2142Y765D01*
X2142Y763D01*
X2140Y763D01*
X2140Y761D01*
X2138Y761D01*
X2138Y759D01*
X2136Y759D01*
X2136Y757D01*
X2132Y757D01*
X2132Y755D01*
X2130Y755D01*
X2130Y753D01*
X2126Y753D01*
X2126Y751D01*
X2122Y751D01*
X2122Y749D01*
X2114Y749D01*
X2114Y747D01*
X2294Y747D01*
X2294Y749D01*
X2288Y749D01*
X2288Y751D01*
X2284Y751D01*
X2284Y753D01*
X2280Y753D01*
X2280Y755D01*
X2276Y755D01*
X2276Y757D01*
X2274Y757D01*
X2274Y759D01*
X2272Y759D01*
X2272Y761D01*
X2270Y761D01*
X2270Y763D01*
X2268Y763D01*
X2268Y765D01*
X2266Y765D01*
X2266Y767D01*
X2264Y767D01*
X2264Y771D01*
X2262Y771D01*
X2262Y775D01*
X2260Y775D01*
X2260Y779D01*
X2258Y779D01*
X2258Y785D01*
X2256Y785D01*
X2256Y799D01*
X2254Y799D01*
X2254Y801D01*
X2252Y801D01*
X2252Y803D01*
X2248Y803D01*
X2248Y805D01*
X2244Y805D01*
X2244Y807D01*
X2242Y807D01*
X2242Y809D01*
X2238Y809D01*
X2238Y811D01*
X2234Y811D01*
X2234Y813D01*
X2232Y813D01*
X2232Y815D01*
X2228Y815D01*
X2228Y817D01*
X2224Y817D01*
X2224Y819D01*
X2222Y819D01*
X2222Y821D01*
X2218Y821D01*
X2218Y823D01*
X2214Y823D01*
X2214Y825D01*
X2212Y825D01*
X2212Y827D01*
X2208Y827D01*
X2208Y829D01*
X2204Y829D01*
X2204Y831D01*
X2200Y831D01*
X2200Y833D01*
X2198Y833D01*
X2198Y835D01*
X2194Y835D01*
X2194Y837D01*
X2190Y837D01*
X2190Y839D01*
X2188Y839D01*
X2188Y841D01*
X2184Y841D01*
X2184Y843D01*
X2180Y843D01*
X2180Y845D01*
X2112Y845D01*
G37*
D02*
G36*
X2266Y845D02*
X2266Y843D01*
X2296Y843D01*
X2296Y845D01*
X2266Y845D01*
G37*
D02*
G36*
X2312Y845D02*
X2312Y843D01*
X2320Y843D01*
X2320Y841D01*
X2326Y841D01*
X2326Y839D01*
X2330Y839D01*
X2330Y837D01*
X2332Y837D01*
X2332Y835D01*
X2334Y835D01*
X2334Y833D01*
X2338Y833D01*
X2338Y831D01*
X2340Y831D01*
X2340Y829D01*
X2342Y829D01*
X2342Y825D01*
X2344Y825D01*
X2344Y823D01*
X2364Y823D01*
X2364Y825D01*
X2366Y825D01*
X2366Y827D01*
X2368Y827D01*
X2368Y829D01*
X2370Y829D01*
X2370Y831D01*
X2372Y831D01*
X2372Y833D01*
X2374Y833D01*
X2374Y835D01*
X2376Y835D01*
X2376Y837D01*
X2380Y837D01*
X2380Y839D01*
X2384Y839D01*
X2384Y841D01*
X2388Y841D01*
X2388Y843D01*
X2396Y843D01*
X2396Y845D01*
X2312Y845D01*
G37*
D02*
G36*
X2412Y845D02*
X2412Y843D01*
X2420Y843D01*
X2420Y841D01*
X2426Y841D01*
X2426Y839D01*
X2430Y839D01*
X2430Y837D01*
X2432Y837D01*
X2432Y835D01*
X2434Y835D01*
X2434Y833D01*
X2456Y833D01*
X2456Y845D01*
X2412Y845D01*
G37*
D02*
G36*
X52Y843D02*
X52Y749D01*
X194Y749D01*
X194Y751D01*
X186Y751D01*
X186Y753D01*
X182Y753D01*
X182Y755D01*
X180Y755D01*
X180Y757D01*
X176Y757D01*
X176Y759D01*
X174Y759D01*
X174Y761D01*
X172Y761D01*
X172Y763D01*
X170Y763D01*
X170Y765D01*
X168Y765D01*
X168Y767D01*
X166Y767D01*
X166Y769D01*
X164Y769D01*
X164Y773D01*
X162Y773D01*
X162Y777D01*
X160Y777D01*
X160Y783D01*
X158Y783D01*
X158Y809D01*
X160Y809D01*
X160Y815D01*
X162Y815D01*
X162Y819D01*
X164Y819D01*
X164Y821D01*
X166Y821D01*
X166Y825D01*
X168Y825D01*
X168Y827D01*
X170Y827D01*
X170Y829D01*
X172Y829D01*
X172Y831D01*
X174Y831D01*
X174Y833D01*
X176Y833D01*
X176Y835D01*
X180Y835D01*
X180Y837D01*
X184Y837D01*
X184Y839D01*
X188Y839D01*
X188Y841D01*
X194Y841D01*
X194Y843D01*
X52Y843D01*
G37*
D02*
G36*
X1740Y779D02*
X1740Y775D01*
X1738Y775D01*
X1738Y771D01*
X1736Y771D01*
X1736Y767D01*
X1734Y767D01*
X1734Y765D01*
X1732Y765D01*
X1732Y763D01*
X1730Y763D01*
X1730Y761D01*
X1728Y761D01*
X1728Y759D01*
X1726Y759D01*
X1726Y757D01*
X1724Y757D01*
X1724Y755D01*
X1720Y755D01*
X1720Y753D01*
X1716Y753D01*
X1716Y751D01*
X1712Y751D01*
X1712Y749D01*
X1706Y749D01*
X1706Y747D01*
X1794Y747D01*
X1794Y749D01*
X1788Y749D01*
X1788Y751D01*
X1784Y751D01*
X1784Y753D01*
X1780Y753D01*
X1780Y755D01*
X1776Y755D01*
X1776Y757D01*
X1774Y757D01*
X1774Y759D01*
X1772Y759D01*
X1772Y761D01*
X1770Y761D01*
X1770Y763D01*
X1768Y763D01*
X1768Y765D01*
X1766Y765D01*
X1766Y767D01*
X1764Y767D01*
X1764Y771D01*
X1762Y771D01*
X1762Y775D01*
X1760Y775D01*
X1760Y779D01*
X1740Y779D01*
G37*
D02*
G36*
X1436Y769D02*
X1436Y767D01*
X1434Y767D01*
X1434Y765D01*
X1432Y765D01*
X1432Y763D01*
X1430Y763D01*
X1430Y761D01*
X1428Y761D01*
X1428Y759D01*
X1426Y759D01*
X1426Y757D01*
X1424Y757D01*
X1424Y755D01*
X1420Y755D01*
X1420Y753D01*
X1416Y753D01*
X1416Y751D01*
X1412Y751D01*
X1412Y749D01*
X1406Y749D01*
X1406Y747D01*
X1486Y747D01*
X1486Y749D01*
X1478Y749D01*
X1478Y751D01*
X1474Y751D01*
X1474Y753D01*
X1470Y753D01*
X1470Y755D01*
X1468Y755D01*
X1468Y757D01*
X1464Y757D01*
X1464Y759D01*
X1462Y759D01*
X1462Y761D01*
X1460Y761D01*
X1460Y763D01*
X1458Y763D01*
X1458Y765D01*
X1456Y765D01*
X1456Y769D01*
X1436Y769D01*
G37*
D02*
G36*
X1536Y769D02*
X1536Y767D01*
X1534Y767D01*
X1534Y765D01*
X1532Y765D01*
X1532Y763D01*
X1530Y763D01*
X1530Y761D01*
X1528Y761D01*
X1528Y759D01*
X1526Y759D01*
X1526Y757D01*
X1524Y757D01*
X1524Y755D01*
X1520Y755D01*
X1520Y753D01*
X1516Y753D01*
X1516Y751D01*
X1512Y751D01*
X1512Y749D01*
X1506Y749D01*
X1506Y747D01*
X1586Y747D01*
X1586Y749D01*
X1578Y749D01*
X1578Y751D01*
X1574Y751D01*
X1574Y753D01*
X1570Y753D01*
X1570Y755D01*
X1568Y755D01*
X1568Y757D01*
X1564Y757D01*
X1564Y759D01*
X1562Y759D01*
X1562Y761D01*
X1560Y761D01*
X1560Y763D01*
X1558Y763D01*
X1558Y765D01*
X1556Y765D01*
X1556Y769D01*
X1536Y769D01*
G37*
D02*
G36*
X1636Y769D02*
X1636Y767D01*
X1634Y767D01*
X1634Y765D01*
X1632Y765D01*
X1632Y763D01*
X1630Y763D01*
X1630Y761D01*
X1628Y761D01*
X1628Y759D01*
X1626Y759D01*
X1626Y757D01*
X1624Y757D01*
X1624Y755D01*
X1620Y755D01*
X1620Y753D01*
X1616Y753D01*
X1616Y751D01*
X1612Y751D01*
X1612Y749D01*
X1606Y749D01*
X1606Y747D01*
X1686Y747D01*
X1686Y749D01*
X1678Y749D01*
X1678Y751D01*
X1674Y751D01*
X1674Y753D01*
X1670Y753D01*
X1670Y755D01*
X1668Y755D01*
X1668Y757D01*
X1664Y757D01*
X1664Y759D01*
X1662Y759D01*
X1662Y761D01*
X1660Y761D01*
X1660Y763D01*
X1658Y763D01*
X1658Y765D01*
X1656Y765D01*
X1656Y769D01*
X1636Y769D01*
G37*
D02*
G36*
X1844Y769D02*
X1844Y765D01*
X1842Y765D01*
X1842Y763D01*
X1840Y763D01*
X1840Y761D01*
X1838Y761D01*
X1838Y759D01*
X1836Y759D01*
X1836Y757D01*
X1832Y757D01*
X1832Y755D01*
X1830Y755D01*
X1830Y753D01*
X1826Y753D01*
X1826Y751D01*
X1822Y751D01*
X1822Y749D01*
X1814Y749D01*
X1814Y747D01*
X1894Y747D01*
X1894Y749D01*
X1888Y749D01*
X1888Y751D01*
X1884Y751D01*
X1884Y753D01*
X1880Y753D01*
X1880Y755D01*
X1876Y755D01*
X1876Y757D01*
X1874Y757D01*
X1874Y759D01*
X1872Y759D01*
X1872Y761D01*
X1870Y761D01*
X1870Y763D01*
X1868Y763D01*
X1868Y765D01*
X1866Y765D01*
X1866Y767D01*
X1864Y767D01*
X1864Y769D01*
X1844Y769D01*
G37*
D02*
G36*
X1944Y769D02*
X1944Y765D01*
X1942Y765D01*
X1942Y763D01*
X1940Y763D01*
X1940Y761D01*
X1938Y761D01*
X1938Y759D01*
X1936Y759D01*
X1936Y757D01*
X1932Y757D01*
X1932Y755D01*
X1930Y755D01*
X1930Y753D01*
X1926Y753D01*
X1926Y751D01*
X1922Y751D01*
X1922Y749D01*
X1914Y749D01*
X1914Y747D01*
X1994Y747D01*
X1994Y749D01*
X1988Y749D01*
X1988Y751D01*
X1984Y751D01*
X1984Y753D01*
X1980Y753D01*
X1980Y755D01*
X1976Y755D01*
X1976Y757D01*
X1974Y757D01*
X1974Y759D01*
X1972Y759D01*
X1972Y761D01*
X1970Y761D01*
X1970Y763D01*
X1968Y763D01*
X1968Y765D01*
X1966Y765D01*
X1966Y767D01*
X1964Y767D01*
X1964Y769D01*
X1944Y769D01*
G37*
D02*
G36*
X2044Y769D02*
X2044Y765D01*
X2042Y765D01*
X2042Y763D01*
X2040Y763D01*
X2040Y761D01*
X2038Y761D01*
X2038Y759D01*
X2036Y759D01*
X2036Y757D01*
X2032Y757D01*
X2032Y755D01*
X2030Y755D01*
X2030Y753D01*
X2026Y753D01*
X2026Y751D01*
X2022Y751D01*
X2022Y749D01*
X2014Y749D01*
X2014Y747D01*
X2094Y747D01*
X2094Y749D01*
X2088Y749D01*
X2088Y751D01*
X2084Y751D01*
X2084Y753D01*
X2080Y753D01*
X2080Y755D01*
X2076Y755D01*
X2076Y757D01*
X2074Y757D01*
X2074Y759D01*
X2072Y759D01*
X2072Y761D01*
X2070Y761D01*
X2070Y763D01*
X2068Y763D01*
X2068Y765D01*
X2066Y765D01*
X2066Y767D01*
X2064Y767D01*
X2064Y769D01*
X2044Y769D01*
G37*
D02*
G36*
X2344Y769D02*
X2344Y765D01*
X2342Y765D01*
X2342Y763D01*
X2340Y763D01*
X2340Y761D01*
X2338Y761D01*
X2338Y759D01*
X2336Y759D01*
X2336Y757D01*
X2332Y757D01*
X2332Y755D01*
X2330Y755D01*
X2330Y753D01*
X2326Y753D01*
X2326Y751D01*
X2322Y751D01*
X2322Y749D01*
X2314Y749D01*
X2314Y747D01*
X2394Y747D01*
X2394Y749D01*
X2388Y749D01*
X2388Y751D01*
X2384Y751D01*
X2384Y753D01*
X2380Y753D01*
X2380Y755D01*
X2376Y755D01*
X2376Y757D01*
X2374Y757D01*
X2374Y759D01*
X2372Y759D01*
X2372Y761D01*
X2370Y761D01*
X2370Y763D01*
X2368Y763D01*
X2368Y765D01*
X2366Y765D01*
X2366Y767D01*
X2364Y767D01*
X2364Y769D01*
X2344Y769D01*
G37*
D02*
G36*
X2436Y759D02*
X2436Y757D01*
X2432Y757D01*
X2432Y755D01*
X2430Y755D01*
X2430Y753D01*
X2426Y753D01*
X2426Y751D01*
X2422Y751D01*
X2422Y749D01*
X2414Y749D01*
X2414Y747D01*
X2456Y747D01*
X2456Y759D01*
X2436Y759D01*
G37*
D02*
G36*
X52Y749D02*
X52Y747D01*
X1386Y747D01*
X1386Y749D01*
X52Y749D01*
G37*
D02*
G36*
X52Y749D02*
X52Y747D01*
X1386Y747D01*
X1386Y749D01*
X52Y749D01*
G37*
D02*
G36*
X52Y747D02*
X52Y745D01*
X2664Y745D01*
X2664Y747D01*
X52Y747D01*
G37*
D02*
G36*
X52Y747D02*
X52Y745D01*
X2664Y745D01*
X2664Y747D01*
X52Y747D01*
G37*
D02*
G36*
X52Y747D02*
X52Y745D01*
X2664Y745D01*
X2664Y747D01*
X52Y747D01*
G37*
D02*
G36*
X52Y747D02*
X52Y745D01*
X2664Y745D01*
X2664Y747D01*
X52Y747D01*
G37*
D02*
G36*
X52Y747D02*
X52Y745D01*
X2664Y745D01*
X2664Y747D01*
X52Y747D01*
G37*
D02*
G36*
X52Y747D02*
X52Y745D01*
X2664Y745D01*
X2664Y747D01*
X52Y747D01*
G37*
D02*
G36*
X52Y747D02*
X52Y745D01*
X2664Y745D01*
X2664Y747D01*
X52Y747D01*
G37*
D02*
G36*
X52Y747D02*
X52Y745D01*
X2664Y745D01*
X2664Y747D01*
X52Y747D01*
G37*
D02*
G36*
X52Y747D02*
X52Y745D01*
X2664Y745D01*
X2664Y747D01*
X52Y747D01*
G37*
D02*
G36*
X52Y747D02*
X52Y745D01*
X2664Y745D01*
X2664Y747D01*
X52Y747D01*
G37*
D02*
G36*
X52Y747D02*
X52Y745D01*
X2664Y745D01*
X2664Y747D01*
X52Y747D01*
G37*
D02*
G36*
X52Y747D02*
X52Y745D01*
X2664Y745D01*
X2664Y747D01*
X52Y747D01*
G37*
D02*
G36*
X52Y745D02*
X52Y547D01*
X294Y547D01*
X294Y549D01*
X288Y549D01*
X288Y551D01*
X284Y551D01*
X284Y553D01*
X280Y553D01*
X280Y555D01*
X276Y555D01*
X276Y557D01*
X274Y557D01*
X274Y559D01*
X272Y559D01*
X272Y561D01*
X270Y561D01*
X270Y563D01*
X268Y563D01*
X268Y565D01*
X266Y565D01*
X266Y567D01*
X264Y567D01*
X264Y571D01*
X262Y571D01*
X262Y575D01*
X260Y575D01*
X260Y579D01*
X258Y579D01*
X258Y585D01*
X256Y585D01*
X256Y607D01*
X258Y607D01*
X258Y613D01*
X260Y613D01*
X260Y617D01*
X262Y617D01*
X262Y621D01*
X264Y621D01*
X264Y625D01*
X266Y625D01*
X266Y627D01*
X268Y627D01*
X268Y629D01*
X270Y629D01*
X270Y631D01*
X272Y631D01*
X272Y633D01*
X274Y633D01*
X274Y635D01*
X276Y635D01*
X276Y657D01*
X274Y657D01*
X274Y659D01*
X272Y659D01*
X272Y661D01*
X270Y661D01*
X270Y663D01*
X268Y663D01*
X268Y665D01*
X266Y665D01*
X266Y667D01*
X264Y667D01*
X264Y671D01*
X262Y671D01*
X262Y675D01*
X260Y675D01*
X260Y679D01*
X258Y679D01*
X258Y685D01*
X256Y685D01*
X256Y707D01*
X258Y707D01*
X258Y713D01*
X260Y713D01*
X260Y717D01*
X262Y717D01*
X262Y721D01*
X264Y721D01*
X264Y725D01*
X266Y725D01*
X266Y727D01*
X268Y727D01*
X268Y729D01*
X270Y729D01*
X270Y731D01*
X272Y731D01*
X272Y733D01*
X274Y733D01*
X274Y735D01*
X276Y735D01*
X276Y737D01*
X280Y737D01*
X280Y739D01*
X284Y739D01*
X284Y741D01*
X288Y741D01*
X288Y743D01*
X296Y743D01*
X296Y745D01*
X52Y745D01*
G37*
D02*
G36*
X312Y745D02*
X312Y743D01*
X320Y743D01*
X320Y741D01*
X326Y741D01*
X326Y739D01*
X330Y739D01*
X330Y737D01*
X332Y737D01*
X332Y735D01*
X334Y735D01*
X334Y733D01*
X338Y733D01*
X338Y731D01*
X340Y731D01*
X340Y729D01*
X342Y729D01*
X342Y725D01*
X344Y725D01*
X344Y723D01*
X346Y723D01*
X346Y719D01*
X348Y719D01*
X348Y717D01*
X350Y717D01*
X350Y711D01*
X352Y711D01*
X352Y703D01*
X354Y703D01*
X354Y689D01*
X352Y689D01*
X352Y681D01*
X350Y681D01*
X350Y675D01*
X348Y675D01*
X348Y671D01*
X346Y671D01*
X346Y669D01*
X344Y669D01*
X344Y665D01*
X342Y665D01*
X342Y663D01*
X340Y663D01*
X340Y661D01*
X338Y661D01*
X338Y659D01*
X336Y659D01*
X336Y657D01*
X332Y657D01*
X332Y635D01*
X334Y635D01*
X334Y633D01*
X338Y633D01*
X338Y631D01*
X340Y631D01*
X340Y629D01*
X342Y629D01*
X342Y625D01*
X344Y625D01*
X344Y623D01*
X346Y623D01*
X346Y619D01*
X348Y619D01*
X348Y617D01*
X350Y617D01*
X350Y611D01*
X352Y611D01*
X352Y603D01*
X354Y603D01*
X354Y589D01*
X352Y589D01*
X352Y581D01*
X350Y581D01*
X350Y575D01*
X348Y575D01*
X348Y571D01*
X346Y571D01*
X346Y569D01*
X344Y569D01*
X344Y565D01*
X342Y565D01*
X342Y563D01*
X340Y563D01*
X340Y561D01*
X338Y561D01*
X338Y559D01*
X336Y559D01*
X336Y557D01*
X332Y557D01*
X332Y555D01*
X330Y555D01*
X330Y553D01*
X326Y553D01*
X326Y551D01*
X322Y551D01*
X322Y549D01*
X314Y549D01*
X314Y547D01*
X1194Y547D01*
X1194Y549D01*
X1188Y549D01*
X1188Y551D01*
X1184Y551D01*
X1184Y553D01*
X1180Y553D01*
X1180Y555D01*
X1176Y555D01*
X1176Y557D01*
X1174Y557D01*
X1174Y559D01*
X1172Y559D01*
X1172Y561D01*
X1170Y561D01*
X1170Y563D01*
X1168Y563D01*
X1168Y565D01*
X1166Y565D01*
X1166Y567D01*
X1164Y567D01*
X1164Y571D01*
X1162Y571D01*
X1162Y575D01*
X1160Y575D01*
X1160Y579D01*
X1158Y579D01*
X1158Y585D01*
X1156Y585D01*
X1156Y607D01*
X1158Y607D01*
X1158Y613D01*
X1160Y613D01*
X1160Y617D01*
X1162Y617D01*
X1162Y621D01*
X1164Y621D01*
X1164Y625D01*
X1166Y625D01*
X1166Y627D01*
X1168Y627D01*
X1168Y629D01*
X1170Y629D01*
X1170Y631D01*
X1172Y631D01*
X1172Y633D01*
X1174Y633D01*
X1174Y635D01*
X1176Y635D01*
X1176Y657D01*
X1174Y657D01*
X1174Y659D01*
X1172Y659D01*
X1172Y661D01*
X1170Y661D01*
X1170Y663D01*
X1168Y663D01*
X1168Y665D01*
X1166Y665D01*
X1166Y667D01*
X1164Y667D01*
X1164Y671D01*
X1162Y671D01*
X1162Y675D01*
X1160Y675D01*
X1160Y679D01*
X1158Y679D01*
X1158Y685D01*
X1156Y685D01*
X1156Y707D01*
X1158Y707D01*
X1158Y713D01*
X1160Y713D01*
X1160Y717D01*
X1162Y717D01*
X1162Y721D01*
X1164Y721D01*
X1164Y725D01*
X1166Y725D01*
X1166Y727D01*
X1168Y727D01*
X1168Y729D01*
X1170Y729D01*
X1170Y731D01*
X1172Y731D01*
X1172Y733D01*
X1174Y733D01*
X1174Y735D01*
X1176Y735D01*
X1176Y737D01*
X1180Y737D01*
X1180Y739D01*
X1184Y739D01*
X1184Y741D01*
X1188Y741D01*
X1188Y743D01*
X1196Y743D01*
X1196Y745D01*
X312Y745D01*
G37*
D02*
G36*
X1212Y745D02*
X1212Y743D01*
X1220Y743D01*
X1220Y741D01*
X1226Y741D01*
X1226Y739D01*
X1230Y739D01*
X1230Y737D01*
X1232Y737D01*
X1232Y735D01*
X1234Y735D01*
X1234Y733D01*
X1238Y733D01*
X1238Y731D01*
X1240Y731D01*
X1240Y729D01*
X1242Y729D01*
X1242Y725D01*
X1764Y725D01*
X1764Y723D01*
X1768Y723D01*
X1768Y721D01*
X1772Y721D01*
X1772Y719D01*
X1774Y719D01*
X1774Y717D01*
X1776Y717D01*
X1776Y715D01*
X1778Y715D01*
X1778Y713D01*
X1780Y713D01*
X1780Y709D01*
X1782Y709D01*
X1782Y705D01*
X1784Y705D01*
X1784Y687D01*
X1782Y687D01*
X1782Y683D01*
X1780Y683D01*
X1780Y679D01*
X1778Y679D01*
X1778Y677D01*
X1776Y677D01*
X1776Y675D01*
X1774Y675D01*
X1774Y673D01*
X1772Y673D01*
X1772Y671D01*
X1768Y671D01*
X1768Y669D01*
X1764Y669D01*
X1764Y667D01*
X2664Y667D01*
X2664Y745D01*
X1212Y745D01*
G37*
D02*
G36*
X1244Y725D02*
X1244Y723D01*
X1246Y723D01*
X1246Y719D01*
X1248Y719D01*
X1248Y717D01*
X1250Y717D01*
X1250Y711D01*
X1252Y711D01*
X1252Y703D01*
X1254Y703D01*
X1254Y689D01*
X1252Y689D01*
X1252Y681D01*
X1250Y681D01*
X1250Y675D01*
X1414Y675D01*
X1414Y673D01*
X1418Y673D01*
X1418Y671D01*
X1422Y671D01*
X1422Y669D01*
X1424Y669D01*
X1424Y667D01*
X1594Y667D01*
X1594Y669D01*
X1590Y669D01*
X1590Y671D01*
X1588Y671D01*
X1588Y673D01*
X1584Y673D01*
X1584Y675D01*
X1582Y675D01*
X1582Y679D01*
X1580Y679D01*
X1580Y681D01*
X1578Y681D01*
X1578Y685D01*
X1576Y685D01*
X1576Y707D01*
X1578Y707D01*
X1578Y711D01*
X1580Y711D01*
X1580Y713D01*
X1582Y713D01*
X1582Y717D01*
X1586Y717D01*
X1586Y719D01*
X1588Y719D01*
X1588Y721D01*
X1590Y721D01*
X1590Y723D01*
X1596Y723D01*
X1596Y725D01*
X1244Y725D01*
G37*
D02*
G36*
X1614Y725D02*
X1614Y723D01*
X1618Y723D01*
X1618Y721D01*
X1622Y721D01*
X1622Y719D01*
X1624Y719D01*
X1624Y717D01*
X1736Y717D01*
X1736Y719D01*
X1738Y719D01*
X1738Y721D01*
X1740Y721D01*
X1740Y723D01*
X1746Y723D01*
X1746Y725D01*
X1614Y725D01*
G37*
D02*
G36*
X1248Y675D02*
X1248Y671D01*
X1246Y671D01*
X1246Y669D01*
X1244Y669D01*
X1244Y665D01*
X1242Y665D01*
X1242Y663D01*
X1240Y663D01*
X1240Y661D01*
X1238Y661D01*
X1238Y659D01*
X1236Y659D01*
X1236Y657D01*
X1232Y657D01*
X1232Y635D01*
X1234Y635D01*
X1234Y633D01*
X1238Y633D01*
X1238Y631D01*
X1240Y631D01*
X1240Y629D01*
X1242Y629D01*
X1242Y625D01*
X1244Y625D01*
X1244Y623D01*
X1246Y623D01*
X1246Y619D01*
X1248Y619D01*
X1248Y617D01*
X1250Y617D01*
X1250Y611D01*
X1252Y611D01*
X1252Y603D01*
X1254Y603D01*
X1254Y589D01*
X1252Y589D01*
X1252Y581D01*
X1250Y581D01*
X1250Y575D01*
X1248Y575D01*
X1248Y571D01*
X1246Y571D01*
X1246Y569D01*
X1244Y569D01*
X1244Y565D01*
X1242Y565D01*
X1242Y563D01*
X1240Y563D01*
X1240Y561D01*
X1238Y561D01*
X1238Y559D01*
X1236Y559D01*
X1236Y557D01*
X1232Y557D01*
X1232Y555D01*
X1230Y555D01*
X1230Y553D01*
X1226Y553D01*
X1226Y551D01*
X1222Y551D01*
X1222Y549D01*
X1214Y549D01*
X1214Y547D01*
X1376Y547D01*
X1376Y557D01*
X1378Y557D01*
X1378Y561D01*
X1380Y561D01*
X1380Y563D01*
X1382Y563D01*
X1382Y629D01*
X1380Y629D01*
X1380Y631D01*
X1378Y631D01*
X1378Y635D01*
X1376Y635D01*
X1376Y657D01*
X1378Y657D01*
X1378Y661D01*
X1380Y661D01*
X1380Y663D01*
X1382Y663D01*
X1382Y667D01*
X1386Y667D01*
X1386Y669D01*
X1388Y669D01*
X1388Y671D01*
X1390Y671D01*
X1390Y673D01*
X1396Y673D01*
X1396Y675D01*
X1248Y675D01*
G37*
D02*
G36*
X1622Y673D02*
X1622Y671D01*
X1618Y671D01*
X1618Y669D01*
X1614Y669D01*
X1614Y667D01*
X1744Y667D01*
X1744Y669D01*
X1740Y669D01*
X1740Y671D01*
X1738Y671D01*
X1738Y673D01*
X1622Y673D01*
G37*
D02*
G36*
X1426Y667D02*
X1426Y665D01*
X2664Y665D01*
X2664Y667D01*
X1426Y667D01*
G37*
D02*
G36*
X1426Y667D02*
X1426Y665D01*
X2664Y665D01*
X2664Y667D01*
X1426Y667D01*
G37*
D02*
G36*
X1426Y667D02*
X1426Y665D01*
X2664Y665D01*
X2664Y667D01*
X1426Y667D01*
G37*
D02*
G36*
X1428Y665D02*
X1428Y663D01*
X1430Y663D01*
X1430Y659D01*
X1432Y659D01*
X1432Y655D01*
X1434Y655D01*
X1434Y637D01*
X1432Y637D01*
X1432Y633D01*
X1430Y633D01*
X1430Y629D01*
X1428Y629D01*
X1428Y627D01*
X1426Y627D01*
X1426Y565D01*
X1428Y565D01*
X1428Y563D01*
X1430Y563D01*
X1430Y559D01*
X1432Y559D01*
X1432Y555D01*
X1434Y555D01*
X1434Y537D01*
X1432Y537D01*
X1432Y533D01*
X1430Y533D01*
X1430Y529D01*
X1428Y529D01*
X1428Y527D01*
X1426Y527D01*
X1426Y525D01*
X1424Y525D01*
X1424Y523D01*
X1422Y523D01*
X1422Y521D01*
X1418Y521D01*
X1418Y519D01*
X1414Y519D01*
X1414Y517D01*
X2664Y517D01*
X2664Y665D01*
X1428Y665D01*
G37*
D02*
G36*
X52Y547D02*
X52Y545D01*
X1376Y545D01*
X1376Y547D01*
X52Y547D01*
G37*
D02*
G36*
X52Y547D02*
X52Y545D01*
X1376Y545D01*
X1376Y547D01*
X52Y547D01*
G37*
D02*
G36*
X52Y547D02*
X52Y545D01*
X1376Y545D01*
X1376Y547D01*
X52Y547D01*
G37*
D02*
G36*
X52Y545D02*
X52Y517D01*
X1394Y517D01*
X1394Y519D01*
X1390Y519D01*
X1390Y521D01*
X1388Y521D01*
X1388Y523D01*
X1384Y523D01*
X1384Y525D01*
X1382Y525D01*
X1382Y529D01*
X1380Y529D01*
X1380Y531D01*
X1378Y531D01*
X1378Y535D01*
X1376Y535D01*
X1376Y545D01*
X52Y545D01*
G37*
D02*
G36*
X52Y517D02*
X52Y515D01*
X2664Y515D01*
X2664Y517D01*
X52Y517D01*
G37*
D02*
G36*
X52Y517D02*
X52Y515D01*
X2664Y515D01*
X2664Y517D01*
X52Y517D01*
G37*
D02*
G36*
X52Y515D02*
X52Y445D01*
X1012Y445D01*
X1012Y443D01*
X1020Y443D01*
X1020Y441D01*
X1026Y441D01*
X1026Y439D01*
X1030Y439D01*
X1030Y437D01*
X1032Y437D01*
X1032Y435D01*
X1034Y435D01*
X1034Y433D01*
X1038Y433D01*
X1038Y431D01*
X1040Y431D01*
X1040Y429D01*
X1042Y429D01*
X1042Y425D01*
X1044Y425D01*
X1044Y423D01*
X1046Y423D01*
X1046Y419D01*
X1048Y419D01*
X1048Y417D01*
X1050Y417D01*
X1050Y411D01*
X1052Y411D01*
X1052Y403D01*
X1054Y403D01*
X1054Y395D01*
X2312Y395D01*
X2312Y393D01*
X2320Y393D01*
X2320Y391D01*
X2326Y391D01*
X2326Y389D01*
X2330Y389D01*
X2330Y387D01*
X2332Y387D01*
X2332Y385D01*
X2334Y385D01*
X2334Y383D01*
X2338Y383D01*
X2338Y381D01*
X2340Y381D01*
X2340Y379D01*
X2342Y379D01*
X2342Y375D01*
X2344Y375D01*
X2344Y373D01*
X2346Y373D01*
X2346Y369D01*
X2348Y369D01*
X2348Y367D01*
X2350Y367D01*
X2350Y361D01*
X2352Y361D01*
X2352Y353D01*
X2354Y353D01*
X2354Y339D01*
X2352Y339D01*
X2352Y331D01*
X2350Y331D01*
X2350Y325D01*
X2348Y325D01*
X2348Y321D01*
X2346Y321D01*
X2346Y319D01*
X2344Y319D01*
X2344Y315D01*
X2342Y315D01*
X2342Y313D01*
X2340Y313D01*
X2340Y311D01*
X2338Y311D01*
X2338Y309D01*
X2336Y309D01*
X2336Y307D01*
X2332Y307D01*
X2332Y305D01*
X2330Y305D01*
X2330Y303D01*
X2326Y303D01*
X2326Y301D01*
X2322Y301D01*
X2322Y299D01*
X2314Y299D01*
X2314Y297D01*
X2664Y297D01*
X2664Y515D01*
X52Y515D01*
G37*
D02*
G36*
X52Y445D02*
X52Y421D01*
X460Y421D01*
X460Y419D01*
X470Y419D01*
X470Y417D01*
X474Y417D01*
X474Y415D01*
X478Y415D01*
X478Y413D01*
X482Y413D01*
X482Y411D01*
X484Y411D01*
X484Y409D01*
X486Y409D01*
X486Y407D01*
X488Y407D01*
X488Y405D01*
X490Y405D01*
X490Y403D01*
X492Y403D01*
X492Y401D01*
X494Y401D01*
X494Y397D01*
X496Y397D01*
X496Y395D01*
X498Y395D01*
X498Y389D01*
X500Y389D01*
X500Y383D01*
X502Y383D01*
X502Y363D01*
X500Y363D01*
X500Y357D01*
X498Y357D01*
X498Y351D01*
X496Y351D01*
X496Y349D01*
X494Y349D01*
X494Y345D01*
X492Y345D01*
X492Y343D01*
X490Y343D01*
X490Y341D01*
X488Y341D01*
X488Y339D01*
X486Y339D01*
X486Y337D01*
X484Y337D01*
X484Y335D01*
X482Y335D01*
X482Y333D01*
X478Y333D01*
X478Y331D01*
X474Y331D01*
X474Y329D01*
X470Y329D01*
X470Y327D01*
X460Y327D01*
X460Y325D01*
X716Y325D01*
X716Y327D01*
X718Y327D01*
X718Y329D01*
X720Y329D01*
X720Y331D01*
X722Y331D01*
X722Y333D01*
X724Y333D01*
X724Y335D01*
X726Y335D01*
X726Y357D01*
X724Y357D01*
X724Y359D01*
X722Y359D01*
X722Y361D01*
X720Y361D01*
X720Y363D01*
X718Y363D01*
X718Y365D01*
X716Y365D01*
X716Y367D01*
X714Y367D01*
X714Y371D01*
X712Y371D01*
X712Y375D01*
X710Y375D01*
X710Y379D01*
X708Y379D01*
X708Y385D01*
X706Y385D01*
X706Y407D01*
X708Y407D01*
X708Y413D01*
X710Y413D01*
X710Y417D01*
X712Y417D01*
X712Y421D01*
X714Y421D01*
X714Y425D01*
X716Y425D01*
X716Y427D01*
X718Y427D01*
X718Y429D01*
X720Y429D01*
X720Y431D01*
X722Y431D01*
X722Y433D01*
X724Y433D01*
X724Y435D01*
X726Y435D01*
X726Y437D01*
X730Y437D01*
X730Y439D01*
X734Y439D01*
X734Y441D01*
X738Y441D01*
X738Y443D01*
X746Y443D01*
X746Y445D01*
X52Y445D01*
G37*
D02*
G36*
X762Y445D02*
X762Y443D01*
X770Y443D01*
X770Y441D01*
X776Y441D01*
X776Y439D01*
X780Y439D01*
X780Y437D01*
X782Y437D01*
X782Y435D01*
X784Y435D01*
X784Y433D01*
X788Y433D01*
X788Y431D01*
X790Y431D01*
X790Y429D01*
X792Y429D01*
X792Y425D01*
X794Y425D01*
X794Y423D01*
X796Y423D01*
X796Y419D01*
X798Y419D01*
X798Y417D01*
X800Y417D01*
X800Y411D01*
X802Y411D01*
X802Y403D01*
X804Y403D01*
X804Y389D01*
X802Y389D01*
X802Y381D01*
X800Y381D01*
X800Y375D01*
X798Y375D01*
X798Y371D01*
X796Y371D01*
X796Y369D01*
X794Y369D01*
X794Y365D01*
X792Y365D01*
X792Y363D01*
X790Y363D01*
X790Y361D01*
X788Y361D01*
X788Y359D01*
X786Y359D01*
X786Y357D01*
X782Y357D01*
X782Y335D01*
X784Y335D01*
X784Y333D01*
X788Y333D01*
X788Y331D01*
X790Y331D01*
X790Y329D01*
X792Y329D01*
X792Y325D01*
X794Y325D01*
X794Y323D01*
X796Y323D01*
X796Y319D01*
X798Y319D01*
X798Y317D01*
X800Y317D01*
X800Y311D01*
X802Y311D01*
X802Y303D01*
X804Y303D01*
X804Y289D01*
X802Y289D01*
X802Y281D01*
X800Y281D01*
X800Y275D01*
X798Y275D01*
X798Y271D01*
X796Y271D01*
X796Y269D01*
X794Y269D01*
X794Y265D01*
X792Y265D01*
X792Y263D01*
X790Y263D01*
X790Y261D01*
X788Y261D01*
X788Y259D01*
X786Y259D01*
X786Y257D01*
X782Y257D01*
X782Y255D01*
X780Y255D01*
X780Y253D01*
X776Y253D01*
X776Y251D01*
X772Y251D01*
X772Y249D01*
X764Y249D01*
X764Y247D01*
X994Y247D01*
X994Y249D01*
X988Y249D01*
X988Y251D01*
X984Y251D01*
X984Y253D01*
X980Y253D01*
X980Y255D01*
X976Y255D01*
X976Y257D01*
X974Y257D01*
X974Y259D01*
X972Y259D01*
X972Y261D01*
X970Y261D01*
X970Y263D01*
X968Y263D01*
X968Y265D01*
X966Y265D01*
X966Y267D01*
X964Y267D01*
X964Y271D01*
X962Y271D01*
X962Y275D01*
X960Y275D01*
X960Y279D01*
X958Y279D01*
X958Y285D01*
X956Y285D01*
X956Y307D01*
X958Y307D01*
X958Y313D01*
X960Y313D01*
X960Y317D01*
X962Y317D01*
X962Y321D01*
X964Y321D01*
X964Y325D01*
X966Y325D01*
X966Y327D01*
X968Y327D01*
X968Y329D01*
X970Y329D01*
X970Y331D01*
X972Y331D01*
X972Y333D01*
X974Y333D01*
X974Y335D01*
X976Y335D01*
X976Y357D01*
X974Y357D01*
X974Y359D01*
X972Y359D01*
X972Y361D01*
X970Y361D01*
X970Y363D01*
X968Y363D01*
X968Y365D01*
X966Y365D01*
X966Y367D01*
X964Y367D01*
X964Y371D01*
X962Y371D01*
X962Y375D01*
X960Y375D01*
X960Y379D01*
X958Y379D01*
X958Y385D01*
X956Y385D01*
X956Y407D01*
X958Y407D01*
X958Y413D01*
X960Y413D01*
X960Y417D01*
X962Y417D01*
X962Y421D01*
X964Y421D01*
X964Y425D01*
X966Y425D01*
X966Y427D01*
X968Y427D01*
X968Y429D01*
X970Y429D01*
X970Y431D01*
X972Y431D01*
X972Y433D01*
X974Y433D01*
X974Y435D01*
X976Y435D01*
X976Y437D01*
X980Y437D01*
X980Y439D01*
X984Y439D01*
X984Y441D01*
X988Y441D01*
X988Y443D01*
X996Y443D01*
X996Y445D01*
X762Y445D01*
G37*
D02*
G36*
X52Y421D02*
X52Y325D01*
X192Y325D01*
X192Y327D01*
X184Y327D01*
X184Y329D01*
X178Y329D01*
X178Y331D01*
X176Y331D01*
X176Y333D01*
X172Y333D01*
X172Y335D01*
X170Y335D01*
X170Y337D01*
X166Y337D01*
X166Y339D01*
X164Y339D01*
X164Y343D01*
X162Y343D01*
X162Y345D01*
X160Y345D01*
X160Y347D01*
X158Y347D01*
X158Y351D01*
X156Y351D01*
X156Y355D01*
X154Y355D01*
X154Y361D01*
X152Y361D01*
X152Y385D01*
X154Y385D01*
X154Y391D01*
X156Y391D01*
X156Y395D01*
X158Y395D01*
X158Y399D01*
X160Y399D01*
X160Y401D01*
X162Y401D01*
X162Y403D01*
X164Y403D01*
X164Y407D01*
X166Y407D01*
X166Y409D01*
X170Y409D01*
X170Y411D01*
X172Y411D01*
X172Y413D01*
X176Y413D01*
X176Y415D01*
X178Y415D01*
X178Y417D01*
X184Y417D01*
X184Y419D01*
X192Y419D01*
X192Y421D01*
X52Y421D01*
G37*
D02*
G36*
X204Y421D02*
X204Y419D01*
X214Y419D01*
X214Y417D01*
X218Y417D01*
X218Y415D01*
X222Y415D01*
X222Y413D01*
X226Y413D01*
X226Y411D01*
X228Y411D01*
X228Y409D01*
X230Y409D01*
X230Y407D01*
X232Y407D01*
X232Y405D01*
X234Y405D01*
X234Y403D01*
X236Y403D01*
X236Y401D01*
X238Y401D01*
X238Y397D01*
X240Y397D01*
X240Y395D01*
X242Y395D01*
X242Y389D01*
X244Y389D01*
X244Y383D01*
X246Y383D01*
X246Y363D01*
X244Y363D01*
X244Y357D01*
X242Y357D01*
X242Y351D01*
X240Y351D01*
X240Y349D01*
X238Y349D01*
X238Y345D01*
X236Y345D01*
X236Y343D01*
X234Y343D01*
X234Y341D01*
X232Y341D01*
X232Y339D01*
X230Y339D01*
X230Y337D01*
X228Y337D01*
X228Y335D01*
X226Y335D01*
X226Y333D01*
X222Y333D01*
X222Y331D01*
X218Y331D01*
X218Y329D01*
X214Y329D01*
X214Y327D01*
X204Y327D01*
X204Y325D01*
X448Y325D01*
X448Y327D01*
X440Y327D01*
X440Y329D01*
X434Y329D01*
X434Y331D01*
X432Y331D01*
X432Y333D01*
X428Y333D01*
X428Y335D01*
X426Y335D01*
X426Y337D01*
X422Y337D01*
X422Y339D01*
X420Y339D01*
X420Y341D01*
X418Y341D01*
X418Y345D01*
X416Y345D01*
X416Y347D01*
X414Y347D01*
X414Y351D01*
X412Y351D01*
X412Y355D01*
X410Y355D01*
X410Y361D01*
X408Y361D01*
X408Y385D01*
X410Y385D01*
X410Y391D01*
X412Y391D01*
X412Y395D01*
X414Y395D01*
X414Y399D01*
X416Y399D01*
X416Y401D01*
X418Y401D01*
X418Y405D01*
X420Y405D01*
X420Y407D01*
X422Y407D01*
X422Y409D01*
X426Y409D01*
X426Y411D01*
X428Y411D01*
X428Y413D01*
X432Y413D01*
X432Y415D01*
X434Y415D01*
X434Y417D01*
X440Y417D01*
X440Y419D01*
X448Y419D01*
X448Y421D01*
X204Y421D01*
G37*
D02*
G36*
X1054Y395D02*
X1054Y389D01*
X1052Y389D01*
X1052Y381D01*
X1050Y381D01*
X1050Y375D01*
X1048Y375D01*
X1048Y371D01*
X1046Y371D01*
X1046Y369D01*
X1044Y369D01*
X1044Y365D01*
X1042Y365D01*
X1042Y363D01*
X1040Y363D01*
X1040Y361D01*
X1038Y361D01*
X1038Y359D01*
X1036Y359D01*
X1036Y357D01*
X1032Y357D01*
X1032Y335D01*
X1034Y335D01*
X1034Y333D01*
X1038Y333D01*
X1038Y331D01*
X1040Y331D01*
X1040Y329D01*
X1042Y329D01*
X1042Y325D01*
X1044Y325D01*
X1044Y323D01*
X1046Y323D01*
X1046Y319D01*
X1048Y319D01*
X1048Y317D01*
X1512Y317D01*
X1512Y315D01*
X1516Y315D01*
X1516Y313D01*
X1518Y313D01*
X1518Y311D01*
X1522Y311D01*
X1522Y307D01*
X1524Y307D01*
X1524Y303D01*
X1526Y303D01*
X1526Y297D01*
X1894Y297D01*
X1894Y299D01*
X1888Y299D01*
X1888Y301D01*
X1884Y301D01*
X1884Y303D01*
X1880Y303D01*
X1880Y305D01*
X1876Y305D01*
X1876Y307D01*
X1874Y307D01*
X1874Y309D01*
X1872Y309D01*
X1872Y311D01*
X1870Y311D01*
X1870Y313D01*
X1868Y313D01*
X1868Y315D01*
X1866Y315D01*
X1866Y317D01*
X1864Y317D01*
X1864Y321D01*
X1862Y321D01*
X1862Y325D01*
X1860Y325D01*
X1860Y329D01*
X1858Y329D01*
X1858Y335D01*
X1856Y335D01*
X1856Y357D01*
X1858Y357D01*
X1858Y363D01*
X1860Y363D01*
X1860Y367D01*
X1862Y367D01*
X1862Y371D01*
X1864Y371D01*
X1864Y375D01*
X1866Y375D01*
X1866Y377D01*
X1868Y377D01*
X1868Y379D01*
X1870Y379D01*
X1870Y381D01*
X1872Y381D01*
X1872Y383D01*
X1874Y383D01*
X1874Y385D01*
X1876Y385D01*
X1876Y387D01*
X1880Y387D01*
X1880Y389D01*
X1884Y389D01*
X1884Y391D01*
X1888Y391D01*
X1888Y393D01*
X1896Y393D01*
X1896Y395D01*
X1054Y395D01*
G37*
D02*
G36*
X1912Y395D02*
X1912Y393D01*
X1920Y393D01*
X1920Y391D01*
X1926Y391D01*
X1926Y389D01*
X1930Y389D01*
X1930Y387D01*
X1932Y387D01*
X1932Y385D01*
X1934Y385D01*
X1934Y383D01*
X1938Y383D01*
X1938Y381D01*
X1940Y381D01*
X1940Y379D01*
X1942Y379D01*
X1942Y375D01*
X1944Y375D01*
X1944Y373D01*
X1964Y373D01*
X1964Y375D01*
X1966Y375D01*
X1966Y377D01*
X1968Y377D01*
X1968Y379D01*
X1970Y379D01*
X1970Y381D01*
X1972Y381D01*
X1972Y383D01*
X1974Y383D01*
X1974Y385D01*
X1976Y385D01*
X1976Y387D01*
X1980Y387D01*
X1980Y389D01*
X1984Y389D01*
X1984Y391D01*
X1988Y391D01*
X1988Y393D01*
X1996Y393D01*
X1996Y395D01*
X1912Y395D01*
G37*
D02*
G36*
X2012Y395D02*
X2012Y393D01*
X2020Y393D01*
X2020Y391D01*
X2026Y391D01*
X2026Y389D01*
X2030Y389D01*
X2030Y387D01*
X2032Y387D01*
X2032Y385D01*
X2034Y385D01*
X2034Y383D01*
X2038Y383D01*
X2038Y381D01*
X2040Y381D01*
X2040Y379D01*
X2042Y379D01*
X2042Y375D01*
X2044Y375D01*
X2044Y373D01*
X2064Y373D01*
X2064Y375D01*
X2066Y375D01*
X2066Y377D01*
X2068Y377D01*
X2068Y379D01*
X2070Y379D01*
X2070Y381D01*
X2072Y381D01*
X2072Y383D01*
X2074Y383D01*
X2074Y385D01*
X2076Y385D01*
X2076Y387D01*
X2080Y387D01*
X2080Y389D01*
X2084Y389D01*
X2084Y391D01*
X2088Y391D01*
X2088Y393D01*
X2096Y393D01*
X2096Y395D01*
X2012Y395D01*
G37*
D02*
G36*
X2112Y395D02*
X2112Y393D01*
X2120Y393D01*
X2120Y391D01*
X2126Y391D01*
X2126Y389D01*
X2130Y389D01*
X2130Y387D01*
X2132Y387D01*
X2132Y385D01*
X2134Y385D01*
X2134Y383D01*
X2138Y383D01*
X2138Y381D01*
X2140Y381D01*
X2140Y379D01*
X2142Y379D01*
X2142Y375D01*
X2144Y375D01*
X2144Y373D01*
X2164Y373D01*
X2164Y375D01*
X2166Y375D01*
X2166Y377D01*
X2168Y377D01*
X2168Y379D01*
X2170Y379D01*
X2170Y381D01*
X2172Y381D01*
X2172Y383D01*
X2174Y383D01*
X2174Y385D01*
X2176Y385D01*
X2176Y387D01*
X2180Y387D01*
X2180Y389D01*
X2184Y389D01*
X2184Y391D01*
X2188Y391D01*
X2188Y393D01*
X2196Y393D01*
X2196Y395D01*
X2112Y395D01*
G37*
D02*
G36*
X2212Y395D02*
X2212Y393D01*
X2220Y393D01*
X2220Y391D01*
X2226Y391D01*
X2226Y389D01*
X2230Y389D01*
X2230Y387D01*
X2232Y387D01*
X2232Y385D01*
X2234Y385D01*
X2234Y383D01*
X2238Y383D01*
X2238Y381D01*
X2240Y381D01*
X2240Y379D01*
X2242Y379D01*
X2242Y375D01*
X2244Y375D01*
X2244Y373D01*
X2264Y373D01*
X2264Y375D01*
X2266Y375D01*
X2266Y377D01*
X2268Y377D01*
X2268Y379D01*
X2270Y379D01*
X2270Y381D01*
X2272Y381D01*
X2272Y383D01*
X2274Y383D01*
X2274Y385D01*
X2276Y385D01*
X2276Y387D01*
X2280Y387D01*
X2280Y389D01*
X2284Y389D01*
X2284Y391D01*
X2288Y391D01*
X2288Y393D01*
X2296Y393D01*
X2296Y395D01*
X2212Y395D01*
G37*
D02*
G36*
X52Y325D02*
X52Y323D01*
X714Y323D01*
X714Y325D01*
X52Y325D01*
G37*
D02*
G36*
X52Y325D02*
X52Y323D01*
X714Y323D01*
X714Y325D01*
X52Y325D01*
G37*
D02*
G36*
X52Y325D02*
X52Y323D01*
X714Y323D01*
X714Y325D01*
X52Y325D01*
G37*
D02*
G36*
X52Y323D02*
X52Y247D01*
X744Y247D01*
X744Y249D01*
X738Y249D01*
X738Y251D01*
X734Y251D01*
X734Y253D01*
X730Y253D01*
X730Y255D01*
X726Y255D01*
X726Y257D01*
X724Y257D01*
X724Y259D01*
X722Y259D01*
X722Y261D01*
X720Y261D01*
X720Y263D01*
X718Y263D01*
X718Y265D01*
X716Y265D01*
X716Y267D01*
X714Y267D01*
X714Y271D01*
X712Y271D01*
X712Y275D01*
X710Y275D01*
X710Y279D01*
X708Y279D01*
X708Y285D01*
X706Y285D01*
X706Y307D01*
X708Y307D01*
X708Y313D01*
X710Y313D01*
X710Y317D01*
X712Y317D01*
X712Y321D01*
X714Y321D01*
X714Y323D01*
X52Y323D01*
G37*
D02*
G36*
X1944Y319D02*
X1944Y315D01*
X1942Y315D01*
X1942Y313D01*
X1940Y313D01*
X1940Y311D01*
X1938Y311D01*
X1938Y309D01*
X1936Y309D01*
X1936Y307D01*
X1932Y307D01*
X1932Y305D01*
X1930Y305D01*
X1930Y303D01*
X1926Y303D01*
X1926Y301D01*
X1922Y301D01*
X1922Y299D01*
X1914Y299D01*
X1914Y297D01*
X1994Y297D01*
X1994Y299D01*
X1988Y299D01*
X1988Y301D01*
X1984Y301D01*
X1984Y303D01*
X1980Y303D01*
X1980Y305D01*
X1976Y305D01*
X1976Y307D01*
X1974Y307D01*
X1974Y309D01*
X1972Y309D01*
X1972Y311D01*
X1970Y311D01*
X1970Y313D01*
X1968Y313D01*
X1968Y315D01*
X1966Y315D01*
X1966Y317D01*
X1964Y317D01*
X1964Y319D01*
X1944Y319D01*
G37*
D02*
G36*
X2044Y319D02*
X2044Y315D01*
X2042Y315D01*
X2042Y313D01*
X2040Y313D01*
X2040Y311D01*
X2038Y311D01*
X2038Y309D01*
X2036Y309D01*
X2036Y307D01*
X2032Y307D01*
X2032Y305D01*
X2030Y305D01*
X2030Y303D01*
X2026Y303D01*
X2026Y301D01*
X2022Y301D01*
X2022Y299D01*
X2014Y299D01*
X2014Y297D01*
X2094Y297D01*
X2094Y299D01*
X2088Y299D01*
X2088Y301D01*
X2084Y301D01*
X2084Y303D01*
X2080Y303D01*
X2080Y305D01*
X2076Y305D01*
X2076Y307D01*
X2074Y307D01*
X2074Y309D01*
X2072Y309D01*
X2072Y311D01*
X2070Y311D01*
X2070Y313D01*
X2068Y313D01*
X2068Y315D01*
X2066Y315D01*
X2066Y317D01*
X2064Y317D01*
X2064Y319D01*
X2044Y319D01*
G37*
D02*
G36*
X2144Y319D02*
X2144Y315D01*
X2142Y315D01*
X2142Y313D01*
X2140Y313D01*
X2140Y311D01*
X2138Y311D01*
X2138Y309D01*
X2136Y309D01*
X2136Y307D01*
X2132Y307D01*
X2132Y305D01*
X2130Y305D01*
X2130Y303D01*
X2126Y303D01*
X2126Y301D01*
X2122Y301D01*
X2122Y299D01*
X2114Y299D01*
X2114Y297D01*
X2194Y297D01*
X2194Y299D01*
X2188Y299D01*
X2188Y301D01*
X2184Y301D01*
X2184Y303D01*
X2180Y303D01*
X2180Y305D01*
X2176Y305D01*
X2176Y307D01*
X2174Y307D01*
X2174Y309D01*
X2172Y309D01*
X2172Y311D01*
X2170Y311D01*
X2170Y313D01*
X2168Y313D01*
X2168Y315D01*
X2166Y315D01*
X2166Y317D01*
X2164Y317D01*
X2164Y319D01*
X2144Y319D01*
G37*
D02*
G36*
X2244Y319D02*
X2244Y315D01*
X2242Y315D01*
X2242Y313D01*
X2240Y313D01*
X2240Y311D01*
X2238Y311D01*
X2238Y309D01*
X2236Y309D01*
X2236Y307D01*
X2232Y307D01*
X2232Y305D01*
X2230Y305D01*
X2230Y303D01*
X2226Y303D01*
X2226Y301D01*
X2222Y301D01*
X2222Y299D01*
X2214Y299D01*
X2214Y297D01*
X2294Y297D01*
X2294Y299D01*
X2288Y299D01*
X2288Y301D01*
X2284Y301D01*
X2284Y303D01*
X2280Y303D01*
X2280Y305D01*
X2276Y305D01*
X2276Y307D01*
X2274Y307D01*
X2274Y309D01*
X2272Y309D01*
X2272Y311D01*
X2270Y311D01*
X2270Y313D01*
X2268Y313D01*
X2268Y315D01*
X2266Y315D01*
X2266Y317D01*
X2264Y317D01*
X2264Y319D01*
X2244Y319D01*
G37*
D02*
G36*
X1526Y297D02*
X1526Y295D01*
X2664Y295D01*
X2664Y297D01*
X1526Y297D01*
G37*
D02*
G36*
X1526Y297D02*
X1526Y295D01*
X2664Y295D01*
X2664Y297D01*
X1526Y297D01*
G37*
D02*
G36*
X1526Y297D02*
X1526Y295D01*
X2664Y295D01*
X2664Y297D01*
X1526Y297D01*
G37*
D02*
G36*
X1526Y297D02*
X1526Y295D01*
X2664Y295D01*
X2664Y297D01*
X1526Y297D01*
G37*
D02*
G36*
X1526Y297D02*
X1526Y295D01*
X2664Y295D01*
X2664Y297D01*
X1526Y297D01*
G37*
D02*
G36*
X1526Y297D02*
X1526Y295D01*
X2664Y295D01*
X2664Y297D01*
X1526Y297D01*
G37*
D02*
G36*
X1526Y295D02*
X1526Y137D01*
X2516Y137D01*
X2516Y135D01*
X2522Y135D01*
X2522Y133D01*
X2526Y133D01*
X2526Y131D01*
X2528Y131D01*
X2528Y129D01*
X2532Y129D01*
X2532Y127D01*
X2534Y127D01*
X2534Y125D01*
X2536Y125D01*
X2536Y121D01*
X2538Y121D01*
X2538Y119D01*
X2540Y119D01*
X2540Y117D01*
X2542Y117D01*
X2542Y113D01*
X2544Y113D01*
X2544Y107D01*
X2564Y107D01*
X2564Y147D01*
X2566Y147D01*
X2566Y149D01*
X2568Y149D01*
X2568Y151D01*
X2570Y151D01*
X2570Y153D01*
X2572Y153D01*
X2572Y155D01*
X2574Y155D01*
X2574Y157D01*
X2576Y157D01*
X2576Y159D01*
X2578Y159D01*
X2578Y161D01*
X2580Y161D01*
X2580Y163D01*
X2582Y163D01*
X2582Y165D01*
X2584Y165D01*
X2584Y167D01*
X2586Y167D01*
X2586Y169D01*
X2588Y169D01*
X2588Y171D01*
X2590Y171D01*
X2590Y173D01*
X2592Y173D01*
X2592Y175D01*
X2594Y175D01*
X2594Y177D01*
X2596Y177D01*
X2596Y179D01*
X2598Y179D01*
X2598Y181D01*
X2600Y181D01*
X2600Y183D01*
X2602Y183D01*
X2602Y185D01*
X2604Y185D01*
X2604Y187D01*
X2606Y187D01*
X2606Y189D01*
X2608Y189D01*
X2608Y191D01*
X2610Y191D01*
X2610Y193D01*
X2612Y193D01*
X2612Y195D01*
X2614Y195D01*
X2614Y197D01*
X2616Y197D01*
X2616Y199D01*
X2618Y199D01*
X2618Y201D01*
X2620Y201D01*
X2620Y203D01*
X2622Y203D01*
X2622Y205D01*
X2624Y205D01*
X2624Y207D01*
X2626Y207D01*
X2626Y209D01*
X2628Y209D01*
X2628Y211D01*
X2630Y211D01*
X2630Y213D01*
X2632Y213D01*
X2632Y215D01*
X2634Y215D01*
X2634Y217D01*
X2636Y217D01*
X2636Y219D01*
X2638Y219D01*
X2638Y221D01*
X2640Y221D01*
X2640Y223D01*
X2642Y223D01*
X2642Y225D01*
X2644Y225D01*
X2644Y227D01*
X2646Y227D01*
X2646Y229D01*
X2648Y229D01*
X2648Y231D01*
X2650Y231D01*
X2650Y233D01*
X2652Y233D01*
X2652Y235D01*
X2654Y235D01*
X2654Y237D01*
X2656Y237D01*
X2656Y239D01*
X2658Y239D01*
X2658Y241D01*
X2660Y241D01*
X2660Y243D01*
X2662Y243D01*
X2662Y245D01*
X2664Y245D01*
X2664Y295D01*
X1526Y295D01*
G37*
D02*
G36*
X1048Y273D02*
X1048Y271D01*
X1046Y271D01*
X1046Y269D01*
X1044Y269D01*
X1044Y265D01*
X1042Y265D01*
X1042Y263D01*
X1040Y263D01*
X1040Y261D01*
X1038Y261D01*
X1038Y259D01*
X1036Y259D01*
X1036Y257D01*
X1032Y257D01*
X1032Y255D01*
X1030Y255D01*
X1030Y253D01*
X1026Y253D01*
X1026Y251D01*
X1022Y251D01*
X1022Y249D01*
X1014Y249D01*
X1014Y247D01*
X1482Y247D01*
X1482Y273D01*
X1048Y273D01*
G37*
D02*
G36*
X52Y247D02*
X52Y245D01*
X1482Y245D01*
X1482Y247D01*
X52Y247D01*
G37*
D02*
G36*
X52Y247D02*
X52Y245D01*
X1482Y245D01*
X1482Y247D01*
X52Y247D01*
G37*
D02*
G36*
X52Y247D02*
X52Y245D01*
X1482Y245D01*
X1482Y247D01*
X52Y247D01*
G37*
D02*
G36*
X52Y245D02*
X52Y243D01*
X466Y243D01*
X466Y241D01*
X472Y241D01*
X472Y239D01*
X476Y239D01*
X476Y237D01*
X480Y237D01*
X480Y235D01*
X482Y235D01*
X482Y233D01*
X486Y233D01*
X486Y231D01*
X488Y231D01*
X488Y229D01*
X490Y229D01*
X490Y225D01*
X492Y225D01*
X492Y223D01*
X494Y223D01*
X494Y221D01*
X496Y221D01*
X496Y217D01*
X1312Y217D01*
X1312Y215D01*
X1316Y215D01*
X1316Y213D01*
X1318Y213D01*
X1318Y211D01*
X1320Y211D01*
X1320Y209D01*
X1322Y209D01*
X1322Y207D01*
X1324Y207D01*
X1324Y203D01*
X1326Y203D01*
X1326Y137D01*
X1416Y137D01*
X1416Y135D01*
X1422Y135D01*
X1422Y133D01*
X1426Y133D01*
X1426Y131D01*
X1428Y131D01*
X1428Y129D01*
X1432Y129D01*
X1432Y127D01*
X1434Y127D01*
X1434Y125D01*
X1436Y125D01*
X1436Y121D01*
X1438Y121D01*
X1438Y119D01*
X1440Y119D01*
X1440Y117D01*
X1442Y117D01*
X1442Y113D01*
X1444Y113D01*
X1444Y107D01*
X1464Y107D01*
X1464Y113D01*
X1466Y113D01*
X1466Y117D01*
X1468Y117D01*
X1468Y119D01*
X1470Y119D01*
X1470Y121D01*
X1472Y121D01*
X1472Y125D01*
X1474Y125D01*
X1474Y127D01*
X1476Y127D01*
X1476Y129D01*
X1480Y129D01*
X1480Y131D01*
X1482Y131D01*
X1482Y245D01*
X52Y245D01*
G37*
D02*
G36*
X52Y243D02*
X52Y149D01*
X188Y149D01*
X188Y151D01*
X180Y151D01*
X180Y153D01*
X176Y153D01*
X176Y155D01*
X174Y155D01*
X174Y157D01*
X170Y157D01*
X170Y159D01*
X168Y159D01*
X168Y161D01*
X166Y161D01*
X166Y163D01*
X164Y163D01*
X164Y165D01*
X162Y165D01*
X162Y167D01*
X160Y167D01*
X160Y171D01*
X158Y171D01*
X158Y173D01*
X156Y173D01*
X156Y177D01*
X154Y177D01*
X154Y183D01*
X152Y183D01*
X152Y207D01*
X154Y207D01*
X154Y215D01*
X156Y215D01*
X156Y217D01*
X158Y217D01*
X158Y221D01*
X160Y221D01*
X160Y225D01*
X162Y225D01*
X162Y227D01*
X164Y227D01*
X164Y229D01*
X166Y229D01*
X166Y231D01*
X168Y231D01*
X168Y233D01*
X170Y233D01*
X170Y235D01*
X174Y235D01*
X174Y237D01*
X178Y237D01*
X178Y239D01*
X182Y239D01*
X182Y241D01*
X188Y241D01*
X188Y243D01*
X52Y243D01*
G37*
D02*
G36*
X210Y243D02*
X210Y241D01*
X216Y241D01*
X216Y239D01*
X220Y239D01*
X220Y237D01*
X224Y237D01*
X224Y235D01*
X226Y235D01*
X226Y233D01*
X230Y233D01*
X230Y231D01*
X232Y231D01*
X232Y229D01*
X234Y229D01*
X234Y227D01*
X236Y227D01*
X236Y223D01*
X238Y223D01*
X238Y221D01*
X240Y221D01*
X240Y217D01*
X242Y217D01*
X242Y213D01*
X244Y213D01*
X244Y205D01*
X246Y205D01*
X246Y185D01*
X244Y185D01*
X244Y179D01*
X242Y179D01*
X242Y175D01*
X240Y175D01*
X240Y171D01*
X238Y171D01*
X238Y169D01*
X236Y169D01*
X236Y165D01*
X234Y165D01*
X234Y163D01*
X232Y163D01*
X232Y161D01*
X230Y161D01*
X230Y159D01*
X228Y159D01*
X228Y157D01*
X224Y157D01*
X224Y155D01*
X220Y155D01*
X220Y153D01*
X216Y153D01*
X216Y151D01*
X210Y151D01*
X210Y149D01*
X444Y149D01*
X444Y151D01*
X436Y151D01*
X436Y153D01*
X432Y153D01*
X432Y155D01*
X430Y155D01*
X430Y157D01*
X426Y157D01*
X426Y159D01*
X424Y159D01*
X424Y161D01*
X422Y161D01*
X422Y163D01*
X420Y163D01*
X420Y165D01*
X418Y165D01*
X418Y167D01*
X416Y167D01*
X416Y169D01*
X414Y169D01*
X414Y173D01*
X412Y173D01*
X412Y177D01*
X410Y177D01*
X410Y183D01*
X408Y183D01*
X408Y209D01*
X410Y209D01*
X410Y215D01*
X412Y215D01*
X412Y219D01*
X414Y219D01*
X414Y221D01*
X416Y221D01*
X416Y225D01*
X418Y225D01*
X418Y227D01*
X420Y227D01*
X420Y229D01*
X422Y229D01*
X422Y231D01*
X424Y231D01*
X424Y233D01*
X426Y233D01*
X426Y235D01*
X430Y235D01*
X430Y237D01*
X434Y237D01*
X434Y239D01*
X438Y239D01*
X438Y241D01*
X444Y241D01*
X444Y243D01*
X210Y243D01*
G37*
D02*
G36*
X662Y217D02*
X662Y215D01*
X666Y215D01*
X666Y213D01*
X668Y213D01*
X668Y211D01*
X670Y211D01*
X670Y209D01*
X672Y209D01*
X672Y207D01*
X674Y207D01*
X674Y203D01*
X676Y203D01*
X676Y169D01*
X1006Y169D01*
X1006Y171D01*
X1012Y171D01*
X1012Y173D01*
X1018Y173D01*
X1018Y175D01*
X1024Y175D01*
X1024Y177D01*
X1032Y177D01*
X1032Y179D01*
X1038Y179D01*
X1038Y181D01*
X1044Y181D01*
X1044Y183D01*
X1050Y183D01*
X1050Y185D01*
X1056Y185D01*
X1056Y187D01*
X1062Y187D01*
X1062Y189D01*
X1068Y189D01*
X1068Y191D01*
X1074Y191D01*
X1074Y193D01*
X1080Y193D01*
X1080Y195D01*
X1086Y195D01*
X1086Y197D01*
X1092Y197D01*
X1092Y199D01*
X1098Y199D01*
X1098Y201D01*
X1106Y201D01*
X1106Y203D01*
X1112Y203D01*
X1112Y205D01*
X1118Y205D01*
X1118Y207D01*
X1124Y207D01*
X1124Y209D01*
X1130Y209D01*
X1130Y211D01*
X1136Y211D01*
X1136Y213D01*
X1142Y213D01*
X1142Y215D01*
X1148Y215D01*
X1148Y217D01*
X662Y217D01*
G37*
D02*
G36*
X496Y173D02*
X496Y171D01*
X494Y171D01*
X494Y169D01*
X492Y169D01*
X492Y165D01*
X490Y165D01*
X490Y163D01*
X488Y163D01*
X488Y161D01*
X486Y161D01*
X486Y159D01*
X482Y159D01*
X482Y157D01*
X480Y157D01*
X480Y155D01*
X476Y155D01*
X476Y153D01*
X472Y153D01*
X472Y151D01*
X466Y151D01*
X466Y149D01*
X632Y149D01*
X632Y173D01*
X496Y173D01*
G37*
D02*
G36*
X52Y149D02*
X52Y147D01*
X632Y147D01*
X632Y149D01*
X52Y149D01*
G37*
D02*
G36*
X52Y149D02*
X52Y147D01*
X632Y147D01*
X632Y149D01*
X52Y149D01*
G37*
D02*
G36*
X52Y149D02*
X52Y147D01*
X632Y147D01*
X632Y149D01*
X52Y149D01*
G37*
D02*
G36*
X52Y147D02*
X52Y125D01*
X646Y125D01*
X646Y127D01*
X642Y127D01*
X642Y129D01*
X640Y129D01*
X640Y131D01*
X638Y131D01*
X638Y133D01*
X636Y133D01*
X636Y137D01*
X634Y137D01*
X634Y141D01*
X632Y141D01*
X632Y147D01*
X52Y147D01*
G37*
D02*
G36*
X1050Y139D02*
X1050Y137D01*
X1044Y137D01*
X1044Y135D01*
X1038Y135D01*
X1038Y133D01*
X1032Y133D01*
X1032Y131D01*
X1026Y131D01*
X1026Y129D01*
X1020Y129D01*
X1020Y127D01*
X1014Y127D01*
X1014Y125D01*
X1074Y125D01*
X1074Y139D01*
X1050Y139D01*
G37*
D02*
G36*
X1326Y137D02*
X1326Y131D01*
X1328Y131D01*
X1328Y129D01*
X1332Y129D01*
X1332Y127D01*
X1334Y127D01*
X1334Y125D01*
X1336Y125D01*
X1336Y121D01*
X1338Y121D01*
X1338Y119D01*
X1340Y119D01*
X1340Y117D01*
X1342Y117D01*
X1342Y113D01*
X1344Y113D01*
X1344Y107D01*
X1364Y107D01*
X1364Y113D01*
X1366Y113D01*
X1366Y117D01*
X1368Y117D01*
X1368Y119D01*
X1370Y119D01*
X1370Y121D01*
X1372Y121D01*
X1372Y125D01*
X1374Y125D01*
X1374Y127D01*
X1376Y127D01*
X1376Y129D01*
X1380Y129D01*
X1380Y131D01*
X1382Y131D01*
X1382Y133D01*
X1386Y133D01*
X1386Y135D01*
X1392Y135D01*
X1392Y137D01*
X1326Y137D01*
G37*
D02*
G36*
X1526Y137D02*
X1526Y131D01*
X1528Y131D01*
X1528Y129D01*
X1532Y129D01*
X1532Y127D01*
X1534Y127D01*
X1534Y125D01*
X1536Y125D01*
X1536Y121D01*
X1538Y121D01*
X1538Y119D01*
X1540Y119D01*
X1540Y117D01*
X1542Y117D01*
X1542Y113D01*
X1544Y113D01*
X1544Y107D01*
X1564Y107D01*
X1564Y113D01*
X1566Y113D01*
X1566Y117D01*
X1568Y117D01*
X1568Y119D01*
X1570Y119D01*
X1570Y121D01*
X1572Y121D01*
X1572Y125D01*
X1574Y125D01*
X1574Y127D01*
X1576Y127D01*
X1576Y129D01*
X1580Y129D01*
X1580Y131D01*
X1582Y131D01*
X1582Y133D01*
X1586Y133D01*
X1586Y135D01*
X1592Y135D01*
X1592Y137D01*
X1526Y137D01*
G37*
D02*
G36*
X1616Y137D02*
X1616Y135D01*
X1622Y135D01*
X1622Y133D01*
X1626Y133D01*
X1626Y131D01*
X1628Y131D01*
X1628Y129D01*
X1632Y129D01*
X1632Y127D01*
X1634Y127D01*
X1634Y125D01*
X1636Y125D01*
X1636Y121D01*
X1638Y121D01*
X1638Y119D01*
X1640Y119D01*
X1640Y117D01*
X1642Y117D01*
X1642Y113D01*
X1644Y113D01*
X1644Y107D01*
X1664Y107D01*
X1664Y113D01*
X1666Y113D01*
X1666Y117D01*
X1668Y117D01*
X1668Y119D01*
X1670Y119D01*
X1670Y123D01*
X1672Y123D01*
X1672Y125D01*
X1674Y125D01*
X1674Y127D01*
X1676Y127D01*
X1676Y129D01*
X1680Y129D01*
X1680Y131D01*
X1682Y131D01*
X1682Y133D01*
X1686Y133D01*
X1686Y135D01*
X1692Y135D01*
X1692Y137D01*
X1616Y137D01*
G37*
D02*
G36*
X1716Y137D02*
X1716Y135D01*
X1722Y135D01*
X1722Y133D01*
X1726Y133D01*
X1726Y131D01*
X1728Y131D01*
X1728Y129D01*
X1732Y129D01*
X1732Y127D01*
X1734Y127D01*
X1734Y125D01*
X1736Y125D01*
X1736Y121D01*
X1738Y121D01*
X1738Y119D01*
X1740Y119D01*
X1740Y115D01*
X1742Y115D01*
X1742Y113D01*
X1744Y113D01*
X1744Y107D01*
X1764Y107D01*
X1764Y113D01*
X1766Y113D01*
X1766Y117D01*
X1768Y117D01*
X1768Y119D01*
X1770Y119D01*
X1770Y121D01*
X1772Y121D01*
X1772Y125D01*
X1774Y125D01*
X1774Y127D01*
X1776Y127D01*
X1776Y129D01*
X1780Y129D01*
X1780Y131D01*
X1782Y131D01*
X1782Y133D01*
X1786Y133D01*
X1786Y135D01*
X1792Y135D01*
X1792Y137D01*
X1716Y137D01*
G37*
D02*
G36*
X1816Y137D02*
X1816Y135D01*
X1822Y135D01*
X1822Y133D01*
X1826Y133D01*
X1826Y131D01*
X1828Y131D01*
X1828Y129D01*
X1832Y129D01*
X1832Y127D01*
X1834Y127D01*
X1834Y125D01*
X1836Y125D01*
X1836Y121D01*
X1838Y121D01*
X1838Y119D01*
X1840Y119D01*
X1840Y117D01*
X1842Y117D01*
X1842Y113D01*
X1844Y113D01*
X1844Y107D01*
X1846Y107D01*
X1846Y85D01*
X1844Y85D01*
X1844Y79D01*
X1842Y79D01*
X1842Y75D01*
X1840Y75D01*
X1840Y71D01*
X1838Y71D01*
X1838Y69D01*
X1836Y69D01*
X1836Y67D01*
X1834Y67D01*
X1834Y47D01*
X1974Y47D01*
X1974Y67D01*
X1972Y67D01*
X1972Y69D01*
X1970Y69D01*
X1970Y71D01*
X1968Y71D01*
X1968Y75D01*
X1966Y75D01*
X1966Y79D01*
X1964Y79D01*
X1964Y85D01*
X1962Y85D01*
X1962Y107D01*
X1964Y107D01*
X1964Y113D01*
X1966Y113D01*
X1966Y117D01*
X1968Y117D01*
X1968Y119D01*
X1970Y119D01*
X1970Y121D01*
X1972Y121D01*
X1972Y125D01*
X1974Y125D01*
X1974Y127D01*
X1976Y127D01*
X1976Y129D01*
X1980Y129D01*
X1980Y131D01*
X1982Y131D01*
X1982Y133D01*
X1986Y133D01*
X1986Y135D01*
X1992Y135D01*
X1992Y137D01*
X1816Y137D01*
G37*
D02*
G36*
X2016Y137D02*
X2016Y135D01*
X2022Y135D01*
X2022Y133D01*
X2026Y133D01*
X2026Y131D01*
X2028Y131D01*
X2028Y129D01*
X2032Y129D01*
X2032Y127D01*
X2034Y127D01*
X2034Y125D01*
X2036Y125D01*
X2036Y121D01*
X2038Y121D01*
X2038Y119D01*
X2040Y119D01*
X2040Y117D01*
X2042Y117D01*
X2042Y113D01*
X2044Y113D01*
X2044Y107D01*
X2064Y107D01*
X2064Y113D01*
X2066Y113D01*
X2066Y117D01*
X2068Y117D01*
X2068Y119D01*
X2070Y119D01*
X2070Y121D01*
X2072Y121D01*
X2072Y125D01*
X2074Y125D01*
X2074Y127D01*
X2076Y127D01*
X2076Y129D01*
X2080Y129D01*
X2080Y131D01*
X2082Y131D01*
X2082Y133D01*
X2086Y133D01*
X2086Y135D01*
X2092Y135D01*
X2092Y137D01*
X2016Y137D01*
G37*
D02*
G36*
X2116Y137D02*
X2116Y135D01*
X2122Y135D01*
X2122Y133D01*
X2126Y133D01*
X2126Y131D01*
X2128Y131D01*
X2128Y129D01*
X2132Y129D01*
X2132Y127D01*
X2134Y127D01*
X2134Y125D01*
X2136Y125D01*
X2136Y121D01*
X2138Y121D01*
X2138Y119D01*
X2140Y119D01*
X2140Y117D01*
X2142Y117D01*
X2142Y113D01*
X2144Y113D01*
X2144Y107D01*
X2164Y107D01*
X2164Y113D01*
X2166Y113D01*
X2166Y117D01*
X2168Y117D01*
X2168Y119D01*
X2170Y119D01*
X2170Y123D01*
X2172Y123D01*
X2172Y125D01*
X2174Y125D01*
X2174Y127D01*
X2176Y127D01*
X2176Y129D01*
X2180Y129D01*
X2180Y131D01*
X2182Y131D01*
X2182Y133D01*
X2186Y133D01*
X2186Y135D01*
X2192Y135D01*
X2192Y137D01*
X2116Y137D01*
G37*
D02*
G36*
X2216Y137D02*
X2216Y135D01*
X2222Y135D01*
X2222Y133D01*
X2226Y133D01*
X2226Y131D01*
X2228Y131D01*
X2228Y129D01*
X2232Y129D01*
X2232Y127D01*
X2234Y127D01*
X2234Y125D01*
X2236Y125D01*
X2236Y121D01*
X2238Y121D01*
X2238Y119D01*
X2240Y119D01*
X2240Y115D01*
X2242Y115D01*
X2242Y113D01*
X2244Y113D01*
X2244Y107D01*
X2264Y107D01*
X2264Y113D01*
X2266Y113D01*
X2266Y117D01*
X2268Y117D01*
X2268Y119D01*
X2270Y119D01*
X2270Y121D01*
X2272Y121D01*
X2272Y125D01*
X2274Y125D01*
X2274Y127D01*
X2276Y127D01*
X2276Y129D01*
X2280Y129D01*
X2280Y131D01*
X2282Y131D01*
X2282Y133D01*
X2286Y133D01*
X2286Y135D01*
X2292Y135D01*
X2292Y137D01*
X2216Y137D01*
G37*
D02*
G36*
X2316Y137D02*
X2316Y135D01*
X2322Y135D01*
X2322Y133D01*
X2326Y133D01*
X2326Y131D01*
X2328Y131D01*
X2328Y129D01*
X2332Y129D01*
X2332Y127D01*
X2334Y127D01*
X2334Y125D01*
X2336Y125D01*
X2336Y121D01*
X2338Y121D01*
X2338Y119D01*
X2340Y119D01*
X2340Y117D01*
X2342Y117D01*
X2342Y113D01*
X2344Y113D01*
X2344Y107D01*
X2364Y107D01*
X2364Y113D01*
X2366Y113D01*
X2366Y117D01*
X2368Y117D01*
X2368Y119D01*
X2370Y119D01*
X2370Y121D01*
X2372Y121D01*
X2372Y125D01*
X2374Y125D01*
X2374Y127D01*
X2376Y127D01*
X2376Y129D01*
X2380Y129D01*
X2380Y131D01*
X2382Y131D01*
X2382Y133D01*
X2386Y133D01*
X2386Y135D01*
X2392Y135D01*
X2392Y137D01*
X2316Y137D01*
G37*
D02*
G36*
X2416Y137D02*
X2416Y135D01*
X2422Y135D01*
X2422Y133D01*
X2426Y133D01*
X2426Y131D01*
X2428Y131D01*
X2428Y129D01*
X2432Y129D01*
X2432Y127D01*
X2434Y127D01*
X2434Y125D01*
X2436Y125D01*
X2436Y121D01*
X2438Y121D01*
X2438Y119D01*
X2440Y119D01*
X2440Y117D01*
X2442Y117D01*
X2442Y113D01*
X2444Y113D01*
X2444Y107D01*
X2464Y107D01*
X2464Y113D01*
X2466Y113D01*
X2466Y117D01*
X2468Y117D01*
X2468Y119D01*
X2470Y119D01*
X2470Y121D01*
X2472Y121D01*
X2472Y125D01*
X2474Y125D01*
X2474Y127D01*
X2476Y127D01*
X2476Y129D01*
X2480Y129D01*
X2480Y131D01*
X2482Y131D01*
X2482Y133D01*
X2486Y133D01*
X2486Y135D01*
X2492Y135D01*
X2492Y137D01*
X2416Y137D01*
G37*
D02*
G36*
X52Y125D02*
X52Y123D01*
X1072Y123D01*
X1072Y125D01*
X52Y125D01*
G37*
D02*
G36*
X52Y125D02*
X52Y123D01*
X1072Y123D01*
X1072Y125D01*
X52Y125D01*
G37*
D02*
G36*
X52Y123D02*
X52Y71D01*
X54Y71D01*
X54Y67D01*
X56Y67D01*
X56Y63D01*
X58Y63D01*
X58Y61D01*
X60Y61D01*
X60Y59D01*
X62Y59D01*
X62Y57D01*
X64Y57D01*
X64Y55D01*
X66Y55D01*
X66Y53D01*
X70Y53D01*
X70Y51D01*
X74Y51D01*
X74Y49D01*
X80Y49D01*
X80Y47D01*
X1074Y47D01*
X1074Y67D01*
X1072Y67D01*
X1072Y69D01*
X1070Y69D01*
X1070Y71D01*
X1068Y71D01*
X1068Y75D01*
X1066Y75D01*
X1066Y79D01*
X1064Y79D01*
X1064Y85D01*
X1062Y85D01*
X1062Y107D01*
X1064Y107D01*
X1064Y113D01*
X1066Y113D01*
X1066Y117D01*
X1068Y117D01*
X1068Y119D01*
X1070Y119D01*
X1070Y121D01*
X1072Y121D01*
X1072Y123D01*
X52Y123D01*
G37*
D02*
G36*
X1156Y173D02*
X1156Y171D01*
X1150Y171D01*
X1150Y169D01*
X1142Y169D01*
X1142Y167D01*
X1136Y167D01*
X1136Y165D01*
X1130Y165D01*
X1130Y163D01*
X1124Y163D01*
X1124Y161D01*
X1118Y161D01*
X1118Y159D01*
X1112Y159D01*
X1112Y157D01*
X1106Y157D01*
X1106Y137D01*
X1216Y137D01*
X1216Y135D01*
X1222Y135D01*
X1222Y133D01*
X1226Y133D01*
X1226Y131D01*
X1228Y131D01*
X1228Y129D01*
X1232Y129D01*
X1232Y127D01*
X1234Y127D01*
X1234Y125D01*
X1236Y125D01*
X1236Y121D01*
X1238Y121D01*
X1238Y119D01*
X1240Y119D01*
X1240Y117D01*
X1242Y117D01*
X1242Y113D01*
X1244Y113D01*
X1244Y107D01*
X1264Y107D01*
X1264Y113D01*
X1266Y113D01*
X1266Y117D01*
X1268Y117D01*
X1268Y119D01*
X1270Y119D01*
X1270Y121D01*
X1272Y121D01*
X1272Y125D01*
X1274Y125D01*
X1274Y127D01*
X1276Y127D01*
X1276Y129D01*
X1280Y129D01*
X1280Y131D01*
X1282Y131D01*
X1282Y173D01*
X1156Y173D01*
G37*
D02*
G36*
X1116Y137D02*
X1116Y135D01*
X1122Y135D01*
X1122Y133D01*
X1126Y133D01*
X1126Y131D01*
X1128Y131D01*
X1128Y129D01*
X1132Y129D01*
X1132Y127D01*
X1134Y127D01*
X1134Y125D01*
X1136Y125D01*
X1136Y121D01*
X1138Y121D01*
X1138Y119D01*
X1140Y119D01*
X1140Y117D01*
X1142Y117D01*
X1142Y113D01*
X1144Y113D01*
X1144Y107D01*
X1164Y107D01*
X1164Y113D01*
X1166Y113D01*
X1166Y117D01*
X1168Y117D01*
X1168Y119D01*
X1170Y119D01*
X1170Y121D01*
X1172Y121D01*
X1172Y125D01*
X1174Y125D01*
X1174Y127D01*
X1176Y127D01*
X1176Y129D01*
X1180Y129D01*
X1180Y131D01*
X1182Y131D01*
X1182Y133D01*
X1186Y133D01*
X1186Y135D01*
X1192Y135D01*
X1192Y137D01*
X1116Y137D01*
G37*
D02*
G36*
X1682Y77D02*
X1721Y77D01*
X1721Y53D01*
X1682Y53D01*
X1682Y77D01*
G37*
D02*
G36*
X1582Y77D02*
X1621Y77D01*
X1621Y53D01*
X1582Y53D01*
X1582Y77D01*
G37*
D02*
G36*
X1022Y2041D02*
X1061Y2041D01*
X1061Y2019D01*
X1022Y2019D01*
X1022Y2041D01*
G37*
D02*
G36*
X1022Y1977D02*
X1061Y1977D01*
X1061Y1953D01*
X1022Y1953D01*
X1022Y1977D01*
G37*
D02*
G36*
X1881Y331D02*
X1926Y331D01*
X1926Y297D01*
X1881Y297D01*
X1881Y331D01*
G37*
D02*
G36*
X1471Y849D02*
X1516Y849D01*
X1516Y817D01*
X1471Y817D01*
X1471Y849D01*
G37*
D02*
G36*
X702Y422D02*
X734Y422D01*
X734Y377D01*
X702Y377D01*
X702Y422D01*
G37*
D02*
G36*
X2520Y820D02*
X2554Y820D01*
X2554Y775D01*
X2520Y775D01*
X2520Y820D01*
G37*
D02*
G36*
X2520Y970D02*
X2554Y970D01*
X2554Y925D01*
X2520Y925D01*
X2520Y970D01*
G37*
D02*
G36*
X2520Y1120D02*
X2554Y1120D01*
X2554Y1075D01*
X2520Y1075D01*
X2520Y1120D01*
G37*
D02*
G36*
X1222Y920D02*
X1254Y920D01*
X1254Y875D01*
X1222Y875D01*
X1222Y920D01*
G37*
D02*
G36*
X2520Y1270D02*
X2554Y1270D01*
X2554Y1225D01*
X2520Y1225D01*
X2520Y1270D01*
G37*
D02*
G36*
X2520Y1470D02*
X2554Y1470D01*
X2554Y1425D01*
X2520Y1425D01*
X2520Y1470D01*
G37*
D02*
G36*
X2329Y1429D02*
X2374Y1429D01*
X2374Y1397D01*
X2329Y1397D01*
X2329Y1429D01*
G37*
D02*
G36*
X2152Y1470D02*
X2182Y1470D01*
X2182Y1425D01*
X2152Y1425D01*
X2152Y1470D01*
G37*
D02*
G36*
X402Y920D02*
X434Y920D01*
X434Y875D01*
X402Y875D01*
X402Y920D01*
G37*
D02*
G36*
X432Y359D02*
X475Y359D01*
X475Y325D01*
X432Y325D01*
X432Y359D01*
G37*
D02*
G36*
X404Y397D02*
X436Y397D01*
X436Y354D01*
X404Y354D01*
X404Y397D01*
G37*
D02*
G36*
X470Y397D02*
X502Y397D01*
X502Y354D01*
X470Y354D01*
X470Y397D01*
G37*
D02*
G36*
X176Y359D02*
X219Y359D01*
X219Y325D01*
X176Y325D01*
X176Y359D01*
G37*
D02*
G36*
X148Y397D02*
X180Y397D01*
X180Y354D01*
X148Y354D01*
X148Y397D01*
G37*
D02*
G36*
X214Y397D02*
X246Y397D01*
X246Y354D01*
X214Y354D01*
X214Y397D01*
G37*
D02*
G36*
X182Y847D02*
X225Y847D01*
X225Y815D01*
X182Y815D01*
X182Y847D01*
G37*
D02*
G36*
X154Y819D02*
X186Y819D01*
X186Y776D01*
X154Y776D01*
X154Y819D01*
G37*
D02*
G36*
X220Y819D02*
X252Y819D01*
X252Y776D01*
X220Y776D01*
X220Y819D01*
G37*
D02*
G04 End of Copper0*
M02*