; NON-PLATED HOLES START AT T1
; THROUGH (PLATED) HOLES START AT T100
M48
INCH
T1C0.086614
T100C0.040278
T101C0.031497
T102C0.038000
T103C0.015748
T104C0.035000
%
T1
X020699Y012462
X014227Y012462
T100
X017039Y000957
X011040Y000957
X025040Y019957
X009439Y019957
X011440Y019957
X015040Y000957
X015440Y019957
X012040Y000957
X016040Y000957
X010440Y019957
X020040Y000957
X018040Y019957
X012440Y019957
X014040Y000957
X019040Y019957
X016439Y019957
X013040Y000957
X021040Y000957
X007439Y019957
X022039Y019957
X020040Y019957
X018040Y000957
X014440Y019957
X025040Y000957
X023040Y000957
X021040Y019957
X008439Y019957
X022039Y000957
X013440Y019957
X024040Y000957
X024040Y019957
X023040Y019957
T101
X004046Y019491
X004046Y018507
T102
X004546Y009962
X012046Y008962
X010546Y008962
X007546Y009962
X009046Y010962
X023046Y010962
X006046Y010962
X024046Y012462
X024046Y007962
X007546Y008962
X023046Y007962
X024046Y010962
X013953Y007963
X003046Y006962
X023046Y003462
X023546Y014462
X009046Y009962
X010046Y003962
X015953Y007963
X007546Y003962
X012046Y010962
X025046Y012462
X007546Y010962
X025046Y015462
X023046Y009462
X003046Y005962
X020046Y003462
X025046Y010962
X012046Y005962
X006046Y009962
X004546Y010962
X021046Y007962
X023546Y015462
X007546Y002962
X019046Y003462
X020046Y007962
X016953Y007963
X022046Y016462
X023046Y012462
X009046Y008962
X025046Y009462
X024046Y009462
X012046Y006962
X014953Y007963
X025046Y007962
X021046Y003462
X025046Y014462
X010546Y010962
X025046Y016462
X022046Y003462
X012046Y009962
X022046Y014462
X023546Y016462
X006046Y008962
X022046Y015462
X019046Y007962
X004546Y008962
X010546Y009962
X018046Y007962
X010046Y002962
T103
X016046Y006962
X017546Y006962
X014046Y006462
X014046Y005462
T104
X002046Y011962
X004546Y003734
X001987Y003734
X004546Y001962
X002046Y007962
X001987Y001962
T00
M30
